<svg width="136" height="103" viewBox="0 0 136 103" fill="none" xmlns="http://www.w3.org/2000/svg">
<path fill-rule="evenodd" clip-rule="evenodd" d="M86.9035 1.39287L79.716 5.10064C69.289 10.4795 63.3687 18.9937 61.491 27.6032C60.8618 27.7785 60.4187 28.9171 60.0808 30.501C57.5307 41.8185 65.2654 52.4108 70.5854 55.8827C70.0546 56.6543 69.7786 57.6727 69.7689 58.7823C63.4102 55.0353 59.163 49.2727 57.1609 42.7152C53.3412 30.205 57.7007 14.999 70.513 5.05224C57.941 5.69523 49.3554 12.1483 44.5688 20.5493C38.7565 30.7501 38.4942 43.8993 43.7584 53.5401C48.8361 62.8392 58.8839 69.1403 69.5923 70.4277C78.1796 71.4601 87.0839 69.2601 94.1064 62.8533C86.0378 63.9019 79.0873 62.9912 73.3738 60.5887C72.8765 59.3618 72.8716 58.0961 73.4712 57.2263C78.1706 59.1781 82.299 60.7573 85.9522 60.2571C87.7738 60.0076 88.5984 59.134 88.6779 58.2717C92.1689 58.1864 96.003 57.6559 100.182 56.5873L106.784 54.8991L102.84 60.4562C94.2274 72.5921 81.2244 76.8622 68.9955 75.3919C56.8477 73.9315 45.2987 66.794 39.37 55.9363C33.2233 44.6793 33.6087 29.6852 40.2245 18.074C46.9393 6.28899 60.0228 -1.93966 78.8774 0.39784L86.9035 1.39287Z" fill="black"/>
<path d="M91.5752 9.11816L89.8831 13.1991L85.4041 13.8959L88.5892 16.7824L87.7929 21.2615L91.5752 19.1712L95.6562 21.2615L94.8599 16.7824L97.9455 13.8959L93.765 13.1991L91.5752 9.11816Z" stroke="black" stroke-width="3"/>
<path d="M102.203 25.9121L100.511 29.9931L96.032 30.6898L99.2171 33.5763L98.4208 38.0554L102.203 35.9652L106.284 38.0554L105.488 33.5763L108.573 30.6898L104.393 29.9931L102.203 25.9121Z" stroke="black" stroke-width="3"/>
<path d="M68.1765 29.4884L68.3524 30.4728L69.1505 30.3301L69.176 29.5198L68.1765 29.4884ZM64.1976 30.1996L63.3064 30.6533L63.6431 31.3146L64.3736 31.184L64.1976 30.1996ZM72.3766 29.1628L71.4397 29.5123L71.4509 29.5422L71.464 29.5714L72.3766 29.1628ZM74.2502 38.4202L73.3685 37.9484L73.2502 38.1695L73.2502 38.4202L74.2502 38.4202ZM76.4819 39.7151L76.4819 40.7152L76.4924 40.7151L76.4819 39.7151ZM80.1905 40.6902L79.7384 41.5821L79.7588 41.5924L79.7796 41.6018L80.1905 40.6902ZM86.6905 46.82L85.7392 47.1282L85.9411 47.7514L86.593 47.8153L86.6905 46.82ZM88.5364 46.9232L88.5025 47.9226L88.5364 46.9232ZM92.6819 47.4914L92.985 46.5384L92.6819 47.4914ZM91.7752 51.0819L91.6275 50.0929L91.7752 51.0819ZM86.7193 50.7703L86.9756 49.8037L85.9981 49.5444L85.7499 50.5249L86.7193 50.7703ZM82.2128 55.7504L81.9428 54.7875L82.0575 56.7383L82.2128 55.7504ZM87.3094 56.5515L87.4675 55.564L87.4647 55.5636L87.3094 56.5515ZM86.3731 60.4618L86.2374 59.471L86.3731 60.4618ZM73.8921 57.4311L74.2756 56.5075L73.5281 56.1971L73.0687 56.8635L73.8921 57.4311ZM81.9648 64.1537L81.6316 63.2109L81.9648 64.1537ZM83.4801 66.7436L83.7472 67.7073L83.7778 67.6988L83.8078 67.6884L83.4801 66.7436ZM71.0063 56.0874L71.8302 56.6542L72.4109 55.81L71.5528 55.25L71.0063 56.0874ZM60.5017 30.7057L61.4773 30.9255L61.4797 30.9144L60.5017 30.7057ZM68.0005 28.504L64.0216 29.2152L64.3736 31.184L68.3524 30.4728L68.0005 28.504ZM73.3136 28.8133C72.8974 27.6975 72.3974 26.7868 71.8412 26.138C71.3098 25.5183 70.5853 24.9802 69.7219 25.0008C68.7796 25.0234 68.1393 25.6845 67.7745 26.4399C67.4102 27.1944 67.2158 28.2187 67.1769 29.457L69.176 29.5198C69.2105 28.4186 69.3827 27.709 69.5756 27.3095C69.7681 26.9108 69.8757 26.9977 69.7698 27.0003C69.7428 27.0009 69.9431 26.9969 70.3228 27.4398C70.6776 27.8536 71.0748 28.5341 71.4397 29.5123L73.3136 28.8133ZM75.1318 38.8921C75.8405 37.568 75.7006 35.857 75.2974 34.2053C74.8824 32.5051 74.1212 30.612 73.2893 28.7541L71.464 29.5714C72.2852 31.4055 72.9843 33.163 73.3545 34.6796C73.7365 36.2446 73.7068 37.3163 73.3685 37.9484L75.1318 38.8921ZM76.4819 38.7151C75.8666 38.7151 75.504 38.643 75.3245 38.554C75.2538 38.5189 75.2503 38.4999 75.2595 38.5143C75.2704 38.5313 75.2502 38.5168 75.2502 38.4202L73.2502 38.4202C73.2502 38.8333 73.3471 39.2356 73.574 39.5909C73.7994 39.9438 74.1111 40.1847 74.4364 40.346C75.049 40.6496 75.8023 40.7151 76.4819 40.7151L76.4819 38.7151ZM80.6427 39.7982C79.3237 39.1297 77.6816 38.7026 76.4715 38.7152L76.4924 40.7151C77.3167 40.7065 78.6424 41.0265 79.7384 41.5821L80.6427 39.7982ZM87.6419 46.5118C87.1454 44.9795 86.0707 43.6142 84.8175 42.4941C83.5562 41.3667 82.054 40.4333 80.6015 39.7785L79.7796 41.6018C81.0672 42.1823 82.3923 43.0088 83.4846 43.9852C84.585 44.9688 85.3902 46.0508 85.7392 47.1282L87.6419 46.5118ZM88.5704 45.9237C87.9607 45.903 87.3832 45.8831 86.7881 45.8248L86.593 47.8153C87.2615 47.8808 87.9014 47.9022 88.5025 47.9226L88.5704 45.9237ZM92.985 46.5384C91.3333 46.0131 89.8935 45.9686 88.5704 45.9237L88.5025 47.9226C89.8359 47.9678 91.0206 48.0124 92.3788 48.4444L92.985 46.5384ZM91.923 52.071C93.757 51.797 95.0408 50.842 95.1409 49.3953C95.2332 48.0622 94.2388 46.9372 92.985 46.5384L92.3788 48.4444C92.9826 48.6364 93.1591 49.0641 93.1457 49.2572C93.1402 49.3367 93.0418 49.8816 91.6275 50.0929L91.923 52.071ZM86.463 51.7369C88.0606 52.1605 89.9567 52.3647 91.923 52.071L91.6275 50.0929C89.9761 50.3396 88.358 50.1703 86.9756 49.8037L86.463 51.7369ZM82.4827 56.7133C85.0089 56.005 86.9907 53.7732 87.6887 51.0157L85.7499 50.5249C85.1997 52.6983 83.6765 54.3014 81.9428 54.7875L82.4827 56.7133ZM87.4647 55.5636L82.368 54.7625L82.0575 56.7383L87.1541 57.5393L87.4647 55.5636ZM86.5088 61.4525C88.5683 61.1705 89.9719 60.0802 90.0969 58.5409C90.2189 57.0392 89.0411 55.816 87.4675 55.564L87.1513 57.5389C87.9352 57.6644 88.1225 58.1454 88.1035 58.379C88.0876 58.575 87.8443 59.251 86.2374 59.471L86.5088 61.4525ZM73.5085 58.3546C75.8557 59.3294 78.1148 60.2348 80.2575 60.8295C82.402 61.4247 84.4951 61.7282 86.5088 61.4525L86.2374 59.471C84.5979 59.6955 82.8001 59.4596 80.7923 58.9023C78.7827 58.3446 76.6278 57.4845 74.2756 56.5075L73.5085 58.3546ZM81.6316 63.2109C78.9586 64.1555 76.9022 63.2716 75.6776 61.9241C75.0516 61.2351 74.6522 60.4328 74.5005 59.697C74.3469 58.9517 74.4609 58.3678 74.7154 57.9986L73.0687 56.8635C72.4153 57.8115 72.3145 58.9986 72.5417 60.1009C72.771 61.2127 73.3483 62.3346 74.1975 63.2691C75.9233 65.1684 78.8112 66.3288 82.298 65.0966L81.6316 63.2109ZM83.8078 67.6884C84.7734 67.3536 85.5317 66.8717 85.9954 66.2631C86.4741 65.6348 86.6607 64.8096 86.2628 64.0532C85.8904 63.3453 85.1477 62.9755 84.3803 62.8572C83.5955 62.7362 82.659 62.8478 81.6316 63.2109L82.298 65.0966C83.1028 64.8122 83.6988 64.7757 84.0755 64.8338C84.4697 64.8946 84.5173 65.031 84.4928 64.9844C84.4427 64.8893 84.5346 64.8803 84.4045 65.051C84.2595 65.2414 83.8951 65.5413 83.1525 65.7988L83.8078 67.6884ZM70.1824 55.5207C69.3509 56.7294 69.0668 58.3314 69.2368 59.9266C69.4083 61.5348 70.0475 63.2216 71.176 64.6625C73.4814 67.6065 77.7012 69.3827 83.7472 67.7073L83.2131 65.7799C77.8251 67.273 74.485 65.6442 72.7506 63.4294C71.8591 62.291 71.3584 60.9601 71.2256 59.7146C71.0914 58.4561 71.3388 57.3685 71.8302 56.6542L70.1824 55.5207ZM59.5261 30.4859C58.1869 36.4298 59.5563 42.147 61.9108 46.7909C64.2584 51.4211 67.6326 55.0799 70.4598 56.9249L71.5528 55.25C69.0599 53.6231 65.9068 50.2497 63.6946 45.8865C61.4893 41.5368 60.2665 36.2991 61.4772 30.9255L59.5261 30.4859ZM65.0888 29.7459C64.572 28.7308 64.0704 27.9599 63.559 27.4674C63.049 26.9762 62.3015 26.5689 61.4679 26.9043C60.7827 27.18 60.393 27.8481 60.1568 28.3824C59.8957 28.9729 59.6918 29.7091 59.5237 30.497L61.4797 30.9144C61.6367 30.1784 61.8066 29.5969 61.986 29.1911C62.1903 28.729 62.3078 28.7222 62.2145 28.7597C61.9729 28.8569 61.902 28.6483 62.1715 28.9078C62.4395 29.166 62.8201 29.698 63.3064 30.6533L65.0888 29.7459Z" fill="black"/>
<path d="M82.013 43.2848L82.5007 43.395L82.5007 43.395L82.013 43.2848ZM78.7618 43.8083L78.3184 44.0393L78.7618 43.8083ZM76.0999 42.9514C75.8428 42.8508 75.7159 42.5608 75.8165 42.3036C75.9171 42.0465 76.2072 41.9196 76.4643 42.0202L76.0999 42.9514ZM69.9727 44.8916C69.6966 44.8916 69.4727 44.6678 69.4727 44.3916C69.4727 44.1155 69.6966 43.8916 69.9727 43.8916L69.9727 44.8916ZM72.9337 45.9071L72.6075 46.286L72.5888 46.27L72.5718 46.2521L72.9337 45.9071ZM71.1537 48.7801L70.786 49.1189L70.7672 49.0985L70.7508 49.0761L71.1537 48.7801ZM70.3943 47.7461L69.9913 48.0421L69.9707 48.0141L69.9542 47.9835L70.3943 47.7461ZM67.8748 46.9788C67.6149 46.8853 67.4801 46.5989 67.5737 46.339C67.6672 46.0792 67.9537 45.9444 68.2135 46.038L67.8748 46.9788ZM76.2769 39.2306C77.4233 39.2187 79.0484 39.6434 80.3331 40.3197C80.9778 40.6591 81.5745 41.0812 81.9852 41.5785C82.4004 42.0813 82.6566 42.7047 82.5007 43.395L81.5252 43.1747C81.5914 42.8818 81.5042 42.5666 81.2141 42.2153C80.9194 41.8584 80.4487 41.5107 79.8673 41.2046C78.6996 40.5899 77.2373 40.2207 76.2873 40.2306L76.2769 39.2306ZM82.5007 43.395C82.0119 45.5592 79.2401 45.809 78.3184 44.0393L79.2053 43.5773C79.6983 44.5239 81.2424 44.4269 81.5252 43.1747L82.5007 43.395ZM78.3184 44.0393C78.0464 43.5171 77.7059 43.3259 77.3596 43.2236C77.1702 43.1676 76.9788 43.1386 76.7635 43.1052C76.5672 43.0748 76.319 43.0371 76.0999 42.9514L76.4643 42.0202C76.5621 42.0585 76.6962 42.0828 76.9166 42.117C77.118 42.1482 77.3778 42.1863 77.643 42.2646C78.206 42.4309 78.7884 42.777 79.2053 43.5773L78.3184 44.0393ZM69.9727 43.8916C70.452 43.8916 71.077 44.103 71.6491 44.3884C72.2353 44.6808 72.8464 45.0911 73.2955 45.562L72.5718 46.2521C72.2236 45.887 71.7166 45.5395 71.2028 45.2832C70.6749 45.02 70.2181 44.8916 69.9727 44.8916L69.9727 43.8916ZM73.2599 45.5281C73.9215 46.0977 74.2761 46.7398 74.3572 47.3793C74.4381 48.0165 74.2403 48.6033 73.8854 49.0395C73.5335 49.4722 73.017 49.7686 72.4467 49.814C71.8632 49.8605 71.2664 49.6404 70.786 49.1189L71.5215 48.4414C71.8054 48.7496 72.1068 48.838 72.3673 48.8172C72.641 48.7954 72.9142 48.6489 73.1097 48.4085C73.3023 48.1717 73.4096 47.8554 73.3652 47.5051C73.321 47.1571 73.12 46.7272 72.6075 46.286L73.2599 45.5281ZM70.7508 49.0761L69.9913 48.0421L70.7972 47.4501L71.5567 48.4841L70.7508 49.0761ZM69.9542 47.9835C69.7837 47.6674 69.4974 47.4797 69.1155 47.3389C68.923 47.2679 68.7205 47.2141 68.5069 47.1593C68.3041 47.1073 68.0747 47.0508 67.8748 46.9788L68.2135 46.038C68.3579 46.0899 68.5315 46.1333 68.7551 46.1906C68.968 46.2452 69.2155 46.31 69.4614 46.4006C69.9563 46.583 70.5007 46.8902 70.8343 47.5087L69.9542 47.9835Z" fill="black"/>
<path d="M67.49 35.7269L68.2383 35.4135C68.6339 35.2691 68.4925 36.4419 68.2267 36.5516C67.9139 36.6806 67.0116 35.9266 67.49 35.7269Z" stroke="black" stroke-width="0.5"/>
<path d="M69.4893 36.6925C69.0203 37.2051 68.4005 36.914 68.1947 36.5062C68.4005 36.914 68.1923 37.5583 67.4072 37.7367" stroke="black" stroke-width="0.5" stroke-linecap="round"/>
<path d="M66.0998 36.6524L63.8208 36.6845M66.2492 37.9166L64.2518 38.1526M69.8034 35.0553L70.9712 33.5975M70.3671 35.7721L71.7928 34.8203" stroke="black" stroke-width="0.5" stroke-linecap="round"/>
<path d="M65.4425 34.1951C65.3205 35.2872 62.9465 35.5157 62.9613 34.7611M67.9143 33.3561C68.2766 33.8988 70.1717 32.9529 70.027 32.1984" stroke="black" stroke-width="0.5" stroke-linecap="round"/>
<path d="M7.69691 100V90.9002H11.2589C11.7876 90.9002 12.2642 91.0259 12.6889 91.2772C13.1222 91.5199 13.4646 91.8536 13.7159 92.2782C13.9672 92.7029 14.0929 93.1839 14.0929 93.7212C14.0929 94.2239 13.9716 94.6789 13.7289 95.0862C13.4862 95.4936 13.1569 95.8186 12.7409 96.0612C12.3249 96.2952 11.8569 96.4122 11.3369 96.4122H8.71091V100H7.69691ZM13.2479 100L10.9599 95.9962L11.9349 95.6582L14.4569 100H13.2479ZM8.71091 95.4242H11.4279C11.7486 95.4242 12.0302 95.3506 12.2729 95.2032C12.5156 95.0559 12.7062 94.8566 12.8449 94.6052C12.9836 94.3452 13.0529 94.0506 13.0529 93.7212C13.0529 93.3659 12.9706 93.0496 12.8059 92.7722C12.6412 92.4949 12.4116 92.2782 12.1169 92.1222C11.8309 91.9662 11.5016 91.8882 11.1289 91.8882H8.71091V95.4242ZM18.287 100.13C17.6977 100.13 17.1647 99.9786 16.688 99.6752C16.2114 99.3632 15.8344 98.9429 15.557 98.4142C15.2797 97.8769 15.141 97.2702 15.141 96.5942C15.141 95.9096 15.284 95.3029 15.57 94.7742C15.856 94.2456 16.2374 93.8296 16.714 93.5262C17.1994 93.2229 17.741 93.0712 18.339 93.0712C18.6944 93.0712 19.0237 93.1232 19.327 93.2272C19.6304 93.3312 19.899 93.4786 20.133 93.6692C20.3757 93.8512 20.575 94.0679 20.731 94.3192C20.8957 94.5619 21.0084 94.8262 21.069 95.1122L20.783 94.9692L20.822 93.2142H21.797V100H20.809V98.3362L21.069 98.1672C21.0084 98.4272 20.8914 98.6786 20.718 98.9212C20.5447 99.1552 20.3324 99.3632 20.081 99.5452C19.8384 99.7272 19.561 99.8702 19.249 99.9742C18.9457 100.078 18.625 100.13 18.287 100.13ZM18.508 99.1942C18.9587 99.1942 19.3617 99.0859 19.717 98.8692C20.0724 98.6439 20.3497 98.3362 20.549 97.9462C20.757 97.5476 20.861 97.0969 20.861 96.5942C20.861 96.0916 20.757 95.6452 20.549 95.2552C20.3497 94.8652 20.0724 94.5576 19.717 94.3322C19.3617 94.1069 18.9587 93.9942 18.508 93.9942C18.0487 93.9942 17.6414 94.1069 17.286 94.3322C16.9394 94.5576 16.662 94.8652 16.454 95.2552C16.2547 95.6452 16.155 96.0916 16.155 96.5942C16.155 97.0882 16.2547 97.5346 16.454 97.9332C16.6534 98.3232 16.9307 98.6309 17.286 98.8562C17.6414 99.0816 18.0487 99.1942 18.508 99.1942ZM24.6882 102.99L26.0012 99.7922L26.0922 100.715L22.6862 93.2142H23.7912L26.1182 98.4142C26.1875 98.5529 26.2569 98.7176 26.3262 98.9082C26.3955 99.0902 26.4605 99.2722 26.5212 99.4542L26.1572 99.4152C26.2179 99.2679 26.2742 99.1162 26.3262 98.9602C26.3869 98.8042 26.4432 98.6526 26.4952 98.5052L28.5362 93.2142H29.6542L26.9112 100L25.7412 102.99H24.6882ZM31.069 100V90.9002H32.083V99.0122H36.451V100H31.069ZM40.4473 100.13C39.9273 100.13 39.4853 100.026 39.1213 99.8182C38.7659 99.6016 38.4929 99.2896 38.3023 98.8822C38.1203 98.4749 38.0293 97.9679 38.0293 97.3612V93.2142H39.0173V97.1662C39.0173 97.6256 39.0779 98.0112 39.1993 98.3232C39.3293 98.6266 39.5199 98.8562 39.7713 99.0122C40.0313 99.1682 40.3476 99.2462 40.7203 99.2462C41.0063 99.2462 41.2706 99.1986 41.5133 99.1032C41.7559 98.9992 41.9683 98.8606 42.1503 98.6872C42.3323 98.5139 42.4753 98.3102 42.5793 98.0762C42.6833 97.8422 42.7353 97.5952 42.7353 97.3352V93.2142H43.7103V100H42.7483L42.7093 98.5702L42.8653 98.4922C42.7613 98.7956 42.5879 99.0729 42.3453 99.3242C42.1026 99.5669 41.8123 99.7619 41.4743 99.9092C41.1449 100.057 40.8026 100.13 40.4473 100.13ZM48.2607 100.13C47.6713 100.13 47.1383 99.9786 46.6617 99.6752C46.185 99.3632 45.808 98.9429 45.5307 98.4142C45.2533 97.8769 45.1147 97.2702 45.1147 96.5942C45.1147 95.9096 45.2577 95.3029 45.5437 94.7742C45.8297 94.2456 46.211 93.8296 46.6877 93.5262C47.173 93.2229 47.7147 93.0712 48.3127 93.0712C48.668 93.0712 48.9973 93.1232 49.3007 93.2272C49.604 93.3312 49.8727 93.4786 50.1067 93.6692C50.3493 93.8512 50.5487 94.0679 50.7047 94.3192C50.8693 94.5619 50.982 94.8262 51.0427 95.1122L50.7567 94.9692L50.7957 93.2142H51.7707V100H50.7827V98.3362L51.0427 98.1672C50.982 98.4272 50.865 98.6786 50.6917 98.9212C50.5183 99.1552 50.306 99.3632 50.0547 99.5452C49.812 99.7272 49.5347 99.8702 49.2227 99.9742C48.9193 100.078 48.5987 100.13 48.2607 100.13ZM48.4817 99.1942C48.9323 99.1942 49.3353 99.0859 49.6907 98.8692C50.046 98.6439 50.3233 98.3362 50.5227 97.9462C50.7307 97.5476 50.8347 97.0969 50.8347 96.5942C50.8347 96.0916 50.7307 95.6452 50.5227 95.2552C50.3233 94.8652 50.046 94.5576 49.6907 94.3322C49.3353 94.1069 48.9323 93.9942 48.4817 93.9942C48.0223 93.9942 47.615 94.1069 47.2597 94.3322C46.913 94.5576 46.6357 94.8652 46.4277 95.2552C46.2283 95.6452 46.1287 96.0916 46.1287 96.5942C46.1287 97.0882 46.2283 97.5346 46.4277 97.9332C46.627 98.3232 46.9043 98.6309 47.2597 98.8562C47.615 99.0816 48.0223 99.1942 48.4817 99.1942ZM59.3547 100V91.8882H56.7547V90.9002H63.0727V91.8882H60.3687V100H59.3547ZM66.0928 100.13C65.4168 100.13 64.8145 99.9829 64.2858 99.6882C63.7658 99.3936 63.3585 98.9819 63.0638 98.4532C62.7691 97.9246 62.6218 97.3179 62.6218 96.6332C62.6218 96.1046 62.7041 95.6279 62.8688 95.2032C63.0335 94.7699 63.2631 94.3929 63.5578 94.0722C63.8611 93.7516 64.2208 93.5046 64.6368 93.3312C65.0528 93.1492 65.5035 93.0582 65.9888 93.0582C66.4481 93.0582 66.8641 93.1406 67.2368 93.3052C67.6181 93.4699 67.9431 93.6996 68.2118 93.9942C68.4891 94.2802 68.6971 94.6226 68.8358 95.0212C68.9745 95.4199 69.0351 95.8576 69.0178 96.3342L69.0048 96.7892H63.3498L63.2068 95.9702H68.2638L68.0298 96.1912V95.8792C68.0125 95.5672 67.9215 95.2682 67.7568 94.9822C67.5921 94.6876 67.3581 94.4492 67.0548 94.2672C66.7601 94.0852 66.4048 93.9942 65.9888 93.9942C65.5035 93.9942 65.0831 94.0939 64.7278 94.2932C64.3725 94.4839 64.0995 94.7699 63.9088 95.1512C63.7181 95.5326 63.6228 96.0049 63.6228 96.5682C63.6228 97.1056 63.7268 97.5736 63.9348 97.9722C64.1428 98.3622 64.4375 98.6656 64.8188 98.8822C65.2088 99.0989 65.6768 99.2072 66.2228 99.2072C66.5435 99.2072 66.8598 99.1552 67.1718 99.0512C67.4925 98.9386 67.8435 98.7219 68.2248 98.4012L68.7318 99.1032C68.5325 99.3026 68.2941 99.4802 68.0168 99.6362C67.7395 99.7836 67.4361 99.9049 67.1068 100C66.7775 100.087 66.4395 100.13 66.0928 100.13ZM73.2626 100.13C72.6213 100.13 72.0493 99.9786 71.5466 99.6752C71.0439 99.3632 70.6453 98.9429 70.3506 98.4142C70.0646 97.8769 69.9216 97.2702 69.9216 96.5942C69.9216 95.9182 70.0646 95.3159 70.3506 94.7872C70.6453 94.2499 71.0439 93.8296 71.5466 93.5262C72.0493 93.2229 72.6256 93.0712 73.2756 93.0712C73.8563 93.0712 74.3849 93.1882 74.8616 93.4222C75.3383 93.6476 75.7196 93.9639 76.0056 94.3712L75.4336 95.0732C75.2689 94.8566 75.0696 94.6659 74.8356 94.5012C74.6103 94.3366 74.3633 94.2109 74.0946 94.1242C73.8346 94.0289 73.5746 93.9812 73.3146 93.9812C72.8553 93.9812 72.4436 94.0982 72.0796 94.3322C71.7156 94.5576 71.4253 94.8652 71.2086 95.2552C71.0006 95.6452 70.8966 96.0916 70.8966 96.5942C70.8966 97.0969 71.0006 97.5476 71.2086 97.9462C71.4253 98.3362 71.7156 98.6439 72.0796 98.8692C72.4436 99.0946 72.8509 99.2072 73.3016 99.2072C73.5616 99.2072 73.8173 99.1682 74.0686 99.0902C74.3199 99.0036 74.5583 98.8822 74.7836 98.7262C75.0089 98.5702 75.2169 98.3752 75.4076 98.1412L75.9796 98.8432C75.6849 99.2332 75.2906 99.5452 74.7966 99.7792C74.3026 100.013 73.7913 100.13 73.2626 100.13ZM77.2454 100V90.3802H78.2204V94.6962L78.0254 94.8912C78.1207 94.5359 78.2984 94.2239 78.5584 93.9552C78.8184 93.6779 79.1217 93.4612 79.4684 93.3052C79.8237 93.1492 80.1834 93.0712 80.5474 93.0712C81.0674 93.0712 81.5007 93.1709 81.8474 93.3702C82.1941 93.5696 82.4497 93.8772 82.6144 94.2932C82.7877 94.7092 82.8744 95.2379 82.8744 95.8792V100H81.8864V95.9312C81.8864 95.4806 81.8257 95.1122 81.7044 94.8262C81.5917 94.5316 81.4141 94.3149 81.1714 94.1762C80.9287 94.0376 80.6254 93.9726 80.2614 93.9812C79.9754 93.9812 79.7067 94.0332 79.4554 94.1372C79.2041 94.2326 78.9874 94.3669 78.8054 94.5402C78.6234 94.7136 78.4804 94.9129 78.3764 95.1382C78.2724 95.3636 78.2204 95.6062 78.2204 95.8662V100H77.7394C77.6787 100 77.6094 100 77.5314 100C77.4534 100 77.3581 100 77.2454 100ZM88.7692 100V90.9002H92.2012C92.8252 90.9002 93.3928 91.0129 93.9042 91.2382C94.4242 91.4549 94.8748 91.7669 95.2562 92.1742C95.6375 92.5816 95.9322 93.0626 96.1402 93.6172C96.3482 94.1719 96.4522 94.7829 96.4522 95.4502C96.4522 96.1176 96.3482 96.7329 96.1402 97.2962C95.9322 97.8509 95.6375 98.3319 95.2562 98.7392C94.8835 99.1379 94.4372 99.4499 93.9172 99.6752C93.3972 99.8919 92.8252 100 92.2012 100H88.7692ZM89.7832 99.1942L89.6662 99.0122H92.1362C92.6128 99.0122 93.0505 98.9299 93.4492 98.7652C93.8565 98.5919 94.2032 98.3492 94.4892 98.0372C94.7838 97.7166 95.0092 97.3396 95.1652 96.9062C95.3298 96.4729 95.4122 95.9876 95.4122 95.4502C95.4122 94.9129 95.3298 94.4276 95.1652 93.9942C95.0092 93.5609 94.7838 93.1882 94.4892 92.8762C94.1945 92.5556 93.8478 92.3129 93.4492 92.1482C93.0505 91.9749 92.6128 91.8882 92.1362 91.8882H89.6272L89.7832 91.7322V99.1942ZM101.03 100.13C100.354 100.13 99.752 99.9829 99.2233 99.6882C98.7033 99.3936 98.296 98.9819 98.0013 98.4532C97.7066 97.9246 97.5593 97.3179 97.5593 96.6332C97.5593 96.1046 97.6416 95.6279 97.8063 95.2032C97.971 94.7699 98.2006 94.3929 98.4953 94.0722C98.7986 93.7516 99.1583 93.5046 99.5743 93.3312C99.9903 93.1492 100.441 93.0582 100.926 93.0582C101.386 93.0582 101.802 93.1406 102.174 93.3052C102.556 93.4699 102.881 93.6996 103.149 93.9942C103.427 94.2802 103.635 94.6226 103.773 95.0212C103.912 95.4199 103.973 95.8576 103.955 96.3342L103.942 96.7892H98.2873L98.1443 95.9702H103.201L102.967 96.1912V95.8792C102.95 95.5672 102.859 95.2682 102.694 94.9822C102.53 94.6876 102.296 94.4492 101.992 94.2672C101.698 94.0852 101.342 93.9942 100.926 93.9942C100.441 93.9942 100.021 94.0939 99.6653 94.2932C99.31 94.4839 99.037 94.7699 98.8463 95.1512C98.6556 95.5326 98.5603 96.0049 98.5603 96.5682C98.5603 97.1056 98.6643 97.5736 98.8723 97.9722C99.0803 98.3622 99.375 98.6656 99.7563 98.8822C100.146 99.0989 100.614 99.2072 101.16 99.2072C101.481 99.2072 101.797 99.1552 102.109 99.0512C102.43 98.9386 102.781 98.7219 103.162 98.4012L103.669 99.1032C103.47 99.3026 103.232 99.4802 102.954 99.6362C102.677 99.7836 102.374 99.9049 102.044 100C101.715 100.087 101.377 100.13 101.03 100.13ZM107.563 100.13C106.982 100.13 106.462 100.022 106.003 99.8052C105.544 99.5886 105.18 99.3026 104.911 98.9472L105.6 98.3492C105.851 98.6526 106.146 98.8822 106.484 99.0382C106.831 99.1942 107.216 99.2722 107.641 99.2722C107.858 99.2722 108.053 99.2506 108.226 99.2072C108.399 99.1552 108.551 99.0816 108.681 98.9862C108.811 98.8909 108.911 98.7782 108.98 98.6482C109.049 98.5182 109.084 98.3752 109.084 98.2192C109.084 97.9332 108.958 97.6949 108.707 97.5042C108.594 97.4262 108.434 97.3482 108.226 97.2702C108.018 97.1836 107.767 97.1012 107.472 97.0232C106.987 96.8846 106.584 96.7459 106.263 96.6072C105.942 96.4599 105.691 96.2909 105.509 96.1002C105.379 95.9442 105.279 95.7752 105.21 95.5932C105.149 95.4112 105.119 95.2119 105.119 94.9952C105.119 94.7179 105.175 94.4622 105.288 94.2282C105.409 93.9942 105.574 93.7906 105.782 93.6172C105.999 93.4352 106.25 93.3009 106.536 93.2142C106.831 93.1189 107.147 93.0712 107.485 93.0712C107.806 93.0712 108.122 93.1146 108.434 93.2012C108.746 93.2879 109.036 93.4136 109.305 93.5782C109.574 93.7429 109.803 93.9379 109.994 94.1632L109.396 94.8132C109.231 94.6399 109.049 94.4839 108.85 94.3452C108.651 94.2066 108.438 94.0982 108.213 94.0202C107.996 93.9422 107.771 93.9032 107.537 93.9032C107.329 93.9032 107.134 93.9292 106.952 93.9812C106.779 94.0332 106.627 94.1069 106.497 94.2022C106.376 94.2889 106.28 94.3972 106.211 94.5272C106.15 94.6572 106.12 94.8002 106.12 94.9562C106.12 95.0862 106.146 95.2032 106.198 95.3072C106.25 95.4112 106.324 95.5022 106.419 95.5802C106.54 95.6756 106.709 95.7666 106.926 95.8532C107.151 95.9312 107.429 96.0136 107.758 96.1002C108.139 96.2042 108.46 96.3126 108.72 96.4252C108.989 96.5292 109.21 96.6549 109.383 96.8022C109.617 96.9756 109.782 97.1749 109.877 97.4002C109.981 97.6256 110.033 97.8812 110.033 98.1672C110.033 98.5486 109.925 98.8866 109.708 99.1812C109.5 99.4759 109.21 99.7099 108.837 99.8832C108.464 100.048 108.04 100.13 107.563 100.13ZM111.821 100V93.2142H112.796V100H111.821ZM112.302 91.7452C112.059 91.7452 111.873 91.6846 111.743 91.5632C111.621 91.4332 111.561 91.2599 111.561 91.0432C111.561 90.8266 111.626 90.6532 111.756 90.5232C111.886 90.3932 112.068 90.3282 112.302 90.3282C112.536 90.3282 112.718 90.3932 112.848 90.5232C112.978 90.6446 113.043 90.8179 113.043 91.0432C113.043 91.2512 112.978 91.4202 112.848 91.5502C112.718 91.6802 112.536 91.7452 112.302 91.7452ZM117.85 102.99C117.347 102.99 116.871 102.912 116.42 102.756C115.969 102.6 115.597 102.405 115.302 102.171L115.692 101.352C115.865 101.491 116.065 101.612 116.29 101.716C116.524 101.829 116.775 101.916 117.044 101.976C117.313 102.046 117.586 102.08 117.863 102.08C118.366 102.08 118.79 101.985 119.137 101.794C119.492 101.612 119.761 101.339 119.943 100.975C120.134 100.611 120.229 100.161 120.229 99.6232V98.3232L120.385 98.2842C120.307 98.6136 120.138 98.9212 119.878 99.2072C119.618 99.4846 119.302 99.7099 118.929 99.8832C118.556 100.048 118.162 100.13 117.746 100.13C117.113 100.13 116.546 99.9786 116.043 99.6752C115.549 99.3719 115.159 98.9559 114.873 98.4272C114.587 97.8899 114.444 97.2832 114.444 96.6072C114.444 95.9226 114.587 95.3159 114.873 94.7872C115.168 94.2499 115.562 93.8296 116.056 93.5262C116.55 93.2229 117.105 93.0712 117.72 93.0712C117.989 93.0712 118.249 93.1059 118.5 93.1752C118.751 93.2359 118.981 93.3269 119.189 93.4482C119.406 93.5696 119.601 93.7082 119.774 93.8642C119.947 94.0202 120.09 94.1892 120.203 94.3712C120.324 94.5532 120.411 94.7396 120.463 94.9302L120.19 94.8912L120.229 93.2142H121.204V99.5842C121.204 100.13 121.126 100.611 120.97 101.027C120.814 101.452 120.584 101.807 120.281 102.093C119.986 102.388 119.631 102.609 119.215 102.756C118.808 102.912 118.353 102.99 117.85 102.99ZM117.863 99.1942C118.322 99.1942 118.73 99.0859 119.085 98.8692C119.449 98.6439 119.735 98.3362 119.943 97.9462C120.151 97.5562 120.255 97.1056 120.255 96.5942C120.255 96.0916 120.151 95.6452 119.943 95.2552C119.744 94.8652 119.462 94.5576 119.098 94.3322C118.734 94.1069 118.322 93.9942 117.863 93.9942C117.395 93.9942 116.979 94.1069 116.615 94.3322C116.26 94.5576 115.978 94.8652 115.77 95.2552C115.562 95.6452 115.458 96.0916 115.458 96.5942C115.458 97.0882 115.558 97.5346 115.757 97.9332C115.965 98.3232 116.247 98.6309 116.602 98.8562C116.966 99.0816 117.386 99.1942 117.863 99.1942ZM123.101 100V93.2142H124.063L124.102 94.6312L123.946 94.6962C124.033 94.4016 124.202 94.1329 124.453 93.8902C124.704 93.6476 125.003 93.4526 125.35 93.3052C125.705 93.1492 126.069 93.0712 126.442 93.0712C126.945 93.0712 127.365 93.1709 127.703 93.3702C128.041 93.5696 128.297 93.8772 128.47 94.2932C128.643 94.7092 128.73 95.2379 128.73 95.8792V100H127.742V95.9312C127.742 95.4806 127.681 95.1122 127.56 94.8262C127.447 94.5316 127.27 94.3149 127.027 94.1762C126.784 94.0376 126.485 93.9726 126.13 93.9812C125.835 93.9812 125.562 94.0332 125.311 94.1372C125.06 94.2326 124.843 94.3669 124.661 94.5402C124.479 94.7136 124.336 94.9129 124.232 95.1382C124.128 95.3636 124.076 95.6062 124.076 95.8662V100H123.595C123.534 100 123.465 100 123.387 100C123.309 100 123.214 100 123.101 100Z" fill="#8C8C8C"/>
</svg>
