<svg width="104" height="112" viewBox="0 0 104 112" fill="none" xmlns="http://www.w3.org/2000/svg">
<path fill-rule="evenodd" clip-rule="evenodd" d="M69.6673 2.23507L61.0423 6.6844C46.516 14.1779 38.316 26.1037 35.8166 38.1348C35.2097 38.729 34.7501 40.0684 34.3818 41.7944C30.8944 57.2722 41.4722 71.7583 48.7478 76.5064C48.0988 77.4499 47.7283 78.6633 47.6477 79.9944C39.1542 74.9229 33.4771 67.1806 30.7888 58.376C25.5164 41.1076 31.751 19.9987 49.9622 6.52012C31.8996 7.00708 19.5893 16.0667 12.8031 27.9768C4.78702 42.0457 4.41795 60.183 11.6912 73.5031C18.7067 86.3512 32.5739 95.0386 47.3392 96.8137C59.5887 98.2864 72.318 94.9912 82.1592 85.4435C70.4594 87.1692 60.4694 85.8993 52.3667 82.4038C51.8891 80.901 51.962 79.4065 52.6944 78.3439C59.1213 81.0132 64.7673 83.1728 69.7634 82.4887C71.9578 82.1883 73.0942 81.2254 73.4082 80.1943C78.2422 80.0839 83.5482 79.3534 89.3278 77.8756L97.2502 75.8498L92.5175 82.5183C80.8375 98.9757 63.2131 104.765 46.623 102.771C30.1304 100.788 14.4618 91.0969 6.42511 76.3786C-1.90717 61.1189 -1.39041 40.7677 7.58997 25.0065C16.6892 9.03668 34.418 -2.13495 60.036 1.04104L69.6673 2.23507Z" fill="black"/>
<path d="M77.4539 12.551L75.1397 18.1321L69.0142 19.085L73.3701 23.0326L72.2811 29.1582L77.4539 26.2996L83.035 29.1582L81.946 23.0326L86.1658 19.085L80.4486 18.1321L77.4539 12.551Z" stroke="black" stroke-width="3"/>
<path d="M91.9876 35.5183L89.6734 41.0994L83.5479 42.0523L87.9038 45.9999L86.8148 52.1255L91.9876 49.2669L97.5686 52.1255L96.4797 45.9999L100.7 42.0523L94.9823 41.0994L91.9876 35.5183Z" stroke="black" stroke-width="3"/>
<path d="M44.1169 42.0576L44.3431 43.2887L45.3389 43.1136L45.3664 42.1017L44.1169 42.0576ZM38.8246 42.9882L37.7116 43.548L38.1353 44.3804L39.0509 44.2194L38.8246 42.9882ZM49.7058 41.6445L48.5356 42.0743L48.5496 42.1117L48.5659 42.1482L49.7058 41.6445ZM52.2502 54.0507L51.1443 53.459L50.9989 53.7337L51.0002 54.0455L52.2502 54.0507ZM55.2279 55.7968L55.233 57.0468L55.2461 57.0467L55.2279 55.7968ZM60.1696 57.1226L59.6063 58.2338L59.6319 58.2469L59.658 58.2589L60.1696 57.1226ZM68.8551 65.3662L67.6668 65.7445L67.9213 66.5258L68.7375 66.6096L68.8551 65.3662ZM71.3127 65.5143L71.3502 64.2653L71.3502 64.2653L71.3127 65.5143ZM76.8336 66.2979L77.2097 65.1089L77.2097 65.1089L76.8336 66.2979ZM75.6464 71.1007L75.4556 69.8638L75.4556 69.8638L75.6464 71.1007ZM68.9149 70.6557L69.2322 69.4493L68.0059 69.1175L67.7015 70.3457L68.9149 70.6557ZM62.9436 77.2995L62.5994 76.095L62.7535 78.5333L62.9436 77.2995ZM69.732 78.4L69.9257 77.1667L69.9222 77.1662L69.732 78.4ZM68.5071 83.6308L68.3315 82.3918L68.3315 82.3918L68.5071 83.6308ZM51.8774 79.5045L52.3546 78.3531L51.4148 77.9572L50.8434 78.7937L51.8774 79.5045ZM62.6595 88.5503L63.083 89.7298L63.083 89.7298L62.6595 88.5503ZM64.6907 92.0265L65.0313 93.232L65.0696 93.2214L65.1072 93.2085L64.6907 92.0265ZM48.0289 77.6895L49.0636 78.3994L49.7783 77.3509L48.7106 76.6474L48.0289 77.6895ZM33.9079 43.6456L35.1288 43.9239L35.1303 43.9169L35.1317 43.91L33.9079 43.6456ZM43.8906 40.8264L38.5984 41.757L39.0509 44.2194L44.3431 43.2887L43.8906 40.8264ZM50.876 41.2148C50.3184 39.725 49.6527 38.5134 48.9176 37.652C48.2144 36.8279 47.2678 36.1238 46.1515 36.1462C44.936 36.1705 44.1098 37.0238 43.6371 38.015C43.1642 39.0068 42.9121 40.3624 42.8673 42.0134L45.3664 42.1017C45.4066 40.6207 45.6329 39.6565 45.8953 39.1061C46.1581 38.5551 46.3242 38.6436 46.222 38.6457C46.2189 38.6457 46.5063 38.6619 47.0215 39.2657C47.5049 39.8322 48.0421 40.756 48.5356 42.0743L50.876 41.2148ZM53.3561 54.6423C54.275 52.9056 54.0875 50.6445 53.5428 48.4349C52.9833 46.1649 51.9627 43.6321 50.8457 41.1409L48.5659 42.1482C49.6695 44.6096 50.6126 46.9731 51.1158 49.0145C51.6339 51.1164 51.6083 52.5821 51.1443 53.459L53.3561 54.6423ZM55.2228 54.5468C54.4015 54.5434 53.9039 54.445 53.6479 54.3166C53.5945 54.2898 53.564 54.2674 53.5482 54.2539C53.5335 54.2413 53.529 54.2344 53.5279 54.2327C53.527 54.2312 53.5217 54.223 53.5156 54.2007C53.5093 54.177 53.5005 54.1312 53.5002 54.0558L51.0002 54.0455C51.0024 54.5832 51.1297 55.1041 51.4229 55.564C51.7143 56.0213 52.1174 56.3365 52.5416 56.5493C53.3421 56.9509 54.3306 57.043 55.233 57.0468L55.2228 54.5468ZM60.7329 56.0114C58.9825 55.1134 56.8061 54.5366 55.2096 54.5468L55.2461 57.0467C56.3574 57.0396 58.1356 57.4794 59.6063 58.2338L60.7329 56.0114ZM70.0433 64.9879C69.3811 62.9546 67.9554 61.1332 66.2872 59.632C64.6094 58.1219 62.6119 56.8681 60.6812 55.9863L59.658 58.2589C61.3815 59.046 63.1569 60.1644 64.6233 61.4841C66.0995 62.8126 67.1894 64.2786 67.6668 65.7445L70.0433 64.9879ZM71.3502 64.2653C70.5389 64.2342 69.7678 64.2044 68.9727 64.1227L68.7375 66.6096C69.625 66.7007 70.4746 66.7328 71.2751 66.7634L71.3502 64.2653ZM77.2097 65.1089C75.0194 64.4001 73.1121 64.3326 71.3502 64.2653L71.2751 66.7634C73.0498 66.8313 74.6364 66.8974 76.4576 67.4869L77.2097 65.1089ZM75.8372 72.3376C78.2654 71.9824 79.9152 70.7252 80.0363 68.8537C80.1482 67.1253 78.8582 65.6424 77.2097 65.1089L76.4576 67.4869C77.2849 67.7546 77.5619 68.3572 77.5415 68.6718C77.5304 68.8434 77.3487 69.5869 75.4556 69.8638L75.8372 72.3376ZM68.5976 71.8621C70.7185 72.436 73.2332 72.7184 75.8372 72.3376L75.4556 69.8638C73.2474 70.1868 71.0823 69.9499 69.2322 69.4493L68.5976 71.8621ZM63.2879 78.5039C66.6167 77.5776 69.2214 74.6254 70.1284 70.9657L67.7015 70.3457C66.9739 73.2818 64.9343 75.4453 62.5994 76.095L63.2879 78.5039ZM69.9222 77.1662L63.1338 76.0656L62.7535 78.5333L69.5418 79.6339L69.9222 77.1662ZM68.6827 84.8698C71.4096 84.5052 73.2194 83.0674 73.3725 81.071C73.5218 79.1237 71.9955 77.5084 69.9257 77.1667L69.5382 79.6333C70.6086 79.81 70.9086 80.484 70.8798 80.8595C70.8547 81.1859 70.482 82.1043 68.3315 82.3918L68.6827 84.8698ZM51.4002 80.6559C54.53 81.9741 57.538 83.197 60.3883 84.0036C63.2409 84.8108 66.0176 85.2262 68.6827 84.8698L68.3315 82.3918C66.1366 82.6853 63.7314 82.3571 61.0507 81.5984C58.3676 80.8392 55.4907 79.674 52.3546 78.3531L51.4002 80.6559ZM62.236 87.3708C58.6539 88.6314 55.88 87.4275 54.2214 85.5928C53.3748 84.6562 52.8304 83.5651 52.6207 82.561C52.4084 81.5447 52.5566 80.7347 52.9114 80.2153L50.8434 78.7937C49.9969 80.033 49.8688 81.5932 50.1736 83.0529C50.4811 84.5249 51.2473 86.0156 52.3731 87.2609C54.6594 89.79 58.478 91.3503 63.083 89.7298L62.236 87.3708ZM65.1072 93.2085C66.3827 92.7681 67.3733 92.1341 67.9735 91.3397C68.5918 90.5214 68.8221 89.4574 68.3097 88.4831C67.8279 87.5669 66.8663 87.0762 65.8567 86.9155C64.8265 86.7516 63.593 86.8933 62.236 87.3708L63.083 89.7298C64.1612 89.3504 64.9669 89.3022 65.4836 89.3844C66.0211 89.4699 66.1143 89.6614 66.0991 89.6325C66.0534 89.5456 66.162 89.574 65.9744 89.8222C65.7688 90.0944 65.2692 90.5011 64.2742 90.8446L65.1072 93.2085ZM46.9942 76.9797C45.9093 78.5712 45.5419 80.6904 45.7751 82.8107C46.0102 84.9474 46.8636 87.193 48.363 89.1152C51.4234 93.0386 57.0159 95.436 65.0313 93.232L64.3501 90.8211C57.1633 92.7972 52.6745 90.5939 50.3294 87.5876C49.1261 86.045 48.4456 84.2436 48.2601 82.5574C48.0728 80.855 48.3981 79.3756 49.0636 78.3994L46.9942 76.9797ZM32.687 43.3674C30.9429 51.2916 32.7897 58.9315 35.9422 65.149C39.086 71.3493 43.5876 76.2547 47.3472 78.7317L48.7106 76.6474C45.37 74.4465 41.1448 69.9 38.1701 64.033C35.204 58.1831 33.5404 51.14 35.1288 43.9239L32.687 43.3674ZM39.9376 42.4284C39.2457 41.0692 38.5792 40.0449 37.9063 39.3927C37.2359 38.7429 36.2696 38.2158 35.2015 38.6444C34.3219 38.9974 33.8187 39.8622 33.5093 40.5716C33.1688 41.3523 32.903 42.3297 32.684 43.3813L35.1317 43.91C35.3372 42.9229 35.5618 42.1379 35.8021 41.5868C36.0736 40.9645 36.2419 40.9283 36.1489 40.9657C35.8673 41.0786 35.8028 40.8212 36.174 41.1809C36.5427 41.5383 37.0576 42.2633 37.7116 43.548L39.9376 42.4284Z" fill="black"/>
<path d="M62.6092 60.6069L63.8299 60.8762L63.8299 60.8762L62.6092 60.6069ZM58.2846 61.2901L57.1759 61.8674L57.1759 61.8674L58.2846 61.2901ZM54.5154 60.6675C53.8738 60.4127 53.5602 59.686 53.815 59.0444C54.0698 58.4028 54.7965 58.0892 55.4381 58.344L54.5154 60.6675ZM46.5838 63.2732C45.8935 63.2703 45.3361 62.7084 45.339 62.018C45.3418 61.3277 45.9037 60.7704 46.5941 60.7732L46.5838 63.2732ZM50.5384 64.0686L49.7196 65.013L49.6734 64.973L49.6314 64.9287L50.5384 64.0686ZM48.1849 67.9059L47.2633 68.7503L47.2169 68.6997L47.1763 68.6442L48.1849 67.9059ZM47.1684 66.5172L46.1597 67.2555L46.1089 67.1861L46.0681 67.1104L47.1684 66.5172ZM43.604 66.021C42.9557 65.7839 42.6223 65.066 42.8594 64.4177C43.0965 63.7693 43.8143 63.4359 44.4627 63.6731L43.604 66.021ZM54.9537 54.5665C56.5956 54.556 58.8561 55.1669 60.637 56.1153C61.5336 56.5928 62.4019 57.2042 63.017 57.9524C63.6426 58.7132 64.084 59.7244 63.8299 60.8762L61.3886 60.3376C61.4246 60.1742 61.404 59.9269 61.0859 59.5401C60.7576 59.1407 60.2009 58.7155 59.4619 58.3219C57.9714 57.5282 56.118 57.0591 54.9697 57.0665L54.9537 54.5665ZM63.8299 60.8762C63.0673 64.3328 58.6493 64.6971 57.1759 61.8674L59.3933 60.7128C59.8178 61.5281 61.1428 61.4515 61.3886 60.3376L63.8299 60.8762ZM57.1759 61.8674C56.8929 61.324 56.5756 61.156 56.2407 61.0552C56.0324 60.9925 55.8176 60.958 55.5227 60.9108C55.2752 60.8713 54.878 60.8115 54.5154 60.6675L55.4381 58.344C55.4979 58.3677 55.6099 58.393 55.9174 58.4422C56.1776 58.4838 56.5636 58.5416 56.9612 58.6613C57.838 58.9252 58.7522 59.4816 59.3933 60.7128L57.1759 61.8674ZM46.5941 60.7732C47.3698 60.7764 48.301 61.1122 49.089 61.51C49.9127 61.9259 50.7878 62.515 51.4454 63.2084L49.6314 64.9287C49.2232 64.4983 48.6058 64.0666 47.9623 63.7417C47.2832 63.3989 46.7726 63.2739 46.5838 63.2732L46.5941 60.7732ZM51.3573 63.1241C52.3257 63.9638 52.888 64.9459 53.021 65.9679C53.1533 66.985 52.8431 67.9274 52.2771 68.6287C51.7182 69.321 50.8867 69.805 49.9508 69.8762C48.9823 69.9499 48.0164 69.5723 47.2633 68.7503L49.1066 67.0614C49.3753 67.3548 49.6066 67.3951 49.7612 67.3834C49.9482 67.3691 50.1656 67.2643 50.3317 67.0584C50.4907 66.8615 50.5817 66.5963 50.5419 66.2904C50.5027 65.9895 50.3195 65.5332 49.7196 65.013L51.3573 63.1241ZM47.1763 68.6442L46.1597 67.2555L48.177 65.7788L49.1935 67.1675L47.1763 68.6442ZM46.0681 67.1104C45.9318 66.8576 45.6959 66.674 45.2534 66.5083C45.0277 66.4239 44.7842 66.3571 44.4991 66.2826C44.241 66.215 43.9029 66.1303 43.604 66.021L44.4627 63.6731C44.6229 63.7317 44.8217 63.7828 45.1319 63.864C45.4151 63.938 45.7711 64.0327 46.1298 64.167C46.8562 64.4389 47.7287 64.9225 48.2686 65.924L46.0681 67.1104Z" fill="black"/>
<path d="M43.237 50.4073L44.2312 49.9918C44.757 49.8005 44.5753 51.3702 44.2221 51.5155C43.8064 51.6866 42.6013 50.6721 43.237 50.4073Z" stroke="black"/>
<path d="M45.9031 51.7113C45.2817 52.395 44.4551 52.002 44.1789 51.4548C44.4551 52.002 44.1815 52.8636 43.1374 53.0982" stroke="black" stroke-linecap="round"/>
<path d="M41.3915 51.6391L38.3581 51.6697M41.5972 53.3327L38.9399 53.6378M46.3126 49.5209L47.859 47.5753M47.0667 50.4837L48.9593 49.217" stroke="black" stroke-linecap="round"/>
<path d="M40.5036 48.3452C40.3472 49.8068 37.1884 50.0998 37.2041 49.0895M43.7891 47.2353C44.2744 47.9639 46.7916 46.7076 46.595 45.6965" stroke="black" stroke-linecap="round"/>
</svg>
