<svg width="152" height="107" viewBox="0 0 152 107" fill="none" xmlns="http://www.w3.org/2000/svg">
<path d="M1.58607 104V94.9H2.57407L6.07107 100.581L5.60307 100.568L9.13907 94.9H10.0621V104H9.04807V99.84C9.04807 99.06 9.06107 98.358 9.08707 97.734C9.11307 97.11 9.16074 96.4903 9.23007 95.875L9.41207 96.239L6.14907 101.361H5.44707L2.27507 96.304L2.41807 95.875C2.4874 96.4557 2.53507 97.0537 2.56107 97.669C2.58707 98.2757 2.60007 98.9993 2.60007 99.84V104H1.58607ZM15.0073 104.13C14.4179 104.13 13.8849 103.978 13.4083 103.675C12.9316 103.363 12.5546 102.943 12.2773 102.414C11.9999 101.877 11.8613 101.27 11.8613 100.594C11.8613 99.9093 12.0043 99.3027 12.2903 98.774C12.5763 98.2453 12.9576 97.8293 13.4343 97.526C13.9196 97.2227 14.4613 97.071 15.0593 97.071C15.4146 97.071 15.7439 97.123 16.0473 97.227C16.3506 97.331 16.6193 97.4783 16.8533 97.669C17.0959 97.851 17.2953 98.0677 17.4513 98.319C17.6159 98.5617 17.7286 98.826 17.7893 99.112L17.5033 98.969L17.5423 97.214H18.5173V104H17.5293V102.336L17.7893 102.167C17.7286 102.427 17.6116 102.678 17.4383 102.921C17.2649 103.155 17.0526 103.363 16.8013 103.545C16.5586 103.727 16.2813 103.87 15.9693 103.974C15.6659 104.078 15.3453 104.13 15.0073 104.13ZM15.2282 103.194C15.6789 103.194 16.0819 103.086 16.4373 102.869C16.7926 102.644 17.0699 102.336 17.2693 101.946C17.4773 101.547 17.5813 101.097 17.5813 100.594C17.5813 100.091 17.4773 99.645 17.2693 99.255C17.0699 98.865 16.7926 98.5573 16.4373 98.332C16.0819 98.1067 15.6789 97.994 15.2282 97.994C14.7689 97.994 14.3616 98.1067 14.0063 98.332C13.6596 98.5573 13.3823 98.865 13.1743 99.255C12.9749 99.645 12.8753 100.091 12.8753 100.594C12.8753 101.088 12.9749 101.534 13.1743 101.933C13.3736 102.323 13.6509 102.631 14.0063 102.856C14.3616 103.081 14.7689 103.194 15.2282 103.194ZM23.1728 104.13C22.5574 104.13 22.0028 103.978 21.5088 103.675C21.0234 103.372 20.6378 102.956 20.3518 102.427C20.0744 101.89 19.9358 101.283 19.9358 100.607C19.9358 99.9223 20.0788 99.3157 20.3648 98.787C20.6508 98.2497 21.0364 97.8293 21.5218 97.526C22.0071 97.2227 22.5531 97.071 23.1598 97.071C23.4978 97.071 23.8228 97.123 24.1348 97.227C24.4554 97.331 24.7414 97.4783 24.9928 97.669C25.2441 97.851 25.4521 98.0633 25.6168 98.306C25.7814 98.54 25.8811 98.787 25.9158 99.047L25.6168 98.943V94.38H26.5918V104H25.6298L25.6038 102.31L25.8508 102.219C25.8161 102.462 25.7164 102.7 25.5518 102.934C25.3958 103.159 25.1964 103.363 24.9538 103.545C24.7111 103.727 24.4338 103.87 24.1218 103.974C23.8184 104.078 23.5021 104.13 23.1728 104.13ZM23.3158 103.233C23.7664 103.233 24.1694 103.12 24.5248 102.895C24.8801 102.67 25.1574 102.358 25.3568 101.959C25.5648 101.56 25.6688 101.105 25.6688 100.594C25.6688 100.083 25.5648 99.632 25.3568 99.242C25.1574 98.8433 24.8801 98.5313 24.5248 98.306C24.1694 98.072 23.7664 97.955 23.3158 97.955C22.8478 97.955 22.4361 98.072 22.0808 98.306C21.7341 98.5313 21.4568 98.8433 21.2488 99.242C21.0494 99.632 20.9498 100.083 20.9498 100.594C20.9498 101.097 21.0494 101.547 21.2488 101.946C21.4481 102.345 21.7254 102.661 22.0808 102.895C22.4361 103.12 22.8478 103.233 23.3158 103.233ZM31.481 104.13C30.805 104.13 30.2027 103.983 29.674 103.688C29.154 103.393 28.7467 102.982 28.452 102.453C28.1573 101.924 28.01 101.318 28.01 100.633C28.01 100.104 28.0923 99.6277 28.257 99.203C28.4217 98.7697 28.6513 98.3927 28.946 98.072C29.2493 97.7513 29.609 97.5043 30.025 97.331C30.441 97.149 30.8917 97.058 31.377 97.058C31.8363 97.058 32.2523 97.1403 32.625 97.305C33.0063 97.4697 33.3313 97.6993 33.6 97.994C33.8773 98.28 34.0853 98.6223 34.224 99.021C34.3627 99.4197 34.4233 99.8573 34.406 100.334L34.393 100.789H28.738L28.595 99.97H33.652L33.418 100.191V99.879C33.4007 99.567 33.3097 99.268 33.145 98.982C32.9803 98.6873 32.7463 98.449 32.443 98.267C32.1483 98.085 31.793 97.994 31.377 97.994C30.8917 97.994 30.4713 98.0937 30.116 98.293C29.7607 98.4837 29.4877 98.7697 29.297 99.151C29.1063 99.5323 29.011 100.005 29.011 100.568C29.011 101.105 29.115 101.573 29.323 101.972C29.531 102.362 29.8257 102.665 30.207 102.882C30.597 103.099 31.065 103.207 31.611 103.207C31.9317 103.207 32.248 103.155 32.56 103.051C32.8807 102.938 33.2317 102.722 33.613 102.401L34.12 103.103C33.9207 103.302 33.6823 103.48 33.405 103.636C33.1277 103.783 32.8243 103.905 32.495 104C32.1657 104.087 31.8277 104.13 31.481 104.13ZM41.0334 104L38.6804 97.214L39.7204 97.201L41.5534 102.726L41.2284 102.7L43.2174 98.254H43.8024L45.8044 102.7L45.4144 102.726L47.2864 97.214H48.3134L45.9604 104H45.3884L43.2824 99.164L43.6724 99.19L41.6314 104H41.0334ZM49.7236 104V97.214H50.6986V104H49.7236ZM50.2046 95.745C49.962 95.745 49.7756 95.6843 49.6456 95.563C49.5243 95.433 49.4636 95.2597 49.4636 95.043C49.4636 94.8263 49.5286 94.653 49.6586 94.523C49.7886 94.393 49.9706 94.328 50.2046 94.328C50.4386 94.328 50.6206 94.393 50.7506 94.523C50.8806 94.6443 50.9456 94.8177 50.9456 95.043C50.9456 95.251 50.8806 95.42 50.7506 95.55C50.6206 95.68 50.4386 95.745 50.2046 95.745ZM53.7639 104V95.433H54.7389V104H53.7639ZM52.2299 98.15V97.214H56.4549V98.15H52.2299ZM57.6521 104V94.38H58.6271V98.696L58.4321 98.891C58.5275 98.5357 58.7051 98.2237 58.9651 97.955C59.2251 97.6777 59.5285 97.461 59.8751 97.305C60.2305 97.149 60.5901 97.071 60.9541 97.071C61.4741 97.071 61.9075 97.1707 62.2541 97.37C62.6008 97.5693 62.8565 97.877 63.0211 98.293C63.1945 98.709 63.2811 99.2377 63.2811 99.879V104H62.2931V99.931C62.2931 99.4803 62.2325 99.112 62.1111 98.826C61.9985 98.5313 61.8208 98.3147 61.5781 98.176C61.3355 98.0373 61.0321 97.9723 60.6681 97.981C60.3821 97.981 60.1135 98.033 59.8621 98.137C59.6108 98.2323 59.3941 98.3667 59.2121 98.54C59.0301 98.7133 58.8871 98.9127 58.7831 99.138C58.6791 99.3633 58.6271 99.606 58.6271 99.866V104H58.1461C58.0855 104 58.0161 104 57.9381 104C57.8601 104 57.7648 104 57.6521 104ZM76.1179 105.339L72.7899 100.958L73.6089 100.412L76.9239 104.754L76.1179 105.339ZM72.9329 104.13C72.2916 104.13 71.6979 104.017 71.1519 103.792C70.6146 103.558 70.1422 103.233 69.7349 102.817C69.3362 102.401 69.0242 101.911 68.7989 101.348C68.5822 100.776 68.4739 100.152 68.4739 99.476C68.4739 98.8 68.5822 98.1803 68.7989 97.617C69.0242 97.045 69.3362 96.551 69.7349 96.135C70.1422 95.7103 70.6146 95.3853 71.1519 95.16C71.6979 94.926 72.2916 94.809 72.9329 94.809C73.5829 94.809 74.1766 94.926 74.7139 95.16C75.2599 95.3853 75.7322 95.7103 76.1309 96.135C76.5382 96.551 76.8502 97.045 77.0669 97.617C77.2922 98.1803 77.4049 98.8 77.4049 99.476C77.4049 100.143 77.2922 100.763 77.0669 101.335C76.8502 101.898 76.5382 102.392 76.1309 102.817C75.7322 103.233 75.2599 103.558 74.7139 103.792C74.1766 104.017 73.5829 104.13 72.9329 104.13ZM72.9329 103.129C73.4269 103.129 73.8819 103.042 74.2979 102.869C74.7226 102.687 75.0866 102.431 75.3899 102.102C75.6932 101.773 75.9272 101.387 76.0919 100.945C76.2652 100.494 76.3519 100.005 76.3519 99.476C76.3519 98.9387 76.2652 98.449 76.0919 98.007C75.9272 97.5563 75.6932 97.1663 75.3899 96.837C75.0866 96.5077 74.7226 96.252 74.2979 96.07C73.8819 95.888 73.4269 95.797 72.9329 95.797C72.4389 95.797 71.9796 95.888 71.5549 96.07C71.1389 96.252 70.7792 96.5077 70.4759 96.837C70.1726 97.1663 69.9386 97.5563 69.7739 98.007C69.6092 98.449 69.5269 98.9387 69.5269 99.476C69.5269 100.005 69.6092 100.494 69.7739 100.945C69.9386 101.387 70.1726 101.773 70.4759 102.102C70.7792 102.431 71.1389 102.687 71.5549 102.869C71.9796 103.042 72.4389 103.129 72.9329 103.129ZM81.3979 104.13C80.8779 104.13 80.4359 104.026 80.0719 103.818C79.7166 103.601 79.4436 103.289 79.2529 102.882C79.0709 102.475 78.9799 101.968 78.9799 101.361V97.214H79.9679V101.166C79.9679 101.625 80.0286 102.011 80.1499 102.323C80.2799 102.626 80.4706 102.856 80.7219 103.012C80.9819 103.168 81.2983 103.246 81.6709 103.246C81.9569 103.246 82.2213 103.198 82.4639 103.103C82.7066 102.999 82.9189 102.86 83.1009 102.687C83.2829 102.514 83.4259 102.31 83.5299 102.076C83.6339 101.842 83.6859 101.595 83.6859 101.335V97.214H84.6609V104H83.6989L83.6599 102.57L83.8159 102.492C83.7119 102.795 83.5386 103.073 83.2959 103.324C83.0533 103.567 82.7629 103.762 82.4249 103.909C82.0956 104.056 81.7533 104.13 81.3979 104.13ZM89.2114 104.13C88.622 104.13 88.089 103.978 87.6124 103.675C87.1357 103.363 86.7587 102.943 86.4814 102.414C86.204 101.877 86.0654 101.27 86.0654 100.594C86.0654 99.9093 86.2084 99.3027 86.4944 98.774C86.7804 98.2453 87.1617 97.8293 87.6384 97.526C88.1237 97.2227 88.6654 97.071 89.2634 97.071C89.6187 97.071 89.948 97.123 90.2514 97.227C90.5547 97.331 90.8234 97.4783 91.0574 97.669C91.3 97.851 91.4994 98.0677 91.6554 98.319C91.82 98.5617 91.9327 98.826 91.9934 99.112L91.7074 98.969L91.7464 97.214H92.7214V104H91.7334V102.336L91.9934 102.167C91.9327 102.427 91.8157 102.678 91.6424 102.921C91.469 103.155 91.2567 103.363 91.0054 103.545C90.7627 103.727 90.4854 103.87 90.1734 103.974C89.87 104.078 89.5494 104.13 89.2114 104.13ZM89.4324 103.194C89.883 103.194 90.286 103.086 90.6414 102.869C90.9967 102.644 91.274 102.336 91.4734 101.946C91.6814 101.547 91.7854 101.097 91.7854 100.594C91.7854 100.091 91.6814 99.645 91.4734 99.255C91.274 98.865 90.9967 98.5573 90.6414 98.332C90.286 98.1067 89.883 97.994 89.4324 97.994C88.973 97.994 88.5657 98.1067 88.2104 98.332C87.8637 98.5573 87.5864 98.865 87.3784 99.255C87.179 99.645 87.0794 100.091 87.0794 100.594C87.0794 101.088 87.179 101.534 87.3784 101.933C87.5777 102.323 87.855 102.631 88.2104 102.856C88.5657 103.081 88.973 103.194 89.4324 103.194ZM94.6209 104V97.214H95.5959L95.6219 99.021L95.5179 98.774C95.6132 98.4707 95.7649 98.189 95.9729 97.929C96.1895 97.669 96.4452 97.461 96.7399 97.305C97.0345 97.149 97.3595 97.071 97.7149 97.071C97.8622 97.071 98.0009 97.084 98.1309 97.11C98.2609 97.1273 98.3692 97.1533 98.4559 97.188L98.1829 98.28C98.0702 98.228 97.9532 98.1933 97.8319 98.176C97.7192 98.15 97.6109 98.137 97.5069 98.137C97.2122 98.137 96.9479 98.189 96.7139 98.293C96.4799 98.397 96.2805 98.5443 96.1159 98.735C95.9512 98.917 95.8255 99.1293 95.7389 99.372C95.6522 99.6147 95.6089 99.8747 95.6089 100.152V104H94.6209ZM100.341 101.816L100.302 100.685L103.851 97.214H105.164L100.341 101.816ZM99.4705 104V94.38H100.445V104H99.4705ZM104.124 104L101.264 100.685L101.953 100.009L105.398 104H104.124ZM108.807 104.13C108.287 104.13 107.845 104.026 107.481 103.818C107.126 103.601 106.853 103.289 106.662 102.882C106.48 102.475 106.389 101.968 106.389 101.361V97.214H107.377V101.166C107.377 101.625 107.438 102.011 107.559 102.323C107.689 102.626 107.88 102.856 108.131 103.012C108.391 103.168 108.707 103.246 109.08 103.246C109.366 103.246 109.63 103.198 109.873 103.103C110.116 102.999 110.328 102.86 110.51 102.687C110.692 102.514 110.835 102.31 110.939 102.076C111.043 101.842 111.095 101.595 111.095 101.335V97.214H112.07V104H111.108L111.069 102.57L111.225 102.492C111.121 102.795 110.948 103.073 110.705 103.324C110.462 103.567 110.172 103.762 109.834 103.909C109.505 104.056 109.162 104.13 108.807 104.13ZM116.192 104.13C115.611 104.13 115.091 104.022 114.632 103.805C114.172 103.588 113.808 103.302 113.54 102.947L114.229 102.349C114.48 102.652 114.775 102.882 115.113 103.038C115.459 103.194 115.845 103.272 116.27 103.272C116.486 103.272 116.681 103.25 116.855 103.207C117.028 103.155 117.18 103.081 117.31 102.986C117.44 102.891 117.539 102.778 117.609 102.648C117.678 102.518 117.713 102.375 117.713 102.219C117.713 101.933 117.587 101.695 117.336 101.504C117.223 101.426 117.063 101.348 116.855 101.27C116.647 101.183 116.395 101.101 116.101 101.023C115.615 100.884 115.212 100.746 114.892 100.607C114.571 100.46 114.32 100.291 114.138 100.1C114.008 99.944 113.908 99.775 113.839 99.593C113.778 99.411 113.748 99.2117 113.748 98.995C113.748 98.7177 113.804 98.462 113.917 98.228C114.038 97.994 114.203 97.7903 114.411 97.617C114.627 97.435 114.879 97.3007 115.165 97.214C115.459 97.1187 115.776 97.071 116.114 97.071C116.434 97.071 116.751 97.1143 117.063 97.201C117.375 97.2877 117.665 97.4133 117.934 97.578C118.202 97.7427 118.432 97.9377 118.623 98.163L118.025 98.813C117.86 98.6397 117.678 98.4837 117.479 98.345C117.279 98.2063 117.067 98.098 116.842 98.02C116.625 97.942 116.4 97.903 116.166 97.903C115.958 97.903 115.763 97.929 115.581 97.981C115.407 98.033 115.256 98.1067 115.126 98.202C115.004 98.2887 114.909 98.397 114.84 98.527C114.779 98.657 114.749 98.8 114.749 98.956C114.749 99.086 114.775 99.203 114.827 99.307C114.879 99.411 114.952 99.502 115.048 99.58C115.169 99.6753 115.338 99.7663 115.555 99.853C115.78 99.931 116.057 100.013 116.387 100.1C116.768 100.204 117.089 100.312 117.349 100.425C117.617 100.529 117.838 100.655 118.012 100.802C118.246 100.975 118.41 101.175 118.506 101.4C118.61 101.625 118.662 101.881 118.662 102.167C118.662 102.548 118.553 102.886 118.337 103.181C118.129 103.476 117.838 103.71 117.466 103.883C117.093 104.048 116.668 104.13 116.192 104.13ZM124.223 104V94.9H127.785C128.313 94.9 128.79 95.0257 129.215 95.277C129.648 95.5197 129.99 95.8533 130.242 96.278C130.493 96.7027 130.619 97.1837 130.619 97.721C130.619 98.2237 130.497 98.6787 130.255 99.086C130.012 99.4933 129.683 99.8183 129.267 100.061C128.851 100.295 128.383 100.412 127.863 100.412H125.237V104H124.223ZM129.774 104L127.486 99.996L128.461 99.658L130.983 104H129.774ZM125.237 99.424H127.954C128.274 99.424 128.556 99.3503 128.799 99.203C129.041 99.0557 129.232 98.8563 129.371 98.605C129.509 98.345 129.579 98.0503 129.579 97.721C129.579 97.3657 129.496 97.0493 129.332 96.772C129.167 96.4947 128.937 96.278 128.643 96.122C128.357 95.966 128.027 95.888 127.655 95.888H125.237V99.424ZM136.435 104.13C135.794 104.13 135.2 104.017 134.654 103.792C134.117 103.558 133.644 103.233 133.237 102.817C132.838 102.401 132.526 101.911 132.301 101.348C132.084 100.776 131.976 100.152 131.976 99.476C131.976 98.8 132.084 98.1803 132.301 97.617C132.526 97.045 132.838 96.551 133.237 96.135C133.644 95.7103 134.117 95.3853 134.654 95.16C135.2 94.926 135.794 94.809 136.435 94.809C137.085 94.809 137.679 94.926 138.216 95.16C138.762 95.3853 139.234 95.7103 139.633 96.135C140.04 96.551 140.352 97.045 140.569 97.617C140.794 98.1803 140.907 98.8 140.907 99.476C140.907 100.143 140.794 100.763 140.569 101.335C140.352 101.898 140.04 102.392 139.633 102.817C139.234 103.233 138.762 103.558 138.216 103.792C137.679 104.017 137.085 104.13 136.435 104.13ZM136.435 103.129C136.929 103.129 137.384 103.042 137.8 102.869C138.225 102.687 138.589 102.431 138.892 102.102C139.195 101.773 139.429 101.387 139.594 100.945C139.767 100.494 139.854 100.005 139.854 99.476C139.854 98.9387 139.767 98.449 139.594 98.007C139.429 97.5563 139.195 97.1663 138.892 96.837C138.589 96.5077 138.225 96.252 137.8 96.07C137.384 95.888 136.929 95.797 136.435 95.797C135.941 95.797 135.482 95.888 135.057 96.07C134.641 96.252 134.281 96.5077 133.978 96.837C133.675 97.1663 133.441 97.5563 133.276 98.007C133.111 98.449 133.029 98.9387 133.029 99.476C133.029 100.005 133.111 100.494 133.276 100.945C133.441 101.387 133.675 101.773 133.978 102.102C134.281 102.431 134.641 102.687 135.057 102.869C135.482 103.042 135.941 103.129 136.435 103.129ZM149.827 105.339L146.499 100.958L147.318 100.412L150.633 104.754L149.827 105.339ZM146.642 104.13C146.001 104.13 145.407 104.017 144.861 103.792C144.324 103.558 143.851 103.233 143.444 102.817C143.045 102.401 142.733 101.911 142.508 101.348C142.291 100.776 142.183 100.152 142.183 99.476C142.183 98.8 142.291 98.1803 142.508 97.617C142.733 97.045 143.045 96.551 143.444 96.135C143.851 95.7103 144.324 95.3853 144.861 95.16C145.407 94.926 146.001 94.809 146.642 94.809C147.292 94.809 147.886 94.926 148.423 95.16C148.969 95.3853 149.441 95.7103 149.84 96.135C150.247 96.551 150.559 97.045 150.776 97.617C151.001 98.1803 151.114 98.8 151.114 99.476C151.114 100.143 151.001 100.763 150.776 101.335C150.559 101.898 150.247 102.392 149.84 102.817C149.441 103.233 148.969 103.558 148.423 103.792C147.886 104.017 147.292 104.13 146.642 104.13ZM146.642 103.129C147.136 103.129 147.591 103.042 148.007 102.869C148.432 102.687 148.796 102.431 149.099 102.102C149.402 101.773 149.636 101.387 149.801 100.945C149.974 100.494 150.061 100.005 150.061 99.476C150.061 98.9387 149.974 98.449 149.801 98.007C149.636 97.5563 149.402 97.1663 149.099 96.837C148.796 96.5077 148.432 96.252 148.007 96.07C147.591 95.888 147.136 95.797 146.642 95.797C146.148 95.797 145.689 95.888 145.264 96.07C144.848 96.252 144.488 96.5077 144.185 96.837C143.882 97.1663 143.648 97.5563 143.483 98.007C143.318 98.449 143.236 98.9387 143.236 99.476C143.236 100.005 143.318 100.494 143.483 100.945C143.648 101.387 143.882 101.773 144.185 102.102C144.488 102.431 144.848 102.687 145.264 102.869C145.689 103.042 146.148 103.129 146.642 103.129Z" fill="#8C8C8C"/>
<path d="M75.9725 0.00163479C72.31 -0.0179928 68.6236 0.125502 65.0899 1.18144C64.8809 1.24974 64.6781 1.31674 64.4753 1.38302C62.7201 1.94744 61.0622 2.63852 59.4157 3.46832C59.1694 3.59658 58.931 3.72058 58.6919 3.84506C57.5279 4.45058 56.4441 5.09044 55.3905 5.87418C54.0406 7.68302 53.824 10.0122 53.6456 12.2127C53.6259 12.5067 53.6084 12.7932 53.5894 13.0785C53.1433 19.2936 53.0604 25.5441 53.0177 31.7735C53.0167 32.0438 53.0153 32.3043 53.0144 32.5667C53.0037 34.4577 52.8607 36.5599 53.7679 38.2607C54.6415 39.0252 55.4445 39.2938 56.5471 39.6157C56.7257 39.6626 56.8992 39.7056 57.0726 39.7511C57.0871 40.0333 57.1015 40.3069 57.1155 40.5807C57.1377 40.9521 57.1602 41.3141 57.1816 41.6746C57.238 42.6787 57.3135 43.598 57.5749 44.5695C58.3884 46.0196 58.3873 46.0183 61.8512 47.3323C62.0834 47.3933 62.3101 47.4548 62.5353 47.514C62.4376 47.7094 62.3427 47.8961 62.2478 48.0858C60.747 50.2813 59.5796 52.4873 58.7018 54.9993C58.6368 55.1896 58.5732 55.3764 58.5102 55.5611C57.1383 59.5536 56.1451 65.8036 57.9715 69.7682C58.1626 70.059 58.161 70.0582 58.3482 70.3432C58.7244 70.9349 58.7248 70.9354 59.0852 71.3677C59.2806 71.3677 59.4705 71.3677 59.6603 71.3677C59.2331 72.8141 58.85 74.2671 58.497 75.7333C58.4286 76.02 58.3616 76.2978 58.2953 76.576C58.187 77.0051 58.1867 77.0047 58.0805 77.4253C57.9825 77.8409 57.9817 77.8408 57.8855 78.2482C57.5995 79.423 57.6969 80.048 58.2227 81.1398C64.0241 82.18 64.024 82.1802 76.0419 82.0024C76.2373 81.6115 76.4272 81.2317 76.6169 80.8524C80.1742 81.4057 83.7733 82.0537 87.3805 82.095C89.1567 82.0818 91.9796 82.4464 93.286 81.1398C93.7928 78.9694 93.7935 78.9697 91.7857 75.2012C91.2621 74.2186 90.7659 73.2747 90.4439 72.2072C90.354 71.5475 90.3534 71.548 91.0058 70.72C91.3004 70.3715 91.5792 70.0111 91.8485 69.6427C94.1957 64.5916 93.1317 58.2955 91.3825 53.2081C90.9336 51.9742 90.5921 50.826 90.4142 49.5233C91.1021 49.3404 91.7867 49.1565 92.4731 48.9681C92.7617 48.8888 93.0424 48.8105 93.3224 48.7335C95.0729 48.2686 96.8453 47.9379 98.1738 46.6515C98.3523 45.6343 98.3519 45.6335 98.3391 45.0552C98.3254 44.8526 98.3125 44.6539 98.2994 44.4571C98.264 43.2044 98.1673 41.966 98.0383 40.7194C97.7831 37.9032 97.7849 37.9035 97.5988 35.0816C97.5744 34.7144 97.5498 34.3573 97.526 34.0009C97.5016 33.6459 97.4771 33.3011 97.4534 32.9566C97.3517 31.4384 97.2063 29.9976 96.7593 28.5382C96.6511 28.2295 96.5439 27.9289 96.4388 27.6293C96.2035 26.9452 95.9693 26.2638 95.7315 25.5804C95.0473 23.6325 93.4477 20.5307 94.4228 18.4884C95.2733 16.8598 95.0499 15.0385 94.6146 13.3198C94.5161 12.9636 94.5161 12.9649 94.4196 12.6158C94.2845 12.108 94.1464 11.5999 94.0098 11.0924C93.7901 10.3046 93.5741 9.51781 93.3687 8.72615C93.2341 8.20522 93.097 7.68545 92.9555 7.16631C92.8855 6.9123 92.8154 6.66611 92.7474 6.41949C92.5163 5.51165 92.2808 4.65906 91.8485 3.82524C90.5073 2.32947 89.108 1.72168 87.1888 1.20456C86.819 1.11868 86.4606 1.03677 86.1015 0.953403C82.9452 0.206741 79.8086 0.0140818 76.5739 0.00163479C76.3684 0.00120121 76.1718 0.00206838 75.9725 0.00163479ZM75.9097 1.16822C76.1203 1.16851 76.3232 1.16793 76.5277 1.16822C80.9562 1.17255 85.5036 1.4032 89.6277 3.17751C90.5317 3.8331 90.9174 4.75914 91.257 5.80148C91.3335 6.10795 91.4074 6.40617 91.4817 6.70365C91.5683 7.04491 91.652 7.3738 91.7361 7.70501C91.906 8.39325 92.0786 9.08307 92.2517 9.77046C92.3383 10.114 92.422 10.4483 92.5061 10.7818C92.8887 12.309 93.2908 13.8277 93.709 15.3456C93.7612 15.5331 93.8104 15.7155 93.8611 15.8975C92.2097 15.1668 90.6264 14.641 88.8511 14.2814C88.2196 14.1636 87.5892 14.0329 86.9641 13.8848C86.5287 13.5947 86.5284 13.5944 86.1015 13.3099C85.397 13.7468 84.9318 13.8885 84.0955 13.9477C83.5912 13.9403 83.5887 13.9385 83.0942 13.9312C82.53 13.9263 81.9663 13.9233 81.4021 13.9147C78.9496 13.8742 76.5343 13.8516 74.092 14.0831C73.0985 14.1965 72.5609 14.3723 71.7622 13.7461C71.6536 13.5976 71.5504 13.454 71.4449 13.3099C71.4449 13.603 71.4449 13.8879 71.4449 14.1724C70.8262 14.3387 70.2069 14.5066 69.5877 14.6714C69.3274 14.7407 69.0737 14.8058 68.821 14.873C68.5675 14.9412 68.3235 15.0085 68.0774 15.0746C67.8293 15.1404 67.588 15.2024 67.3471 15.2663C66.3112 15.543 65.3306 15.7191 64.2605 15.8975C63.5764 12.1841 62.9117 8.57937 62.2478 4.97529C60.9759 5.61126 59.8196 6.20931 58.5102 6.70037C58.4207 5.85862 58.421 5.85762 58.8539 5.40491C63.4554 1.59022 70.2038 1.17368 75.9097 1.16822ZM57.9351 5.83782C57.8374 6.2287 57.7424 6.60847 57.6476 6.98791C56.6316 7.133 56.6342 7.13311 55.6383 7.27534C55.736 7.07991 55.8277 6.89009 55.9226 6.70037C56.6126 6.2403 57.0919 5.83782 57.9351 5.83782ZM78.2098 17.8704C78.4738 17.87 78.7269 17.8707 78.9831 17.8704C79.2593 17.8716 79.528 17.8726 79.7961 17.8737C80.0734 17.8725 80.3431 17.8715 80.6124 17.8704C81.0039 17.871 81.0052 17.8699 81.3889 17.8704C81.8109 17.871 82.2337 17.8817 82.6547 17.9101C84.0747 20.2239 84.0718 20.2234 84.9184 22.9134C85.0055 23.1577 85.0916 23.3935 85.1762 23.6306C85.3481 24.1119 85.5182 24.5961 85.6885 25.0781C86.1437 26.4222 86.5853 27.6268 87.4234 28.7827C88.0845 29.6072 88.0831 29.6068 88.4049 30.2302C88.8372 31.1778 89.0281 31.5498 88.6892 32.5667C86.4643 32.9442 84.2911 33.1802 82.0334 33.1978C81.768 33.1977 81.5111 33.1947 81.2534 33.1945C80.3759 33.1952 79.5068 33.1791 78.6295 33.1416C78.1312 32.209 78.1305 32.2102 78.0677 31.0927C77.7354 28.6811 77.3362 26.2939 76.8515 23.9082C76.4389 21.9737 76.2608 20.1779 76.3294 18.1976C76.8851 17.873 76.8853 17.8737 77.4927 17.8737C77.8537 17.8733 77.8558 17.871 78.2098 17.8704ZM84.3764 18.7726C86.802 18.8994 89.2575 19.1207 91.5643 19.9226C92.8049 20.6542 93.1951 21.3464 93.5636 22.7317C93.9012 24.1269 94.2272 25.5101 94.836 26.813C95.9476 28.9788 96.0361 30.9579 96.0918 33.3466C96.1367 35.4806 96.2703 37.5893 96.4652 39.7148C96.6466 41.6507 96.7971 43.5559 96.7362 45.5014C95.2792 46.3151 95.2781 46.3155 93.5736 46.6515C92.9025 46.744 92.2344 46.8397 91.5643 46.939C89.6382 47.7224 87.9528 47.9785 85.8801 48.0824C85.5725 48.3158 85.7565 47.4282 85.4094 47.3178C85.4083 47.3175 84.8369 48.2579 84.8358 48.2576C84.8099 48.2596 84.1382 47.4197 84.1116 47.4197C83.9842 47.4197 84.5126 48.2361 84.3996 48.1948C84.391 48.2478 84.3879 48.3475 84.3764 48.3732C82.8652 48.3953 81.3816 48.4435 79.8853 48.2113C79.5406 48.1479 79.5424 48.148 79.2045 48.0858C78.6158 48.4383 78.6165 48.4401 77.8198 48.3402C77.4969 48.3093 77.1815 48.2777 76.868 48.2477C76.3051 48.1953 75.742 48.1417 75.1794 48.0858C74.9622 46.9975 74.5678 46.535 73.7418 45.789C74.2023 46.7819 74.2026 46.7793 74.6043 47.7982C74.2134 47.7982 73.837 47.7982 73.4575 47.7982C73.3598 47.3097 73.2648 46.8382 73.1701 46.3639C73.0724 46.8526 72.9774 47.3241 72.8825 47.7982C72.0414 47.7982 71.2774 47.6799 70.4535 47.5206C70.2531 47.481 70.0565 47.4434 69.8619 47.4049C68.7243 47.1926 67.8284 47.0197 66.8447 46.3639C66.7144 45.7912 66.5918 45.2137 66.5077 44.6322C66.4762 44.3874 66.4457 44.1496 66.4152 43.9119C66.3054 43.1401 66.1957 42.3709 66.0912 41.5985C65.9507 40.5518 65.805 39.505 65.6583 38.459C65.6217 38.2005 65.5882 37.9499 65.5525 37.6989C65.3262 36.0914 65.0685 34.5221 64.6537 32.95C64.4451 32.1883 64.264 31.4707 64.1712 30.6862C64.0477 29.0807 63.7638 27.6356 63.3185 26.086C63.1523 25.5255 62.9856 24.9645 62.8196 24.4039C62.7398 24.1262 62.6623 23.8572 62.5849 23.5876C62.2965 22.6169 62.2068 22.3427 62.5353 21.357C63.0473 21.2826 63.5595 21.2091 64.072 21.1388C64.3938 21.0949 64.3912 21.096 64.7065 21.0529C65.9293 20.8728 67.0176 20.772 68.2559 20.8811C69.1532 21.0714 69.4713 21.2066 70.0074 21.9319C68.6214 22.1053 67.4458 22.6363 66.2698 23.3695C65.2523 24.3608 64.963 25.1253 64.8322 26.5321C65.0276 26.6299 65.2175 26.7248 65.4071 26.8197C66.7559 25.5409 67.9244 24.4897 69.7199 23.9445C71.0082 23.7916 72.403 23.7131 73.4575 24.5196C74.0777 26.3442 74.0882 28.2514 74.069 30.1574C74.0564 30.8011 74.0425 31.4471 74.0326 32.0908C74.029 32.4086 74.0262 32.7143 74.0226 33.0227C73.9955 34.4882 74.3441 35.5285 74.8918 36.8793C75.0873 36.8793 75.2772 36.8793 75.4668 36.8793C78.059 38.2297 78.0584 38.2284 83.6064 38.0459C83.6952 38.0426 83.7808 38.0388 83.8675 38.036C84.0209 37.9276 84.2439 39.8326 84.3831 37.8476C84.3808 37.8124 84.3784 37.7772 84.3764 37.7419C85.9319 37.1891 87.3966 36.704 88.6164 35.5674C89.2306 33.8783 89.2592 31.9767 88.6892 30.2666C87.544 28.5685 86.3611 26.8837 86.1015 24.8071C86.6978 24.3331 86.6983 24.3328 87.5391 23.9445C88.9458 23.7831 89.7985 23.8601 91.0587 24.5031C91.8018 24.9315 92.4439 25.2051 93.286 25.3821C93.286 25.1867 93.286 24.9968 93.286 24.8071C92.9599 24.0528 92.5785 23.5076 91.9675 22.9565C90.3944 21.8217 88.8693 21.6395 86.9641 21.9319C86.2112 22.4338 85.8027 22.6184 84.9515 22.7944C84.8839 22.5449 84.8188 22.3031 84.7532 22.0608C84.6681 21.7364 84.5846 21.4207 84.502 21.1058C84.2594 20.1937 83.9473 19.6311 84.3764 18.7726ZM89.2642 52.9734C89.5573 53.0713 89.8422 53.1661 90.1267 53.261C91.0196 55.5983 91.0193 55.5971 91.3859 58.0893C91.4218 58.3588 91.4567 58.6207 91.4916 58.8824C91.8474 61.5228 92.5409 65.3026 90.9893 67.63C90.8685 66.7489 90.7451 65.8671 90.6224 64.9862C90.5695 64.6085 90.5185 64.2426 90.4671 63.8758C90.2001 61.9676 89.9517 60.0556 89.5583 58.1686C89.1497 56.3131 88.8442 54.844 89.2642 52.9734ZM87.939 54.5068C88.192 54.5175 88.4425 54.5753 88.6892 54.6986C88.7367 54.9103 88.7818 55.1143 88.8279 55.3199C88.8602 55.6013 88.8924 55.8762 88.9237 56.1494C88.9605 56.4641 88.9971 56.7692 89.0329 57.0747C89.0689 57.4149 89.1035 57.7457 89.1386 58.076C89.3808 60.2903 89.5999 62.5052 89.74 64.7285C89.7619 65.1152 89.7616 65.1127 89.783 65.4919C89.9069 67.4212 90.1133 69.8043 88.7751 71.3578C87.715 71.9389 87.0694 72.2211 85.8339 72.2996C85.5346 72.2752 85.2419 72.254 84.9515 72.2302C83.9844 72.72 83.9863 72.7192 82.8298 72.7326C82.3426 72.7804 81.8531 72.8266 81.3659 72.8747C81.1286 72.8991 80.8988 72.9236 80.6685 72.9474C80.2749 72.9859 79.8831 73.0337 79.492 73.0928C78.3347 73.4154 78.3353 73.4131 77.1126 73.2184C75.4025 72.9382 73.1316 72.8424 72.02 71.3677C72.02 71.1723 72.02 70.9824 72.02 70.7926C71.8368 70.7778 71.6591 70.7642 71.4813 70.7497C70.8004 70.5585 70.7991 70.5571 70.5461 69.8211C70.4606 69.51 70.3779 69.2076 70.2949 68.9057C70.1492 68.3817 70.0027 67.8588 69.8653 67.3326C69.7674 66.9554 69.6694 66.5786 69.5678 66.2024C68.8342 63.4856 67.327 59.7203 68.2823 56.9954C68.9727 56.5212 69.4406 56.4231 70.2817 56.3674C70.6175 56.3743 70.9439 56.3806 71.2698 56.3873C71.6426 56.3924 72.0051 56.3956 72.367 56.4005C76.9535 56.4869 81.1829 56.2824 85.6356 55.0754C86.398 54.8556 87.1796 54.475 87.939 54.5068ZM76.8185 74.7882C76.9898 74.7912 77.1995 74.7995 77.4795 74.8146C77.5119 76.4747 77.5515 77.7253 76.6169 79.1273C76.4208 77.9111 76.0416 76.7798 75.6453 75.6177C75.5846 75.4425 75.5257 75.2721 75.4668 75.102C76.1362 74.8411 76.3045 74.7789 76.8185 74.7882ZM90.0077 76.1563C90.2659 76.1653 90.5085 76.1939 90.9893 76.2522C91.5829 77.0464 91.5828 77.0482 91.756 77.7987C91.8068 78.0553 91.8554 78.3033 91.9047 78.5523C92.104 79.5159 92.1658 79.9004 91.8485 80.8524C91.2061 80.8582 90.5643 80.8621 89.9218 80.8655C89.5253 80.8675 89.5274 80.8669 89.1386 80.8689C88.8728 80.8713 88.6134 80.8731 88.3553 80.8755C88.1025 80.8764 87.8572 80.8778 87.6118 80.8788C87.2041 80.8815 86.7959 80.8773 86.3891 80.8524C86.0328 80.554 86.0344 80.553 86.0123 79.9072C85.9883 79.6358 85.9629 79.3741 85.9396 79.1108C85.9148 78.8386 85.891 78.5719 85.8669 78.3077C85.8489 78.0974 85.8315 77.8939 85.814 77.6897C85.6186 77.6897 85.4286 77.6897 85.239 77.6897C85.5654 78.249 85.5671 78.2487 85.5661 78.8761C85.5654 79.1139 85.5636 79.3459 85.5628 79.5767C85.5636 79.8153 85.5655 80.0458 85.5661 80.2773C85.5913 80.8508 85.5897 80.8523 85.239 81.1398C84.8035 80.8495 84.8032 80.8493 84.3764 80.5649C84.4741 79.1968 84.5691 77.8674 84.6639 76.5396C85.7171 76.3702 86.7298 76.2516 87.7969 76.1959C88.3655 76.1892 88.363 76.1894 88.9205 76.1827C89.4726 76.1604 89.7496 76.1473 90.0077 76.1563ZM72.7206 76.4306C73.5366 76.4109 74.2246 76.4475 74.8918 77.1147C75.5648 79.0572 75.565 79.0586 75.4668 81.1398C74.988 81.1521 74.5082 81.1516 74.0293 81.1398C73.9316 81.0421 73.8366 80.9472 73.7418 80.8524C73.1851 80.8389 72.6296 80.8416 72.0729 80.8524C70.9893 80.8735 70.2081 80.8306 69.1448 80.5649C69.0471 79.6854 68.9522 78.8307 68.8573 77.9772C68.7596 78.9544 68.6646 79.9039 68.5699 80.8524C68.0709 80.8614 68.0708 80.8599 67.5817 80.8689C66.6108 80.9704 66.6101 80.9718 66.2698 80.5649C66.2288 79.4826 66.1563 78.4226 66.5572 77.4021C67.0594 76.7387 67.3085 76.5577 68.1435 76.4339C68.4328 76.4348 68.712 76.4363 68.9929 76.4373C69.3079 76.4374 69.6156 76.4369 69.9215 76.4373C70.2504 76.442 70.5673 76.4458 70.8865 76.4504C71.3766 76.449 71.3776 76.4486 71.858 76.4471C72.1618 76.4491 72.4485 76.4372 72.7206 76.4306Z" fill="black"/>
<path d="M75.9725 0.00163479C72.31 -0.0179928 68.6236 0.125502 65.0899 1.18144C64.8809 1.24974 64.6781 1.31674 64.4753 1.38302C62.7201 1.94744 61.0622 2.63852 59.4157 3.46832C59.1694 3.59658 58.931 3.72058 58.6919 3.84506C57.5279 4.45058 56.4441 5.09044 55.3905 5.87418C54.0406 7.68302 53.824 10.0122 53.6456 12.2127C53.6259 12.5067 53.6084 12.7932 53.5894 13.0785C53.1433 19.2936 53.0604 25.5441 53.0177 31.7735C53.0167 32.0438 53.0153 32.3043 53.0144 32.5667C53.0037 34.4577 52.8607 36.5599 53.7679 38.2607C54.6415 39.0252 55.4445 39.2938 56.5471 39.6157C56.7257 39.6626 56.8992 39.7056 57.0726 39.7511C57.0871 40.0333 57.1015 40.3069 57.1155 40.5807C57.1377 40.9521 57.1602 41.3141 57.1816 41.6746C57.238 42.6787 57.3135 43.598 57.5749 44.5695C58.3884 46.0196 58.3873 46.0183 61.8512 47.3323C62.0834 47.3933 62.3101 47.4548 62.5353 47.514C62.4376 47.7094 62.3427 47.8961 62.2478 48.0858C60.747 50.2813 59.5796 52.4873 58.7018 54.9993C58.6368 55.1896 58.5732 55.3764 58.5102 55.5611C57.1383 59.5536 56.1451 65.8036 57.9715 69.7682C58.1626 70.059 58.161 70.0582 58.3482 70.3432C58.7244 70.9349 58.7248 70.9354 59.0852 71.3677C59.2806 71.3677 59.4705 71.3677 59.6603 71.3677C59.2331 72.8141 58.85 74.2671 58.497 75.7333C58.4286 76.02 58.3616 76.2978 58.2953 76.576C58.187 77.0051 58.1867 77.0047 58.0805 77.4253C57.9825 77.8409 57.9817 77.8408 57.8855 78.2482C57.5995 79.423 57.6969 80.048 58.2227 81.1398C64.0241 82.18 64.024 82.1802 76.0419 82.0024C76.2373 81.6115 76.4272 81.2317 76.6169 80.8524C80.1742 81.4057 83.7733 82.0537 87.3805 82.095C89.1567 82.0818 91.9796 82.4464 93.286 81.1398C93.7928 78.9694 93.7935 78.9697 91.7857 75.2012C91.2621 74.2186 90.7659 73.2747 90.4439 72.2072C90.354 71.5475 90.3534 71.548 91.0058 70.72C91.3004 70.3715 91.5792 70.0111 91.8485 69.6427C94.1957 64.5916 93.1317 58.2955 91.3825 53.2081C90.9336 51.9742 90.5921 50.826 90.4142 49.5233C91.1021 49.3404 91.7867 49.1565 92.4731 48.9681C92.7617 48.8888 93.0424 48.8105 93.3224 48.7335C95.0729 48.2686 96.8453 47.9379 98.1738 46.6515C98.3523 45.6343 98.3519 45.6335 98.3391 45.0552C98.3254 44.8526 98.3125 44.6539 98.2994 44.4571C98.264 43.2044 98.1673 41.966 98.0383 40.7194C97.7831 37.9032 97.7849 37.9035 97.5988 35.0816C97.5744 34.7144 97.5498 34.3573 97.526 34.0009C97.5016 33.6459 97.4771 33.3011 97.4534 32.9566C97.3517 31.4384 97.2063 29.9976 96.7593 28.5382C96.6511 28.2295 96.5439 27.9289 96.4388 27.6293C96.2035 26.9452 95.9693 26.2638 95.7315 25.5804C95.0473 23.6325 93.4477 20.5307 94.4228 18.4884C95.2733 16.8598 95.0499 15.0385 94.6146 13.3198C94.5161 12.9636 94.5161 12.9649 94.4196 12.6158C94.2845 12.108 94.1464 11.5999 94.0098 11.0924C93.7901 10.3046 93.5741 9.51781 93.3687 8.72615C93.2341 8.20522 93.097 7.68545 92.9555 7.16631C92.8855 6.9123 92.8154 6.66611 92.7474 6.41949C92.5163 5.51165 92.2808 4.65906 91.8485 3.82524C90.5073 2.32947 89.108 1.72168 87.1888 1.20456C86.819 1.11868 86.4606 1.03677 86.1015 0.953403C82.9452 0.206741 79.8086 0.0140818 76.5739 0.00163479C76.3684 0.00120121 76.1718 0.00206838 75.9725 0.00163479ZM75.9097 1.16822C76.1203 1.16851 76.3232 1.16793 76.5277 1.16822C80.9562 1.17255 85.5036 1.4032 89.6277 3.17751C90.5317 3.8331 90.9174 4.75914 91.257 5.80148C91.3335 6.10795 91.4074 6.40617 91.4817 6.70365C91.5683 7.04491 91.652 7.3738 91.7361 7.70501C91.906 8.39325 92.0786 9.08307 92.2517 9.77046C92.3383 10.114 92.422 10.4483 92.5061 10.7818C92.8887 12.309 93.2908 13.8277 93.709 15.3456C93.7612 15.5331 93.8104 15.7155 93.8611 15.8975C92.2097 15.1668 90.6264 14.641 88.8511 14.2814C88.2196 14.1636 87.5892 14.0329 86.9641 13.8848C86.5287 13.5947 86.5284 13.5944 86.1015 13.3099C85.397 13.7468 84.9318 13.8885 84.0955 13.9477C83.5912 13.9403 83.5887 13.9385 83.0942 13.9312C82.53 13.9263 81.9663 13.9233 81.4021 13.9147C78.9496 13.8742 76.5343 13.8516 74.092 14.0831C73.0985 14.1965 72.5609 14.3723 71.7622 13.7461C71.6536 13.5976 71.5504 13.454 71.4449 13.3099C71.4449 13.603 71.4449 13.8879 71.4449 14.1724C70.8262 14.3387 70.2069 14.5066 69.5877 14.6714C69.3274 14.7407 69.0737 14.8058 68.821 14.873C68.5675 14.9412 68.3235 15.0085 68.0774 15.0746C67.8293 15.1404 67.588 15.2024 67.3471 15.2663C66.3112 15.543 65.3306 15.7191 64.2605 15.8975C63.5764 12.1841 62.9117 8.57937 62.2478 4.97529C60.9759 5.61126 59.8196 6.20931 58.5102 6.70037C58.4207 5.85862 58.421 5.85762 58.8539 5.40491C63.4554 1.59022 70.2038 1.17368 75.9097 1.16822ZM57.9351 5.83782C57.8374 6.2287 57.7424 6.60847 57.6476 6.98791C56.6316 7.133 56.6342 7.13311 55.6383 7.27534C55.736 7.07991 55.8277 6.89009 55.9226 6.70037C56.6126 6.2403 57.0919 5.83782 57.9351 5.83782ZM78.2098 17.8704C78.4738 17.87 78.7269 17.8707 78.9831 17.8704C79.2593 17.8716 79.528 17.8726 79.7961 17.8737C80.0734 17.8725 80.3431 17.8715 80.6124 17.8704C81.0039 17.871 81.0052 17.8699 81.3889 17.8704C81.8109 17.871 82.2337 17.8817 82.6547 17.9101C84.0747 20.2239 84.0718 20.2234 84.9184 22.9134C85.0055 23.1577 85.0916 23.3935 85.1762 23.6306C85.3481 24.1119 85.5182 24.5961 85.6885 25.0781C86.1437 26.4222 86.5853 27.6268 87.4234 28.7827C88.0845 29.6072 88.0831 29.6068 88.4049 30.2302C88.8372 31.1778 89.0281 31.5498 88.6892 32.5667C86.4643 32.9442 84.2911 33.1802 82.0334 33.1978C81.768 33.1977 81.5111 33.1947 81.2534 33.1945C80.3759 33.1952 79.5068 33.1791 78.6295 33.1416C78.1312 32.209 78.1305 32.2102 78.0677 31.0927C77.7354 28.6811 77.3362 26.2939 76.8515 23.9082C76.4389 21.9737 76.2608 20.1779 76.3294 18.1976C76.8851 17.873 76.8853 17.8737 77.4927 17.8737C77.8537 17.8733 77.8558 17.871 78.2098 17.8704ZM84.3764 18.7726C86.802 18.8994 89.2575 19.1207 91.5643 19.9226C92.8049 20.6542 93.1951 21.3464 93.5636 22.7317C93.9012 24.1269 94.2272 25.5101 94.836 26.813C95.9476 28.9788 96.0361 30.9579 96.0918 33.3466C96.1367 35.4806 96.2703 37.5893 96.4652 39.7148C96.6466 41.6507 96.7971 43.5559 96.7362 45.5014C95.2792 46.3151 95.2781 46.3155 93.5736 46.6515C92.9025 46.744 92.2344 46.8397 91.5643 46.939C89.6382 47.7224 87.9528 47.9785 85.8801 48.0824C85.5725 48.3158 85.7565 47.4282 85.4094 47.3178C85.4083 47.3175 84.8369 48.2579 84.8358 48.2576C84.8099 48.2596 84.1382 47.4197 84.1116 47.4197C83.9842 47.4197 84.5126 48.2361 84.3996 48.1948C84.391 48.2478 84.3879 48.3475 84.3764 48.3732C82.8652 48.3953 81.3816 48.4435 79.8853 48.2113C79.5406 48.1479 79.5424 48.148 79.2045 48.0858C78.6158 48.4383 78.6165 48.4401 77.8198 48.3402C77.4969 48.3093 77.1815 48.2777 76.868 48.2477C76.3051 48.1953 75.742 48.1417 75.1794 48.0858C74.9622 46.9975 74.5678 46.535 73.7418 45.789C74.2023 46.7819 74.2026 46.7793 74.6043 47.7982C74.2134 47.7982 73.837 47.7982 73.4575 47.7982C73.3598 47.3097 73.2648 46.8382 73.1701 46.3639C73.0724 46.8526 72.9774 47.3241 72.8825 47.7982C72.0414 47.7982 71.2774 47.6799 70.4535 47.5206C70.2531 47.481 70.0565 47.4434 69.8619 47.4049C68.7243 47.1926 67.8284 47.0197 66.8447 46.3639C66.7144 45.7912 66.5918 45.2137 66.5077 44.6322C66.4762 44.3874 66.4457 44.1496 66.4152 43.9119C66.3054 43.1401 66.1957 42.3709 66.0912 41.5985C65.9507 40.5518 65.805 39.505 65.6583 38.459C65.6217 38.2005 65.5882 37.9499 65.5525 37.6989C65.3262 36.0914 65.0685 34.5221 64.6537 32.95C64.4451 32.1883 64.264 31.4707 64.1712 30.6862C64.0477 29.0807 63.7638 27.6356 63.3185 26.086C63.1523 25.5255 62.9856 24.9645 62.8196 24.4039C62.7398 24.1262 62.6623 23.8572 62.5849 23.5876C62.2965 22.6169 62.2068 22.3427 62.5353 21.357C63.0473 21.2826 63.5595 21.2091 64.072 21.1388C64.3938 21.0949 64.3912 21.096 64.7065 21.0529C65.9293 20.8728 67.0176 20.772 68.2559 20.8811C69.1532 21.0714 69.4713 21.2066 70.0074 21.9319C68.6214 22.1053 67.4458 22.6363 66.2698 23.3695C65.2523 24.3608 64.963 25.1253 64.8322 26.5321C65.0276 26.6299 65.2175 26.7248 65.4071 26.8197C66.7559 25.5409 67.9244 24.4897 69.7199 23.9445C71.0082 23.7916 72.403 23.7131 73.4575 24.5196C74.0777 26.3442 74.0882 28.2514 74.069 30.1574C74.0564 30.8011 74.0425 31.4471 74.0326 32.0908C74.029 32.4086 74.0262 32.7143 74.0226 33.0227C73.9955 34.4882 74.3441 35.5285 74.8918 36.8793C75.0873 36.8793 75.2772 36.8793 75.4668 36.8793C78.059 38.2297 78.0584 38.2284 83.6064 38.0459C83.6952 38.0426 83.7808 38.0388 83.8675 38.036C84.0209 37.9276 84.2439 39.8326 84.3831 37.8476C84.3808 37.8124 84.3784 37.7772 84.3764 37.7419C85.9319 37.1891 87.3966 36.704 88.6164 35.5674C89.2306 33.8783 89.2592 31.9767 88.6892 30.2666C87.544 28.5685 86.3611 26.8837 86.1015 24.8071C86.6978 24.3331 86.6983 24.3328 87.5391 23.9445C88.9458 23.7831 89.7985 23.8601 91.0587 24.5031C91.8018 24.9315 92.4439 25.2051 93.286 25.3821C93.286 25.1867 93.286 24.9968 93.286 24.8071C92.9599 24.0528 92.5785 23.5076 91.9675 22.9565C90.3944 21.8217 88.8693 21.6395 86.9641 21.9319C86.2112 22.4338 85.8027 22.6184 84.9515 22.7944C84.8839 22.5449 84.8188 22.3031 84.7532 22.0608C84.6681 21.7364 84.5846 21.4207 84.502 21.1058C84.2594 20.1937 83.9473 19.6311 84.3764 18.7726ZM89.2642 52.9734C89.5573 53.0713 89.8422 53.1661 90.1267 53.261C91.0196 55.5983 91.0193 55.5971 91.3859 58.0893C91.4218 58.3588 91.4567 58.6207 91.4916 58.8824C91.8474 61.5228 92.5409 65.3026 90.9893 67.63C90.8685 66.7489 90.7451 65.8671 90.6224 64.9862C90.5695 64.6085 90.5185 64.2426 90.4671 63.8758C90.2001 61.9676 89.9517 60.0556 89.5583 58.1686C89.1497 56.3131 88.8442 54.844 89.2642 52.9734ZM87.939 54.5068C88.192 54.5175 88.4425 54.5753 88.6892 54.6986C88.7367 54.9103 88.7818 55.1143 88.8279 55.3199C88.8602 55.6013 88.8924 55.8762 88.9237 56.1494C88.9605 56.4641 88.9971 56.7692 89.0329 57.0747C89.0689 57.4149 89.1035 57.7457 89.1386 58.076C89.3808 60.2903 89.5999 62.5052 89.74 64.7285C89.7619 65.1152 89.7616 65.1127 89.783 65.4919C89.9069 67.4212 90.1133 69.8043 88.7751 71.3578C87.715 71.9389 87.0694 72.2211 85.8339 72.2996C85.5346 72.2752 85.2419 72.254 84.9515 72.2302C83.9844 72.72 83.9863 72.7192 82.8298 72.7326C82.3426 72.7804 81.8531 72.8266 81.3659 72.8747C81.1286 72.8991 80.8988 72.9236 80.6685 72.9474C80.2749 72.9859 79.8831 73.0337 79.492 73.0928C78.3347 73.4154 78.3353 73.4131 77.1126 73.2184C75.4025 72.9382 73.1316 72.8424 72.02 71.3677C72.02 71.1723 72.02 70.9824 72.02 70.7926C71.8368 70.7778 71.6591 70.7642 71.4813 70.7497C70.8004 70.5585 70.7991 70.5571 70.5461 69.8211C70.4606 69.51 70.3779 69.2076 70.2949 68.9057C70.1492 68.3817 70.0027 67.8588 69.8653 67.3326C69.7674 66.9554 69.6694 66.5786 69.5678 66.2024C68.8342 63.4856 67.327 59.7203 68.2823 56.9954C68.9727 56.5212 69.4406 56.4231 70.2817 56.3674C70.6175 56.3743 70.9439 56.3806 71.2698 56.3873C71.6426 56.3924 72.0051 56.3956 72.367 56.4005C76.9535 56.4869 81.1829 56.2824 85.6356 55.0754C86.398 54.8556 87.1796 54.475 87.939 54.5068ZM76.8185 74.7882C76.9898 74.7912 77.1995 74.7995 77.4795 74.8146C77.5119 76.4747 77.5515 77.7253 76.6169 79.1273C76.4208 77.9111 76.0416 76.7798 75.6453 75.6177C75.5846 75.4425 75.5257 75.2721 75.4668 75.102C76.1362 74.8411 76.3045 74.7789 76.8185 74.7882ZM90.0077 76.1563C90.2659 76.1653 90.5085 76.1939 90.9893 76.2522C91.5829 77.0464 91.5828 77.0482 91.756 77.7987C91.8068 78.0553 91.8554 78.3033 91.9047 78.5523C92.104 79.5159 92.1658 79.9004 91.8485 80.8524C91.2061 80.8582 90.5643 80.8621 89.9218 80.8655C89.5253 80.8675 89.5274 80.8669 89.1386 80.8689C88.8728 80.8713 88.6134 80.8731 88.3553 80.8755C88.1025 80.8764 87.8572 80.8778 87.6118 80.8788C87.2041 80.8815 86.7959 80.8773 86.3891 80.8524C86.0328 80.554 86.0344 80.553 86.0123 79.9072C85.9883 79.6358 85.9629 79.3741 85.9396 79.1108C85.9148 78.8386 85.891 78.5719 85.8669 78.3077C85.8489 78.0974 85.8315 77.8939 85.814 77.6897C85.6186 77.6897 85.4286 77.6897 85.239 77.6897C85.5654 78.249 85.5671 78.2487 85.5661 78.8761C85.5654 79.1139 85.5636 79.3459 85.5628 79.5767C85.5636 79.8153 85.5655 80.0458 85.5661 80.2773C85.5913 80.8508 85.5897 80.8523 85.239 81.1398C84.8035 80.8495 84.8032 80.8493 84.3764 80.5649C84.4741 79.1968 84.5691 77.8674 84.6639 76.5396C85.7171 76.3702 86.7298 76.2516 87.7969 76.1959C88.3655 76.1892 88.363 76.1894 88.9205 76.1827C89.4726 76.1604 89.7496 76.1473 90.0077 76.1563ZM72.7206 76.4306C73.5366 76.4109 74.2246 76.4475 74.8918 77.1147C75.5648 79.0572 75.565 79.0586 75.4668 81.1398C74.988 81.1521 74.5082 81.1516 74.0293 81.1398C73.9316 81.0421 73.8366 80.9472 73.7418 80.8524C73.1851 80.8389 72.6296 80.8416 72.0729 80.8524C70.9893 80.8735 70.2081 80.8306 69.1448 80.5649C69.0471 79.6854 68.9522 78.8307 68.8573 77.9772C68.7596 78.9544 68.6646 79.9039 68.5699 80.8524C68.0709 80.8614 68.0708 80.8599 67.5817 80.8689C66.6108 80.9704 66.6101 80.9718 66.2698 80.5649C66.2288 79.4826 66.1563 78.4226 66.5572 77.4021C67.0594 76.7387 67.3085 76.5577 68.1435 76.4339C68.4328 76.4348 68.712 76.4363 68.9929 76.4373C69.3079 76.4374 69.6156 76.4369 69.9215 76.4373C70.2504 76.442 70.5673 76.4458 70.8865 76.4504C71.3766 76.449 71.3776 76.4486 71.858 76.4471C72.1618 76.4491 72.4485 76.4372 72.7206 76.4306Z" fill="black"/>
<path d="M72.4418 67.5724C72.1798 67.6029 71.9885 67.5554 71.8675 67.4295C71.7467 67.3038 71.6689 67.0932 71.6344 66.798L71.4622 65.3266C71.4505 65.2267 71.4247 65.15 71.3846 65.0968C71.3446 65.0435 71.3002 65.015 71.2514 65.0111C71.2467 65.0116 71.1982 65.01 71.1061 65.0063C70.9918 65.0197 70.9289 64.9764 70.9172 64.8763C70.9037 64.7621 70.9543 64.6982 71.0685 64.6849C71.1298 64.6729 71.1799 64.6574 71.2188 64.6384C71.2576 64.6194 71.2908 64.584 71.3186 64.5325C71.3452 64.4715 71.353 64.3934 71.3419 64.2982L71.281 63.965L71.2183 63.5524C71.1989 63.3858 71.2 63.2722 71.2219 63.2117C71.2024 63.1271 71.1903 63.0658 71.1859 63.0277C71.1596 62.8038 71.2005 62.6157 71.308 62.4631C71.4157 62.3105 71.5838 62.2209 71.8123 62.1941C71.96 62.1768 72.0943 62.19 72.2153 62.2338C72.2906 62.2588 72.331 62.2951 72.3366 62.3427C72.3422 62.3903 72.3265 62.432 72.2896 62.4677C72.2528 62.5034 72.2082 62.5243 72.1558 62.5304C72.1225 62.5344 72.0616 62.5294 71.9731 62.5156C71.8846 62.5018 71.8237 62.4969 71.7904 62.5007C71.5666 62.5269 71.489 62.8329 71.5575 63.4185C71.5703 63.5281 71.5878 63.637 71.6101 63.7454L71.6721 64.1509C71.7078 64.4557 71.6891 64.6678 71.6163 64.7873C71.7094 64.8826 71.7697 65.0469 71.797 65.2802L71.9768 66.8158C72.0157 67.1492 72.14 67.3036 72.3496 67.279C72.4019 67.2729 72.4716 67.2503 72.5587 67.2111C72.6608 67.1751 72.7308 67.1548 72.7689 67.1503C72.7831 67.1486 72.7985 67.1662 72.8149 67.2029C72.8312 67.2396 72.8411 67.2721 72.8444 67.3008C72.8505 67.3532 72.8295 67.4002 72.7812 67.4421C72.7331 67.484 72.6766 67.5159 72.6115 67.538C72.5364 67.5564 72.4799 67.5678 72.4418 67.5724Z" fill="black"/>
<path d="M75.0559 67.3896C74.8941 67.4085 74.807 67.3656 74.7947 67.2608C74.7596 66.9608 74.7524 66.59 74.7732 66.1484C74.7864 65.6835 74.7832 65.3267 74.7637 65.0779C74.6198 65.0851 74.455 65.0995 74.2693 65.1213L74.0995 65.1557C74.0947 65.2383 74.0991 65.3584 74.1127 65.5161C74.1388 66.0681 74.1506 66.4795 74.1485 66.75C74.1504 66.9719 74.1353 67.1522 74.1032 67.291C74.0759 67.4294 74.0337 67.5019 73.9766 67.5086C73.9243 67.5148 73.8762 67.5059 73.8324 67.482C73.7885 67.4582 73.7641 67.4249 73.7591 67.3821C73.6933 66.8201 73.6933 66.0986 73.7592 65.2172L73.5465 65.2566C73.3513 65.2794 73.2448 65.2147 73.227 65.0623C73.2147 64.9575 73.3204 64.892 73.5443 64.8658L73.6657 64.8516L73.7586 64.8407C73.7724 64.5882 73.7719 64.2744 73.757 63.8998L73.5802 63.9349C73.3564 63.9611 73.2364 63.9051 73.2202 63.767L73.2161 63.7313L73.3098 63.6045L73.4169 63.592L73.524 63.5794C73.6241 63.5678 73.6976 63.5567 73.7446 63.5464L73.7571 63.096C73.7722 62.6888 73.765 62.3591 73.7354 62.1066L73.7279 62.0424L73.7204 61.9781C73.7104 61.8924 73.7148 61.8267 73.7335 61.7811C73.7523 61.7354 73.7974 61.7085 73.8689 61.7001L73.926 61.6935L74.0238 61.8485C74.0455 62.0342 74.0558 62.3081 74.0548 62.6703C74.0537 63.0324 74.0632 63.2992 74.0833 63.4706C74.1129 63.4767 74.1778 63.474 74.2778 63.4623L74.3992 63.4481C74.5421 63.4314 74.6433 63.4098 74.703 63.3836C74.7266 63.1732 74.7445 62.7898 74.7567 62.2333C74.7585 62.0835 74.7643 61.9066 74.7742 61.7028C74.8182 61.6251 74.8735 61.5825 74.9402 61.5747C74.9783 61.5702 75.0182 61.5812 75.06 61.6078C75.1016 61.6342 75.1245 61.6642 75.1284 61.6975C75.149 61.8737 75.14 62.1474 75.1014 62.5188C75.06 62.8663 75.0457 63.1359 75.0585 63.3275L75.287 63.3008L75.4562 63.4475C75.4523 63.4962 75.4471 63.5342 75.4407 63.5615C75.4342 63.5888 75.4177 63.6137 75.3914 63.636C75.3609 63.6637 75.329 63.6796 75.2956 63.6835L75.0583 63.6967C75.0395 63.9499 75.0469 64.2604 75.0804 64.6282L75.1161 64.6239L75.1518 64.6198C75.3517 64.5963 75.4601 64.6561 75.4768 64.799C75.4908 64.918 75.4072 64.9882 75.2263 65.0093L75.2049 65.0118L75.1041 65.0164C75.1063 65.1175 75.1071 65.3514 75.1066 65.7184C75.1031 66.3897 75.1209 66.892 75.1599 67.2253L75.0559 67.3896ZM74.172 64.7851C74.4149 64.7568 74.595 64.7284 74.7122 64.7002C74.7311 64.2829 74.7335 63.9737 74.7195 63.7726C74.6126 63.7658 74.4996 63.7694 74.3805 63.7833C74.2568 63.7978 74.1576 63.8166 74.083 63.8398C74.0496 64.0899 74.048 64.4063 74.0783 64.7889C74.0932 64.792 74.1244 64.7907 74.172 64.7851Z" fill="black"/>
<path d="M77.8653 66.7713C77.7034 66.7903 77.5765 66.4069 77.4845 65.6213L77.444 65.2133L77.4126 64.884L77.4102 64.8625L77.4019 64.7911C77.4021 64.7524 77.3992 64.7069 77.3931 64.6546C77.3919 64.645 77.3835 64.634 77.3675 64.6214C77.3515 64.6087 77.343 64.5977 77.3419 64.5882L77.3411 64.581C77.3183 64.5933 77.276 64.6031 77.2141 64.6103C77.1522 64.6176 77.075 64.617 76.9822 64.6085C76.9532 64.6071 76.8755 64.604 76.7495 64.5995L76.8456 65.4209C76.8601 65.5447 76.8901 65.7391 76.9356 66.0041C76.9805 66.2644 77.0105 66.4587 77.0256 66.5872C77.0339 66.6587 77.0221 66.7228 76.9902 66.7797C76.9582 66.8365 76.9113 66.8685 76.8493 66.8758C76.7589 66.8864 76.6843 66.8058 76.6255 66.6341C76.5663 66.4576 76.5197 66.2241 76.4857 65.9337L76.4323 65.3534C76.418 65.191 76.4004 65.0193 76.3792 64.8384L76.3651 64.717L76.3533 64.617C76.3444 64.5408 76.3362 64.491 76.3286 64.4678L76.3245 64.4321L76.2974 64.0153C76.2762 63.8344 76.2376 63.5662 76.1815 63.2108C76.1254 62.8553 76.0868 62.587 76.0657 62.4061C76.0589 62.349 76.0721 62.2968 76.1052 62.2495C76.1383 62.2022 76.1834 62.1751 76.2406 62.1685C76.3929 62.1506 76.4858 62.2846 76.5193 62.5702L76.6086 63.4576C76.6303 63.7254 76.6603 64.0235 76.6988 64.352C76.7731 64.3675 76.903 64.3644 77.0887 64.3426L77.353 64.3117C77.3591 64.282 77.3605 64.253 77.3572 64.2243C77.3305 63.9958 77.2767 63.6594 77.1956 63.2151C77.1133 62.8 77.0568 62.4615 77.0261 62.1997C77.02 62.1472 77.0351 62.1008 77.0714 62.0604C77.1077 62.0199 77.1544 61.9964 77.2115 61.9896C77.2448 61.9857 77.2939 61.9921 77.3586 62.0087L77.4262 62.0297C77.5053 62.7059 77.6347 63.6054 77.8144 64.7283L78.0902 66.5278C78.0979 66.5945 78.0791 66.6498 78.0335 66.6937C77.988 66.7377 77.9319 66.7635 77.8653 66.7713Z" fill="black"/>
<path d="M79.3114 66.696C79.2495 66.7032 79.1911 66.6883 79.1361 66.6513C79.081 66.6144 79.0475 66.5652 79.0355 66.5038L79.0138 66.3181L78.997 66.1753C78.9873 66.133 78.979 66.0833 78.9724 66.0261C78.9606 65.9261 78.9357 65.7746 78.8974 65.5715L78.8297 65.1161C78.8023 64.8827 78.7688 64.5343 78.729 64.0707C78.6996 63.6543 78.6684 63.3056 78.6355 63.0246C78.6278 62.958 78.6089 62.8588 78.5791 62.7272C78.5486 62.5907 78.5298 62.4916 78.5225 62.4297C78.4829 62.0916 78.5632 61.9109 78.7632 61.8875C78.9202 61.8691 79.106 61.8787 79.3204 61.9164C79.5347 61.954 79.647 62.0158 79.657 62.1014C79.6626 62.149 79.6475 62.1954 79.6117 62.2407C79.576 62.2858 79.5309 62.3237 79.4766 62.3543C79.2683 62.3063 79.0818 62.2798 78.9171 62.275C78.9302 62.3458 78.9445 62.4479 78.9602 62.5812C78.9825 62.7717 79.0002 62.9433 79.0132 63.0963C79.0257 63.3266 79.0386 63.4987 79.052 63.613L79.0868 63.7248L79.2003 63.7043C79.2377 63.6951 79.2851 63.6872 79.3422 63.6804C79.5708 63.6536 79.6928 63.7069 79.7085 63.8403C79.7146 63.8926 79.6983 63.9393 79.6596 63.98C79.6209 64.0207 79.5683 64.0449 79.5016 64.0528C79.4159 64.0628 79.3487 64.0659 79.3 64.0618L79.1214 64.0828C79.1455 64.2055 79.1714 64.3859 79.1992 64.6239C79.2271 64.862 79.2497 65.0765 79.2673 65.2675C79.287 65.5597 79.3053 65.7771 79.322 65.92C79.3532 66.1867 79.3735 66.3194 79.383 66.3184L79.6179 66.2836C79.6983 66.2694 79.7956 66.2556 79.91 66.2422C80.0909 66.221 80.188 66.2676 80.2014 66.3818C80.2091 66.4486 80.1854 66.5032 80.13 66.5459C80.0747 66.5886 80.0042 66.6149 79.9185 66.625L79.3114 66.696Z" fill="black"/>
<path d="M82.1136 66.3898C81.9355 66.3527 81.7203 66.3489 81.4679 66.3785C81.3973 66.435 81.3191 66.4683 81.2335 66.4783C81.1763 66.485 81.1245 66.4657 81.0782 66.4205C81.0319 66.3752 81.0055 66.324 80.9987 66.2668C80.9519 65.8669 80.9062 65.3316 80.8615 64.6611C80.8071 63.9483 80.7592 63.4157 80.7179 63.0634L80.7121 63.0133C80.6484 62.7167 80.6079 62.4945 80.5907 62.347C80.5377 61.8946 80.5946 61.6587 80.7613 61.6392C80.8089 61.6336 80.8526 61.6466 80.8925 61.6781C80.9324 61.7096 80.9551 61.7492 80.9607 61.7969C80.9674 61.854 80.9709 61.9453 80.9711 62.0708C80.9707 62.1914 80.9742 62.2828 80.9813 62.3447C81.0187 62.6637 81.0548 62.9515 81.0896 63.208C81.124 63.4598 81.1597 63.7453 81.1971 64.0643C81.1816 64.1385 81.1814 64.24 81.1965 64.3685L81.2065 64.4542L81.2583 65.0201C81.2683 65.1879 81.2858 65.3789 81.3109 65.5932C81.3494 65.9217 81.4471 66.0768 81.6042 66.0584C81.6137 66.0573 81.6291 66.0544 81.6502 66.0494C81.6714 66.0445 81.701 66.0399 81.7391 66.0354C81.7814 66.0256 81.8359 66.0168 81.9026 66.009C82.1596 65.9789 82.2966 66.0353 82.3133 66.1782C82.3189 66.2258 82.3022 66.2687 82.2633 66.3071C82.2243 66.3455 82.1744 66.373 82.1136 66.3898Z" fill="black"/>
<path d="M84.0281 66.1656C83.8501 66.1286 83.6348 66.1248 83.3825 66.1543C83.3119 66.2109 83.2337 66.2442 83.148 66.2543C83.0909 66.2609 83.0391 66.2416 82.9928 66.1963C82.9465 66.151 82.92 66.0999 82.9133 66.0428C82.8665 65.6428 82.8208 65.1075 82.776 64.437C82.7216 63.7241 82.6738 63.1916 82.6325 62.8392L82.6266 62.7893C82.5629 62.4927 82.5225 62.2705 82.5052 62.1228C82.4523 61.6705 82.5091 61.4346 82.6758 61.415C82.7234 61.4096 82.7672 61.4225 82.807 61.4541C82.847 61.4856 82.8697 61.5251 82.8752 61.5727C82.882 61.6299 82.8854 61.7212 82.8856 61.8467C82.8853 61.9674 82.8887 62.0587 82.896 62.1206C82.9333 62.4396 82.9693 62.7274 83.0042 62.984C83.0385 63.2358 83.0744 63.5212 83.1117 63.8403C83.0962 63.9145 83.096 64.0158 83.1111 64.1444L83.1211 64.2301L83.1728 64.796C83.1829 64.9638 83.2003 65.1549 83.2254 65.3691C83.2639 65.6977 83.3617 65.8527 83.5188 65.8343C83.5283 65.8333 83.5437 65.8302 83.5648 65.8253C83.586 65.8205 83.6156 65.8158 83.6537 65.8113C83.696 65.8015 83.7504 65.7928 83.8171 65.7849C84.0742 65.7549 84.2112 65.8113 84.2279 65.954C84.2334 66.0017 84.2168 66.0447 84.1778 66.083C84.1389 66.1213 84.0889 66.1489 84.0281 66.1656Z" fill="black"/>
<path d="M85.6804 65.994C85.5565 66.0084 85.4377 65.9825 85.3237 65.9162C85.2098 65.8499 85.1116 65.754 85.0294 65.6285C84.8573 65.3543 84.7345 65.0476 84.6611 64.7086C84.5804 64.3899 84.5224 64.0805 84.4873 63.7806C84.4806 63.7234 84.4775 63.6754 84.4778 63.6368L84.4628 63.5082C84.4599 63.4845 84.4561 63.4728 84.4513 63.4735L84.4363 63.3449L84.3849 62.844C84.3719 62.6911 84.3625 62.4461 84.3569 62.1088C84.3539 61.8774 84.3828 61.6497 84.4434 61.4254C84.4656 61.3263 84.5 61.2486 84.5464 61.1925C84.5929 61.1363 84.6496 61.1044 84.7162 61.0966C84.9067 61.0743 85.0821 61.0887 85.2426 61.1399C85.4031 61.1912 85.5429 61.2725 85.6622 61.3841C85.7713 61.492 85.8694 61.6289 85.9564 61.795C86.0434 61.9609 86.1126 62.1398 86.164 62.3318C86.216 62.5284 86.255 62.7386 86.2813 62.9624L86.2879 63.0196C86.3053 63.1672 86.3233 63.3002 86.3419 63.4187L86.3967 63.825C86.5572 65.1963 86.3184 65.9193 85.6804 65.994ZM85.6167 65.6973C85.7024 65.6873 85.7769 65.6436 85.8403 65.5662C85.9036 65.4888 85.9473 65.3883 85.9715 65.2649C86.0336 65.0114 86.0577 64.7431 86.0439 64.4599C86.0392 64.2144 86.0266 64.0034 86.006 63.8272C85.9809 63.6129 85.9313 63.334 85.8574 62.9903C85.7859 62.627 85.7396 62.3549 85.7183 62.174L85.7033 62.0454C85.6727 61.8655 85.5936 61.7155 85.466 61.5953C85.3386 61.4751 85.1938 61.4244 85.0319 61.4433C84.87 61.4623 84.7738 61.5677 84.7431 61.7595C84.7128 61.9127 84.7113 62.106 84.7386 62.3393C84.7491 62.4298 84.7605 62.5056 84.7725 62.567L84.795 62.7598L84.8192 63.0901C84.8214 63.1912 84.8294 63.3013 84.8434 63.4203C84.8735 63.6774 84.9104 63.9314 84.9543 64.182C85.0151 64.5369 85.1034 64.8789 85.2191 65.2081C85.3366 65.5515 85.4691 65.7147 85.6167 65.6973Z" fill="black"/>
<path d="M87.7264 65.7836C87.5741 65.8014 87.4401 65.7905 87.3245 65.751C87.2492 65.726 87.2084 65.6873 87.2023 65.635C87.1967 65.5873 87.2125 65.5469 87.2496 65.5136C87.2867 65.4803 87.3315 65.4605 87.3839 65.4543C87.4363 65.4482 87.4945 65.4511 87.5586 65.4629C87.6471 65.4767 87.708 65.4816 87.7413 65.4777C87.97 65.451 88.0502 65.1471 87.9822 64.5662L87.9228 64.1822C87.8852 63.9839 87.8596 63.8276 87.8462 63.7134C87.8072 63.38 87.8259 63.1485 87.9025 63.0189C87.804 62.9194 87.7413 62.7553 87.7146 62.5268L87.6871 62.168C87.6768 61.9568 87.6636 61.7822 87.6475 61.6441C87.5706 60.9871 87.4155 60.6721 87.1821 60.6994C87.1393 60.7045 87.0719 60.7268 86.98 60.7666C86.8929 60.8057 86.8232 60.8283 86.7709 60.8345C86.7565 60.8362 86.7413 60.8186 86.7249 60.7819C86.7085 60.7452 86.6983 60.7102 86.6944 60.6769C86.6883 60.6246 86.7092 60.5762 86.7571 60.532C86.805 60.4878 86.8618 60.457 86.9274 60.4397C87.0024 60.4212 87.059 60.4098 87.0971 60.4053C87.3542 60.3752 87.5434 60.4243 87.6646 60.5525C87.7858 60.6807 87.8657 60.8898 87.9045 61.1796L88.0566 62.4795C88.0666 62.5653 88.0856 62.6343 88.1134 62.6865C88.1412 62.7387 88.175 62.7698 88.2148 62.7797C88.2806 62.8057 88.354 62.814 88.435 62.8045C88.5111 62.7956 88.5548 62.8388 88.5659 62.9341C88.5793 63.0483 88.5336 63.1115 88.4288 63.1238C88.3675 63.1358 88.3197 63.1499 88.2853 63.166C88.2511 63.1821 88.2224 63.2156 88.1994 63.2666C88.1727 63.3276 88.1653 63.408 88.1769 63.5081L88.2355 63.885C88.2612 64.0219 88.2855 64.1881 88.3084 64.3833C88.3323 64.588 88.3351 64.7156 88.317 64.766C88.3354 64.8411 88.3476 64.9048 88.3538 64.9571C88.38 65.181 88.3379 65.3681 88.2276 65.5185C88.1173 65.669 87.9503 65.7573 87.7264 65.7836Z" fill="black"/>
<path d="M75.6724 42.3593C75.6724 42.3593 78.8534 42.4962 82.1328 42.4844C85.4122 42.4727 89.2228 41.0662 89.2228 41.0662C89.2228 41.0662 86.5513 44.4475 86.5153 44.4445" fill="black"/>
<path d="M75.6724 42.3593C75.6724 42.3593 78.8534 42.4962 82.1328 42.4844C85.4122 42.4727 89.2228 41.0662 89.2228 41.0662C89.2228 41.0662 86.5513 44.4475 86.5153 44.4445" stroke="black" stroke-miterlimit="10" stroke-linejoin="round"/>
</svg>
