<svg width="63" height="113" viewBox="0 0 63 113" fill="none" xmlns="http://www.w3.org/2000/svg">
<path d="M31.5852 0.0022477C26.5496 -0.0247385 21.4811 0.172554 16.6225 1.62437C16.3352 1.71828 16.0563 1.8104 15.7775 1.90153C13.3643 2.67756 11.0848 3.62773 8.82096 4.76864C8.48233 4.94498 8.1546 5.11548 7.82585 5.28663C6.22543 6.11916 4.73538 6.99891 3.28676 8.07648C1.43073 10.5635 1.13295 13.7659 0.887665 16.7914C0.860621 17.1956 0.836483 17.5895 0.810311 17.9818C0.197015 26.5271 0.0830203 35.1209 0.0242788 43.6858C0.0229702 44.0575 0.0210792 44.4156 0.0197706 44.7763C0.00508521 47.3764 -0.191495 50.2666 1.05574 52.6051C2.25689 53.6562 3.36091 54.0255 4.877 54.4681C5.12258 54.5326 5.36103 54.5917 5.59949 54.6543C5.61941 55.0423 5.63918 55.4184 5.65852 55.7949C5.68891 56.3055 5.71988 56.8032 5.74939 57.2989C5.82689 58.6794 5.93071 59.9434 6.29013 61.2792C7.40855 63.2729 7.4071 63.2712 12.1697 65.0778C12.4888 65.1617 12.8006 65.2461 13.1103 65.3276C12.9759 65.5963 12.8453 65.8529 12.7149 66.1137C10.6514 69.1324 9.04633 72.1654 7.83951 75.6192C7.75009 75.8808 7.66271 76.1377 7.57605 76.3916C5.68978 81.881 4.32418 90.4742 6.83538 95.9252C7.09812 96.325 7.09594 96.3239 7.3533 96.7157C7.87049 97.5292 7.87107 97.53 8.36659 98.1244C8.63529 98.1244 8.89643 98.1244 9.15728 98.1244C8.57001 100.113 8.04322 102.111 7.55788 104.127C7.4638 104.521 7.37176 104.903 7.2806 105.285C7.13171 105.875 7.13127 105.875 6.98529 106.453C6.85051 107.024 6.84934 107.024 6.71718 107.584C6.32387 109.2 6.45778 110.059 7.18071 111.56C15.1572 112.99 15.157 112.991 31.6806 112.746C31.9493 112.209 32.2104 111.687 32.4711 111.165C37.3622 111.926 42.3106 112.817 47.2702 112.873C49.7123 112.855 53.5935 113.357 55.3897 111.56C56.0865 108.576 56.0875 108.576 53.327 103.395C52.6071 102.044 51.9249 100.746 51.4821 99.2785C51.3585 98.3715 51.3577 98.3723 52.2546 97.2338C52.6597 96.7547 53.043 96.2592 53.4133 95.7526C56.6405 88.8077 55.1776 80.1512 52.7725 73.1565C52.1553 71.4599 51.6858 69.8813 51.4413 68.0901C52.3871 67.8388 53.3283 67.5859 54.272 67.3268C54.6688 67.2178 55.0547 67.1102 55.4398 67.0043C57.8466 66.3651 60.2835 65.9105 62.11 64.1417C62.3554 62.7432 62.3548 62.7421 62.3372 61.947C62.3185 61.6684 62.3007 61.3952 62.2827 61.1246C62.234 59.4022 62.1011 57.6996 61.9237 55.9856C61.5729 52.1136 61.5753 52.1139 61.3194 48.2341C61.2858 47.7292 61.2521 47.2382 61.2194 46.7482C61.1858 46.2601 61.1521 45.7861 61.1195 45.3124C60.9796 43.2251 60.7799 41.2441 60.1652 39.2375C60.0165 38.813 59.8691 38.3998 59.7245 37.9879C59.401 37.0473 59.079 36.1104 58.7521 35.1708C57.8114 32.4927 55.6121 28.2279 56.9528 25.42C58.1221 23.1807 57.8149 20.6766 57.2164 18.3136C57.081 17.8239 57.081 17.8256 56.9483 17.3456C56.7626 16.6474 56.5727 15.9488 56.3849 15.251C56.0829 14.1679 55.7858 13.0862 55.5034 11.9977C55.3183 11.2815 55.1299 10.5668 54.9354 9.85305C54.8391 9.5038 54.7427 9.16531 54.6492 8.82624C54.3315 7.57804 54.0077 6.4058 53.4133 5.25936C51.5692 3.20282 49.6453 2.36716 47.0066 1.65617C46.4981 1.53809 46.0053 1.42546 45.5117 1.31085C41.172 0.28425 36.8594 0.0193612 32.4121 0.0022477C32.1296 0.00165156 31.8593 0.00284384 31.5852 0.0022477ZM31.4988 1.6062C31.7884 1.6066 32.0673 1.6058 32.3485 1.6062C38.4373 1.61216 44.6896 1.92927 50.3599 4.36879C51.6028 5.27018 52.1331 6.5434 52.6 7.97652C52.7052 8.39789 52.8069 8.80792 52.9089 9.21693C53.028 9.68613 53.1432 10.1383 53.2588 10.5937C53.4923 11.54 53.7297 12.4884 53.9676 13.4335C54.0867 13.9059 54.2018 14.3655 54.3174 14.824C54.8435 16.9238 55.3963 19.0119 55.9713 21.0988C56.043 21.3566 56.1108 21.6075 56.1804 21.8577C53.9099 20.853 51.7329 20.13 49.2921 19.6357C48.4239 19.4737 47.5571 19.294 46.6976 19.0904C46.099 18.6915 46.0985 18.6912 45.5117 18.2999C44.5431 18.9007 43.9035 19.0955 42.7536 19.1768C42.0602 19.1666 42.0567 19.1642 41.3768 19.1541C40.6011 19.1474 39.8261 19.1434 39.0504 19.1314C35.6785 19.0758 32.3575 19.0448 28.9997 19.3631C27.6337 19.5189 26.8946 19.7606 25.7964 18.8997C25.6471 18.6955 25.5051 18.4981 25.3602 18.2999C25.3602 18.703 25.3602 19.0947 25.3602 19.4858C24.5094 19.7145 23.658 19.9452 22.8067 20.1719C22.4487 20.2672 22.0999 20.3567 21.7525 20.4491C21.404 20.5428 21.0684 20.6353 20.7301 20.7262C20.389 20.8168 20.0572 20.902 19.7259 20.9898C18.3018 21.3703 16.9535 21.6124 15.4822 21.8577C14.5416 16.7521 13.6277 11.7959 12.7149 6.84059C10.9662 7.71499 9.37639 8.53726 7.57605 9.21242C7.45304 8.0551 7.45334 8.05371 8.0486 7.43127C14.3752 2.18641 23.6538 1.61371 31.4988 1.6062ZM6.78537 8.02649C6.65102 8.56392 6.52045 9.08607 6.39003 9.60776C4.99317 9.80725 4.99666 9.80739 3.62743 10.003C3.76178 9.73426 3.88784 9.47327 4.01826 9.21242C4.967 8.57987 5.62595 8.02649 6.78537 8.02649ZM34.6613 24.5703C35.0242 24.5697 35.3723 24.5707 35.7244 24.5703C36.1042 24.5719 36.4737 24.5733 36.8423 24.5748C37.2235 24.5732 37.5944 24.5717 37.9646 24.5703C38.5029 24.571 38.5048 24.5695 39.0323 24.5703C39.6124 24.571 40.1937 24.5858 40.7726 24.6248C42.725 27.8061 42.7211 27.8054 43.885 31.5039C44.0048 31.8398 44.1231 32.1641 44.2395 32.49C44.4757 33.1518 44.7097 33.8175 44.9438 34.4801C45.5697 36.3282 46.1768 37.9844 47.3292 39.5736C48.2381 40.7073 48.2362 40.7067 48.6787 41.5639C49.2731 42.8668 49.5355 43.3782 49.0695 44.7763C46.0104 45.2954 43.0225 45.6199 39.9183 45.6441C39.5535 45.6439 39.2002 45.6399 38.846 45.6396C37.6395 45.6404 36.4446 45.6183 35.2383 45.5669C34.5532 44.2846 34.5522 44.2862 34.4658 42.7497C34.009 39.434 33.4601 36.1518 32.7937 32.8717C32.2264 30.2119 31.9815 27.7429 32.0759 25.0201C32.84 24.5738 32.8401 24.5748 33.6753 24.5748C34.1717 24.5742 34.1746 24.571 34.6613 24.5703ZM43.1398 25.8107C46.4748 25.985 49.8509 26.2893 53.0225 27.3919C54.7283 28.3978 55.2647 29.3494 55.7714 31.2541C56.2355 33.1724 56.6838 35.0741 57.5209 36.8656C59.0492 39.8433 59.1709 42.5644 59.2475 45.8486C59.3091 48.7827 59.4929 51.6819 59.7609 54.6043C60.0103 57.266 60.2172 59.8855 60.1334 62.5605C58.1302 63.6792 58.1286 63.6797 55.7851 64.1417C54.8624 64.2689 53.9439 64.4005 53.0225 64.537C50.3743 65.6141 48.0571 65.9663 45.2072 66.1091C44.7843 66.43 45.0373 65.2096 44.5601 65.0578C44.5586 65.0574 43.7729 66.3504 43.7714 66.35C43.7358 66.3528 42.8122 65.1979 42.7757 65.1979C42.6005 65.1979 43.3271 66.3203 43.1716 66.2636C43.1599 66.3365 43.1557 66.4736 43.1398 66.5089C41.062 66.5393 39.0222 66.6056 36.965 66.2863C36.491 66.1991 36.4934 66.1992 36.0289 66.1137C35.2194 66.5984 35.2205 66.6008 34.125 66.4636C33.6811 66.4211 33.2474 66.3776 32.8164 66.3363C32.0425 66.2644 31.2682 66.1907 30.4947 66.1137C30.196 64.6174 29.6538 63.9816 28.5181 62.9558C29.1513 64.321 29.1518 64.3175 29.704 65.7184C29.1666 65.7184 28.649 65.7184 28.1273 65.7184C27.9929 65.0466 27.8624 64.3985 27.7321 63.7463C27.5977 64.4182 27.4672 65.0664 27.3367 65.7184C26.1802 65.7184 25.1299 65.5557 23.9971 65.3367C23.7215 65.2822 23.4512 65.2306 23.1837 65.1777C21.6195 64.8857 20.3878 64.648 19.0353 63.7463C18.8562 62.9589 18.6875 62.1648 18.5719 61.3654C18.5286 61.0288 18.4867 60.7018 18.4447 60.375C18.2938 59.3138 18.143 58.2563 17.9993 57.1943C17.8061 55.7552 17.6057 54.3159 17.4041 52.8777C17.3537 52.5223 17.3077 52.1777 17.2587 51.8327C16.9475 49.6225 16.5932 47.4649 16.0228 45.3034C15.736 44.2561 15.487 43.2694 15.3594 42.1908C15.1896 39.9834 14.7992 37.9965 14.1871 35.8659C13.9585 35.0953 13.7294 34.324 13.5011 33.5532C13.3913 33.1714 13.2849 32.8015 13.1784 32.4309C12.7819 31.0962 12.6585 30.7192 13.1103 29.3639C13.8141 29.2617 14.5185 29.1607 15.2231 29.064C15.6655 29.0036 15.6619 29.0051 16.0955 28.9459C17.7767 28.6983 19.273 28.5597 20.9755 28.7097C22.2092 28.9714 22.6466 29.1572 23.3836 30.1545C21.478 30.3928 19.8617 31.123 18.2448 32.1311C16.8459 33.494 16.448 34.5451 16.2682 36.4794C16.5369 36.6137 16.798 36.7443 17.0587 36.8747C18.9132 35.1165 20.5197 33.6711 22.9884 32.9216C24.7597 32.7113 26.6774 32.6035 28.1273 33.7123C28.9801 36.221 28.9945 38.8431 28.968 41.4638C28.9507 42.3489 28.9316 43.237 28.918 44.122C28.913 44.5589 28.9092 44.9793 28.9043 45.4033C28.8669 47.4182 29.3463 48.8485 30.0993 50.7059C30.368 50.7059 30.6292 50.7059 30.8899 50.7059C34.4539 52.5625 34.453 52.5607 42.0812 52.3098C42.2031 52.3053 42.3209 52.3 42.4401 52.2961C42.651 52.1471 42.9576 54.7663 43.149 52.0371C43.1459 51.9887 43.1426 51.9403 43.1398 51.8918C45.2785 51.1317 47.2923 50.4648 48.9695 48.902C49.8139 46.5797 49.8532 43.9651 49.0695 41.6139C47.495 39.2792 45.8685 36.9627 45.5117 34.1076C46.3315 33.4559 46.3322 33.4555 47.4883 32.9216C49.4224 32.6997 50.5947 32.8056 52.3273 33.6896C53.3491 34.2786 54.2319 34.6548 55.3897 34.8982C55.3897 34.6295 55.3897 34.3685 55.3897 34.1076C54.9413 33.0705 54.417 32.3209 53.5769 31.5631C51.4141 30.003 49.3171 29.7525 46.6976 30.1545C45.6625 30.8446 45.1008 31.0983 43.9305 31.3404C43.8376 30.9972 43.748 30.6648 43.6579 30.3317C43.5408 29.8856 43.4261 29.4516 43.3125 29.0186C42.979 27.7646 42.5498 26.991 43.1398 25.8107ZM49.86 72.8338C50.2631 72.9683 50.6548 73.0987 51.0459 73.2292C52.2737 76.4428 52.2732 76.4412 52.7772 79.8677C52.8266 80.2383 52.8746 80.5983 52.9226 80.9582C53.4117 84.5885 54.3652 89.7854 52.2319 92.9854C52.0659 91.7739 51.8962 90.5615 51.7276 89.3504C51.6547 88.831 51.5846 88.3279 51.514 87.8237C51.1468 85.2001 50.8053 82.5712 50.2644 79.9767C49.7027 77.4255 49.2827 75.4056 49.86 72.8338ZM48.038 74.9421C48.386 74.9568 48.7303 75.0362 49.0695 75.2057C49.1348 75.4968 49.1969 75.7773 49.2603 76.0599C49.3046 76.4469 49.349 76.8249 49.392 77.2005C49.4426 77.6332 49.4929 78.0527 49.542 78.4727C49.5916 78.9405 49.6392 79.3953 49.6874 79.8494C50.0204 82.8939 50.3217 85.9391 50.5143 88.996C50.5444 89.5277 50.544 89.5243 50.5734 90.0457C50.7438 92.6982 51.0276 95.9748 49.1876 98.1107C47.7301 98.9097 46.8424 99.2977 45.1437 99.4056C44.7322 99.372 44.3298 99.3429 43.9305 99.3102C42.6008 99.9836 42.6034 99.9826 41.0133 100.001C40.3435 100.067 39.6704 100.13 39.0006 100.196C38.6743 100.23 38.3583 100.264 38.0418 100.296C37.5006 100.349 36.9619 100.415 36.4242 100.496C34.833 100.94 34.8338 100.937 33.1527 100.669C30.8015 100.284 27.6792 100.152 26.1509 98.1244C26.1509 97.8557 26.1509 97.5945 26.1509 97.3337C25.8989 97.3133 25.6546 97.2946 25.4102 97.2746C24.474 97.0118 24.4722 97.0099 24.1243 95.9979C24.0068 95.5701 23.8931 95.1544 23.779 94.7393C23.5786 94.0188 23.3772 93.2999 23.1883 92.5765C23.0537 92.0578 22.9189 91.5398 22.7793 91.0225C21.7707 87.2871 19.6983 82.1102 21.0119 78.3637C21.961 77.7117 22.6044 77.5768 23.7608 77.5003C24.2226 77.5097 24.6713 77.5184 25.1194 77.5276C25.6319 77.5346 26.1304 77.5389 26.6279 77.5458C32.9339 77.6646 38.749 77.3834 44.8711 75.7238C45.9193 75.4216 46.9939 74.8983 48.038 74.9421ZM32.7484 102.827C32.9839 102.831 33.2723 102.843 33.6571 102.864C33.7018 105.146 33.7561 106.865 32.4711 108.793C32.2015 107.121 31.6801 105.565 31.1353 103.968C31.0519 103.727 30.9709 103.493 30.8899 103.259C31.8103 102.9 32.0416 102.814 32.7484 102.827ZM50.8823 104.708C51.2374 104.721 51.571 104.76 52.2319 104.84C53.0481 105.932 53.0479 105.935 53.2861 106.966C53.3559 107.319 53.4228 107.66 53.4905 108.003C53.7646 109.327 53.8495 109.856 53.4133 111.165C52.53 111.173 51.6476 111.178 50.7643 111.183C50.219 111.186 50.2219 111.185 49.6874 111.188C49.3219 111.191 48.9653 111.193 48.6105 111.197C48.2628 111.198 47.9256 111.2 47.5882 111.201C47.0277 111.205 46.4664 111.199 45.9071 111.165C45.4172 110.755 45.4194 110.753 45.389 109.865C45.356 109.492 45.3211 109.132 45.2891 108.77C45.2549 108.396 45.2222 108.029 45.1891 107.666C45.1644 107.377 45.1404 107.097 45.1164 106.816C44.8477 106.816 44.5865 106.816 44.3258 106.816C44.7745 107.586 44.7769 107.585 44.7756 108.448C44.7745 108.775 44.7721 109.094 44.771 109.411C44.7721 109.739 44.7747 110.056 44.7756 110.374C44.8102 111.163 44.808 111.165 44.3258 111.56C43.7271 111.161 43.7266 111.161 43.1398 110.77C43.2742 108.889 43.4047 107.061 43.5352 105.235C44.9832 105.002 46.3755 104.839 47.8426 104.763C48.6244 104.753 48.6211 104.754 49.3875 104.745C50.1466 104.714 50.5274 104.696 50.8823 104.708ZM27.1141 105.085C28.236 105.058 29.182 105.109 30.0993 106.026C31.0247 108.697 31.025 108.699 30.8899 111.56C30.2315 111.577 29.5718 111.576 28.9135 111.56C28.7791 111.426 28.6485 111.295 28.5181 111.165C27.7527 111.146 26.989 111.15 26.2236 111.165C24.7337 111.194 23.6596 111.135 22.1977 110.77C22.0634 109.56 21.9328 108.385 21.8024 107.212C21.668 108.555 21.5375 109.861 21.4072 111.165C20.7212 111.177 20.7211 111.175 20.0486 111.188C18.7137 111.327 18.7127 111.329 18.2448 110.77C18.1885 109.282 18.0887 107.824 18.64 106.421C19.3305 105.509 19.6729 105.26 20.8209 105.09C21.2188 105.091 21.6026 105.093 21.9888 105.095C22.4219 105.095 22.8451 105.094 23.2656 105.095C23.7177 105.101 24.1535 105.106 24.5923 105.113C25.2663 105.111 25.2676 105.11 25.9281 105.108C26.3458 105.111 26.74 105.094 27.1141 105.085Z" fill="black"/>
<path d="M26.731 92.9062C26.3708 92.9482 26.1078 92.8828 25.9415 92.7098C25.7753 92.5369 25.6684 92.2474 25.6208 91.8414L25.3841 89.8185C25.368 89.6811 25.3325 89.5757 25.2774 89.5025C25.2225 89.4293 25.1614 89.39 25.0944 89.3846C25.0878 89.3854 25.0212 89.3832 24.8946 89.3781C24.7374 89.3965 24.6509 89.3369 24.6347 89.1994C24.6163 89.0424 24.6858 88.9545 24.8428 88.9362C24.9271 88.9196 24.9961 88.8984 25.0494 88.8722C25.1028 88.8461 25.1484 88.7975 25.1867 88.7267C25.2233 88.6428 25.2339 88.5353 25.2187 88.4045L25.1351 87.9463L25.0488 87.3791C25.0221 87.15 25.0237 86.9938 25.0538 86.9107C25.0269 86.7943 25.0103 86.71 25.0042 86.6577C24.9681 86.3498 25.0243 86.0912 25.1721 85.8814C25.3202 85.6715 25.5513 85.5484 25.8656 85.5116C26.0685 85.4878 26.2532 85.5059 26.4195 85.5661C26.523 85.6005 26.5786 85.6505 26.5863 85.7159C26.594 85.7813 26.5725 85.8386 26.5217 85.8878C26.4711 85.9368 26.4098 85.9656 26.3378 85.974C26.292 85.9794 26.2083 85.9725 26.0866 85.9536C25.9649 85.9346 25.8811 85.9279 25.8353 85.9331C25.5276 85.9692 25.4209 86.3898 25.5151 87.1951C25.5327 87.3457 25.5569 87.4954 25.5875 87.6445L25.6728 88.2019C25.7218 88.621 25.6962 88.9127 25.596 89.077C25.7241 89.208 25.807 89.4339 25.8445 89.7547L26.0917 91.866C26.1452 92.3243 26.316 92.5366 26.6042 92.5029C26.6762 92.4944 26.772 92.4633 26.8918 92.4095C27.0321 92.3599 27.1284 92.332 27.1807 92.3259C27.2003 92.3236 27.2214 92.3477 27.2439 92.3982C27.2663 92.4486 27.28 92.4934 27.2845 92.5328C27.2929 92.6048 27.264 92.6695 27.1977 92.7271C27.1316 92.7847 27.0538 92.8286 26.9643 92.859C26.8611 92.8842 26.7833 92.9 26.731 92.9062Z" fill="black"/>
<path d="M30.3256 92.6547C30.1031 92.6807 29.9833 92.6217 29.9664 92.4776C29.9182 92.0653 29.9083 91.5553 29.9368 90.9482C29.9549 90.309 29.9506 89.8184 29.9238 89.4764C29.7259 89.4863 29.4993 89.5061 29.2439 89.536L29.0106 89.5833C29.0039 89.6968 29.01 89.862 29.0287 90.0788C29.0645 90.8378 29.0808 91.4034 29.0779 91.7753C29.0805 92.0804 29.0597 92.3283 29.0157 92.5192C28.9781 92.7095 28.9201 92.8091 28.8416 92.8184C28.7696 92.8269 28.7035 92.8147 28.6433 92.7818C28.5829 92.7491 28.5494 92.7033 28.5425 92.6444C28.4521 91.8717 28.4521 90.8797 28.5427 89.6679L28.2503 89.722C27.9819 89.7534 27.8354 89.6644 27.8109 89.4549C27.794 89.3108 27.9394 89.2208 28.2472 89.1848L28.4141 89.1653L28.5418 89.1503C28.5608 88.8031 28.5601 88.3717 28.5396 87.8565L28.2965 87.9048C27.9888 87.9409 27.8238 87.8639 27.8016 87.674L27.7959 87.6249L27.9247 87.4506L28.072 87.4334L28.2193 87.4161C28.3569 87.4001 28.4579 87.3848 28.5226 87.3707L28.5398 86.7515C28.5606 86.1916 28.5507 85.7382 28.51 85.3911L28.4996 85.3029L28.4893 85.2145C28.4755 85.0965 28.4816 85.0063 28.5073 84.9436C28.5332 84.8808 28.5952 84.8437 28.6935 84.8322L28.772 84.8231L28.9065 85.0362C28.9363 85.2915 28.9505 85.6681 28.9491 86.1661C28.9476 86.664 28.9607 87.0308 28.9883 87.2665C29.029 87.2749 29.1182 87.2711 29.2557 87.255L29.4226 87.2355C29.6191 87.2126 29.7582 87.1829 29.8404 87.1468C29.8728 86.8576 29.8974 86.3304 29.9141 85.5653C29.9166 85.3593 29.9246 85.1162 29.9382 84.8358C29.9987 84.7291 30.0748 84.6705 30.1665 84.6598C30.2188 84.6537 30.2737 84.6688 30.3311 84.7053C30.3884 84.7416 30.4198 84.7828 30.4252 84.8286C30.4535 85.0708 30.4412 85.4473 30.3881 85.9579C30.3311 86.4357 30.3115 86.8063 30.3291 87.0698L30.6433 87.033L30.8759 87.2347C30.8705 87.3017 30.8634 87.3539 30.8545 87.3914C30.8457 87.4291 30.823 87.4632 30.7868 87.4939C30.7449 87.532 30.701 87.5538 30.655 87.5592L30.3288 87.5774C30.303 87.9254 30.3132 88.3523 30.3591 88.858L30.4083 88.8522L30.4573 88.8466C30.7322 88.8143 30.8813 88.8964 30.9043 89.0929C30.9234 89.2566 30.8086 89.353 30.5598 89.3821L30.5304 89.3855L30.3917 89.3918C30.3948 89.5308 30.3959 89.8524 30.3952 90.357C30.3904 91.28 30.4148 91.9706 30.4685 92.4289L30.3256 92.6547ZM29.1102 89.0738C29.4441 89.0348 29.6918 88.9959 29.853 88.9571C29.8789 88.3833 29.8822 87.9582 29.863 87.6818C29.716 87.6723 29.5606 87.6772 29.3969 87.6964C29.2268 87.7164 29.0904 87.7422 28.9879 87.7741C28.9419 88.118 28.9398 88.553 28.9813 89.079C29.0018 89.0833 29.0447 89.0815 29.1102 89.0738Z" fill="black"/>
<path d="M34.1876 91.8047C33.965 91.8307 33.7905 91.3036 33.664 90.2235L33.6083 89.6625L33.5653 89.2097L33.5619 89.1802L33.5504 89.0821C33.5507 89.0289 33.5468 88.9663 33.5384 88.8944C33.5368 88.8811 33.5251 88.866 33.5032 88.8487C33.4812 88.8313 33.4694 88.8161 33.468 88.8031L33.4668 88.7932C33.4356 88.81 33.3774 88.8236 33.2923 88.8334C33.2071 88.8435 33.101 88.8426 32.9735 88.831C32.9335 88.8291 32.8268 88.8249 32.6535 88.8186L32.7856 89.9479C32.8055 90.1182 32.8468 90.3855 32.9094 90.7498C32.9712 91.1077 33.0123 91.3749 33.0331 91.5516C33.0446 91.6498 33.0283 91.738 32.9844 91.8162C32.9405 91.8943 32.8759 91.9383 32.7907 91.9484C32.6664 91.9629 32.5639 91.8521 32.483 91.616C32.4016 91.3733 32.3375 91.0523 32.2908 90.653L32.2174 89.8552C32.1978 89.6318 32.1735 89.3959 32.1444 89.1471L32.1249 88.9802L32.1088 88.8426C32.0966 88.7379 32.0852 88.6694 32.0748 88.6376L32.0691 88.5885L32.0319 88.0154C32.0028 87.7667 31.9497 87.3979 31.8725 86.9092C31.7954 86.4205 31.7424 86.0517 31.7133 85.8029C31.704 85.7244 31.7222 85.6525 31.7677 85.5875C31.8132 85.5226 31.8751 85.4853 31.9538 85.4762C32.1632 85.4516 32.291 85.6358 32.3369 86.0286L32.4598 87.2486C32.4896 87.6168 32.5309 88.0266 32.5838 88.4784C32.6859 88.4996 32.8646 88.4954 33.1199 88.4654L33.4832 88.423C33.4917 88.3821 33.4936 88.3421 33.4891 88.3027C33.4523 87.9885 33.3783 87.526 33.2669 86.9152C33.1536 86.3445 33.076 85.8791 33.0338 85.5191C33.0254 85.4469 33.0462 85.3831 33.0961 85.3276C33.1459 85.2719 33.2102 85.2396 33.2887 85.2303C33.3345 85.2249 33.402 85.2337 33.491 85.2565L33.5839 85.2854C33.6926 86.2151 33.8706 87.4519 34.1176 88.9957L34.4968 91.4698C34.5074 91.5616 34.4816 91.6376 34.4189 91.698C34.3564 91.7585 34.2792 91.7939 34.1876 91.8047Z" fill="black"/>
<path d="M36.1763 91.7012C36.0912 91.7111 36.0108 91.6906 35.9352 91.6397C35.8594 91.5889 35.8135 91.5213 35.7969 91.4368L35.7671 91.1815L35.744 90.9852C35.7306 90.9271 35.7193 90.8587 35.7101 90.7801C35.694 90.6427 35.6597 90.4343 35.607 90.155L35.514 89.5289C35.4763 89.208 35.4302 88.7291 35.3756 88.0916C35.3351 87.519 35.2922 87.0397 35.247 86.6533C35.2364 86.5617 35.2104 86.4253 35.1694 86.2443C35.1275 86.0568 35.1016 85.9205 35.0916 85.8353C35.0372 85.3705 35.1476 85.122 35.4225 85.0899C35.6384 85.0646 35.8939 85.0778 36.1886 85.1295C36.4834 85.1813 36.6376 85.2662 36.6514 85.384C36.6591 85.4494 36.6383 85.5133 36.5892 85.5755C36.5401 85.6376 36.4781 85.6896 36.4034 85.7316C36.117 85.6656 35.8606 85.6293 35.6341 85.6226C35.6521 85.72 35.6719 85.8603 35.6934 86.0437C35.7241 86.3055 35.7484 86.5415 35.7662 86.7519C35.7834 87.0685 35.8011 87.3052 35.8196 87.4623L35.8674 87.616L36.0235 87.5878C36.0749 87.5752 36.1401 87.5643 36.2186 87.555C36.5329 87.5182 36.7007 87.5915 36.7223 87.7748C36.7307 87.8468 36.7083 87.9109 36.6551 87.9669C36.6019 88.0229 36.5295 88.0562 36.4378 88.0669C36.3199 88.0807 36.2276 88.0849 36.1606 88.0794L35.915 88.1082C35.9481 88.2769 35.9838 88.5249 36.022 88.8522C36.0604 89.1795 36.0915 89.4745 36.1156 89.7371C36.1427 90.1389 36.1678 90.4378 36.1908 90.6342C36.2337 91.0009 36.2616 91.1834 36.2747 91.182L36.5976 91.1341C36.7083 91.1146 36.8421 91.0956 36.9992 91.0773C37.248 91.048 37.3815 91.1122 37.4 91.2692C37.4106 91.3609 37.378 91.4361 37.3018 91.4947C37.2258 91.5535 37.1288 91.5897 37.011 91.6035L36.1763 91.7012Z" fill="black"/>
<path d="M40.0285 91.2802C39.7836 91.2292 39.4877 91.2239 39.1406 91.2647C39.0435 91.3423 38.9361 91.3881 38.8183 91.4019C38.7398 91.4111 38.6685 91.3846 38.6048 91.3224C38.5412 91.2601 38.5048 91.1898 38.4955 91.1111C38.4312 90.5612 38.3683 89.8253 38.3069 88.9034C38.232 87.9234 38.1662 87.1911 38.1095 86.7067L38.1015 86.6379C38.0139 86.23 37.9582 85.9246 37.9345 85.7217C37.8617 85.0997 37.9399 84.7753 38.1691 84.7486C38.2345 84.7409 38.2947 84.7587 38.3495 84.8021C38.4043 84.8454 38.4356 84.8998 38.4433 84.9654C38.4525 85.0439 38.4573 85.1694 38.4576 85.3419C38.457 85.5078 38.4618 85.6335 38.4717 85.7185C38.523 86.1572 38.5727 86.5528 38.6205 86.9056C38.6678 87.2518 38.7169 87.6442 38.7683 88.0829C38.747 88.1849 38.7468 88.3244 38.7675 88.501L38.7812 88.619L38.8525 89.397C38.8661 89.6277 38.8903 89.8903 38.9247 90.1849C38.9776 90.6367 39.112 90.8498 39.3281 90.8245C39.3412 90.8231 39.3622 90.819 39.3913 90.8122C39.4204 90.8055 39.4611 90.7991 39.5134 90.793C39.5716 90.7795 39.6466 90.7674 39.7382 90.7566C40.0917 90.7153 40.28 90.7928 40.303 90.9893C40.3107 91.0547 40.2877 91.1137 40.2342 91.1665C40.1805 91.2193 40.1121 91.2571 40.0285 91.2802Z" fill="black"/>
<path d="M42.6607 90.9721C42.4159 90.9212 42.12 90.9159 41.773 90.9565C41.6759 91.0343 41.5685 91.0801 41.4506 91.0939C41.372 91.1031 41.3009 91.0765 41.2372 91.0142C41.1736 90.952 41.1371 90.8816 41.1279 90.8031C41.0635 90.2532 41.0007 89.5172 40.9392 88.5954C40.8643 87.6152 40.7986 86.883 40.7419 86.3985L40.7337 86.3299C40.6462 85.922 40.5907 85.6166 40.5668 85.4136C40.4941 84.7917 40.5722 84.4673 40.8013 84.4404C40.8668 84.4329 40.927 84.4506 40.9818 84.4941C41.0367 84.5374 41.068 84.5918 41.0756 84.6572C41.0849 84.7359 41.0895 84.8613 41.0898 85.0339C41.0894 85.1998 41.094 85.3253 41.1041 85.4105C41.1554 85.849 41.205 86.2448 41.253 86.5976C41.3001 86.9438 41.3494 87.3362 41.4007 87.7749C41.3795 87.8769 41.3792 88.0162 41.3998 88.193L41.4136 88.3108L41.4847 89.089C41.4985 89.3196 41.5225 89.5823 41.557 89.8769C41.6099 90.3287 41.7444 90.5418 41.9605 90.5165C41.9736 90.5151 41.9946 90.5108 42.0237 90.5042C42.0528 90.4975 42.0935 90.4911 42.1459 90.4848C42.204 90.4714 42.2789 90.4594 42.3705 90.4486C42.7241 90.4073 42.9124 90.4848 42.9354 90.6811C42.9429 90.7467 42.9201 90.8057 42.8665 90.8585C42.8129 90.9111 42.7443 90.9491 42.6607 90.9721Z" fill="black"/>
<path d="M44.9328 90.7359C44.7625 90.7559 44.5991 90.7202 44.4423 90.6291C44.2857 90.5379 44.1508 90.406 44.0377 90.2334C43.8011 89.8564 43.6323 89.4348 43.5314 88.9688C43.4203 88.5305 43.3406 88.1051 43.2924 87.6927C43.2832 87.6141 43.2788 87.5482 43.2793 87.4951L43.2586 87.3183C43.2547 87.2856 43.2495 87.2696 43.2429 87.2705L43.2223 87.0937L43.1516 86.4051C43.1337 86.1948 43.1208 85.8579 43.1131 85.3942C43.109 85.0761 43.1487 84.7629 43.232 84.4545C43.2625 84.3183 43.3098 84.2116 43.3736 84.1344C43.4376 84.0571 43.5155 84.0132 43.6071 84.0025C43.869 83.9718 44.1102 83.9917 44.3308 84.0621C44.5515 84.1326 44.7437 84.2444 44.9077 84.3978C45.0578 84.5461 45.1926 84.7344 45.3122 84.9627C45.4319 85.1908 45.527 85.4368 45.5977 85.7007C45.6692 85.971 45.7229 86.2601 45.7589 86.5678L45.7681 86.6464C45.7919 86.8494 45.8166 87.0323 45.8422 87.1952L45.9177 87.7538C46.1383 89.6392 45.81 90.6333 44.9328 90.7359ZM44.8452 90.3281C44.963 90.3143 45.0655 90.2542 45.1526 90.1478C45.2397 90.0414 45.2997 89.9032 45.333 89.7336C45.4184 89.385 45.4515 89.0162 45.4325 88.6268C45.4261 88.2892 45.4088 87.9991 45.3804 87.7568C45.346 87.4623 45.2778 87.0787 45.1762 86.6062C45.0779 86.1067 45.0142 85.7326 44.985 85.4838L44.9643 85.307C44.9221 85.0597 44.8134 84.8535 44.638 84.6882C44.4628 84.5229 44.2638 84.4532 44.0412 84.4792C43.8186 84.5053 43.6862 84.6502 43.6441 84.914C43.6024 85.1245 43.6003 85.3903 43.6378 85.7111C43.6524 85.8355 43.6679 85.9398 43.6845 86.0241L43.7155 86.2893L43.7488 86.7434C43.7517 86.8824 43.7627 87.0338 43.7819 87.1973C43.8234 87.551 43.8741 87.9001 43.9344 88.2447C44.0181 88.7326 44.1395 89.2028 44.2985 89.6555C44.4601 90.1276 44.6422 90.3519 44.8452 90.3281Z" fill="black"/>
<path d="M47.7461 90.4467C47.5367 90.4713 47.3523 90.4563 47.1934 90.4019C47.0899 90.3676 47.0338 90.3144 47.0255 90.2424C47.0178 90.1768 47.0394 90.1213 47.0905 90.0755C47.1415 90.0297 47.203 90.0025 47.2751 89.9941C47.3471 89.9856 47.4272 89.9896 47.5153 90.0058C47.637 90.0247 47.7208 90.0316 47.7666 90.0262C48.0809 89.9894 48.1913 89.5717 48.0978 88.773L48.0161 88.2449C47.9643 87.9723 47.9291 87.7574 47.9108 87.6004C47.8572 87.1421 47.8829 86.8238 47.9882 86.6455C47.8527 86.5087 47.7666 86.2832 47.7298 85.969L47.692 85.4756C47.6779 85.1853 47.6597 84.9452 47.6376 84.7553C47.5318 83.852 47.3186 83.4189 46.9977 83.4565C46.9388 83.4634 46.8462 83.4941 46.7198 83.5488C46.6 83.6026 46.5042 83.6337 46.4322 83.6421C46.4125 83.6445 46.3915 83.6203 46.369 83.5699C46.3465 83.5194 46.3325 83.4713 46.3271 83.4255C46.3187 83.3535 46.3475 83.2871 46.4133 83.2263C46.4792 83.1655 46.5573 83.1232 46.6474 83.0994C46.7505 83.0739 46.8285 83.0582 46.8808 83.0521C47.2343 83.0107 47.4944 83.0781 47.661 83.2545C47.8276 83.4307 47.9376 83.7182 47.9909 84.1167L48.2 85.904C48.2138 86.0219 48.2398 86.1167 48.2781 86.1885C48.3163 86.2604 48.3629 86.3031 48.4175 86.3166C48.508 86.3524 48.6089 86.3639 48.7202 86.3508C48.8249 86.3386 48.885 86.3979 48.9003 86.5289C48.9187 86.6859 48.8559 86.7729 48.7118 86.7898C48.6275 86.8063 48.5618 86.8257 48.5145 86.8478C48.4674 86.8699 48.428 86.916 48.3963 86.986C48.3597 87.0699 48.3495 87.1806 48.3655 87.3181L48.446 87.8363C48.4814 88.0246 48.5148 88.2531 48.5462 88.5215C48.5791 88.803 48.583 88.9783 48.558 89.0477C48.5833 89.1509 48.6001 89.2384 48.6086 89.3104C48.6446 89.6182 48.5868 89.8754 48.4351 90.0823C48.2835 90.2892 48.0539 90.4106 47.7461 90.4467Z" fill="black"/>
<path d="M31 58.3233C31 58.3233 35.4603 58.4855 40.0586 58.4714C44.657 58.4575 50 56.7922 50 56.7922C50 56.7922 46.2541 60.7957 46.2037 60.7922" fill="black"/>
<path d="M31 58.3233C31 58.3233 35.4603 58.4855 40.0586 58.4714C44.657 58.4575 50 56.7922 50 56.7922C50 56.7922 46.2541 60.7957 46.2037 60.7922" stroke="black" stroke-miterlimit="10" stroke-linejoin="round"/>
</svg>
