<svg width="50" height="49" viewBox="0 0 50 49" fill="none" xmlns="http://www.w3.org/2000/svg">
<path d="M12.1708 2V11.2313M37.0501 2V11.2313M47.0645 16.8306V42.2544C47.0645 45.8864 46.2821 46.7944 42.6832 46.7944H6.06832C2.46942 46.7944 2 45.5838 2 42.2544V10.626C2 7.75064 2.31295 6.53998 6.06832 6.53998H42.6832C44.7173 6.53998 47.0645 6.69131 47.0645 11.2313V16.8306ZM47.0645 16.8306H2" stroke="black" stroke-width="4" stroke-linecap="round"/>
<path d="M18.2736 24.6998C19.3124 24.6998 20.9337 24.6998 20.9337 24.6998M28.2879 24.6998H30.948M38.3022 24.6998H40.9623M8.25928 24.6998H10.9193M18.2736 31.2071H20.9337M28.2879 31.2071H30.948M38.3022 31.2071H40.9623M8.25928 31.2071H10.9193M18.2736 37.5631H20.9337M28.2879 37.5631H30.948M38.3022 37.5631H40.9623M8.25928 37.5631H10.9193" stroke="black" stroke-width="4" stroke-linecap="square"/>
</svg>
