<svg width="59" height="107" viewBox="0 0 59 107" fill="none" xmlns="http://www.w3.org/2000/svg">
<path d="M29.891 0.00212714C25.1255 -0.0234116 20.3289 0.163299 15.7309 1.53724C15.459 1.62612 15.1951 1.71329 14.9312 1.79954C12.6474 2.53394 10.4903 3.43315 8.34783 4.51286C8.02736 4.67975 7.71721 4.8411 7.40609 5.00307C5.89152 5.79094 4.48139 6.62351 3.11047 7.64329C1.35399 9.99688 1.07219 13.0275 0.840053 15.8907C0.81446 16.2733 0.791616 16.646 0.766848 17.0173C0.186447 25.1042 0.0785674 33.2371 0.0229766 41.3426C0.0217382 41.6944 0.0199486 42.0333 0.0187102 42.3747C0.00481246 44.8352 -0.181224 47.5705 0.999117 49.7835C2.13584 50.7782 3.18064 51.1277 4.61541 51.5466C4.84782 51.6077 5.07348 51.6635 5.29915 51.7228C5.318 52.09 5.33671 52.4459 5.35501 52.8022C5.38377 53.2854 5.41308 53.7565 5.44101 54.2255C5.51435 55.5321 5.6126 56.7282 5.95275 57.9924C7.01118 59.8791 7.0098 59.8775 11.5169 61.5872C11.819 61.6666 12.114 61.7465 12.4071 61.8236C12.2799 62.0779 12.1564 62.3207 12.0329 62.5676C10.0801 65.4243 8.56111 68.2947 7.41903 71.5632C7.3344 71.8108 7.25171 72.0539 7.1697 72.2942C5.3846 77.4892 4.09225 85.6214 6.46875 90.78C6.7174 91.1584 6.71534 91.1573 6.95889 91.5282C7.44834 92.2981 7.44889 92.2987 7.91783 92.8613C8.17212 92.8613 8.41925 92.8613 8.66611 92.8613C8.11034 94.7432 7.61181 96.6339 7.1525 98.5416C7.06347 98.9146 6.97637 99.2761 6.89009 99.6381C6.74919 100.196 6.74877 100.196 6.61062 100.743C6.48307 101.284 6.48197 101.284 6.35689 101.814C5.98468 103.342 6.1114 104.156 6.79556 105.576C14.3442 106.93 14.3441 106.93 29.9813 106.699C30.2356 106.19 30.4827 105.696 30.7295 105.202C35.3582 105.922 40.0412 106.766 44.7347 106.819C47.0459 106.802 50.7189 107.276 52.4188 105.576C53.0782 102.752 53.0791 102.753 50.4667 97.8493C49.7854 96.5707 49.1398 95.3426 48.7208 93.9535C48.6038 93.0952 48.603 93.0959 49.4518 92.0185C49.8352 91.5651 50.1979 91.0961 50.5484 90.6167C53.6024 84.0443 52.218 75.8521 49.942 69.2326C49.3579 67.627 48.9136 66.1331 48.6821 64.438C49.5772 64.2001 50.4679 63.9608 51.3611 63.7156C51.7366 63.6124 52.1018 63.5106 52.4661 63.4104C54.7438 62.8055 57.05 62.3752 58.7786 60.7013C59.0108 59.3779 59.0103 59.3768 58.9936 58.6244C58.9759 58.3607 58.9591 58.1022 58.942 57.8461C58.8959 56.2161 58.7702 54.6048 58.6023 52.9827C58.2703 49.3184 58.2726 49.3187 58.0304 45.6469C57.9986 45.1692 57.9667 44.7045 57.9358 44.2408C57.904 43.7789 57.8721 43.3303 57.8412 42.882C57.7089 40.9066 57.5198 39.0319 56.9382 37.1329C56.7974 36.7312 56.6579 36.3402 56.5211 35.9503C56.2149 35.0602 55.9101 34.1735 55.6008 33.2843C54.7105 30.7499 52.6292 26.7139 53.898 24.0565C55.0046 21.9373 54.7138 19.5676 54.1475 17.3313C54.0194 16.8678 54.0194 16.8695 53.8937 16.4153C53.718 15.7545 53.5383 15.0933 53.3605 14.433C53.0747 13.408 52.7936 12.3843 52.5264 11.3542C52.3512 10.6764 52.1729 10 51.9888 9.32456C51.8977 8.99405 51.8065 8.67371 51.718 8.35283C51.4173 7.17158 51.1109 6.06221 50.5484 4.97727C48.8032 3.03103 46.9825 2.24019 44.4853 1.56734C44.0041 1.45559 43.5378 1.34901 43.0706 1.24054C38.9636 0.269004 34.8824 0.0183228 30.6736 0.00212714C30.4062 0.00156297 30.1504 0.0026913 29.891 0.00212714ZM29.8093 1.52004C30.0834 1.52043 30.3473 1.51967 30.6134 1.52004C36.3756 1.52569 42.2926 1.82579 47.6588 4.13446C48.835 4.9875 49.3368 6.19243 49.7786 7.54868C49.8783 7.94745 49.9745 8.33549 50.071 8.72256C50.1837 9.1666 50.2927 9.59454 50.4021 10.0255C50.6231 10.921 50.8478 11.8186 51.0729 12.713C51.1856 13.1601 51.2946 13.595 51.404 14.0289C51.9018 16.0161 52.425 17.9922 52.9692 19.9672C53.037 20.2111 53.1012 20.4485 53.1671 20.6853C51.0183 19.7345 48.9581 19.0503 46.6482 18.5825C45.8266 18.4292 45.0062 18.2591 44.1929 18.0665C43.6264 17.6889 43.626 17.6886 43.0706 17.3184C42.1539 17.8869 41.5486 18.0713 40.4605 18.1482C39.8042 18.1386 39.8009 18.1362 39.1575 18.1268C38.4234 18.1204 37.69 18.1166 36.9559 18.1053C33.7648 18.0526 30.622 18.0233 27.4442 18.3245C26.1515 18.472 25.452 18.7007 24.4127 17.886C24.2714 17.6928 24.1371 17.5059 23.9999 17.3184C23.9999 17.6998 23.9999 18.0705 23.9999 18.4406C23.1948 18.6571 22.389 18.8754 21.5834 19.09C21.2446 19.1801 20.9145 19.2649 20.5858 19.3522C20.256 19.441 19.9384 19.5285 19.6182 19.6145C19.2954 19.7002 18.9814 19.7809 18.6679 19.864C17.3201 20.2241 16.0441 20.4532 14.6517 20.6853C13.7616 15.8536 12.8968 11.1632 12.0329 6.47368C10.378 7.30118 8.87347 8.07934 7.1697 8.71829C7.05329 7.62304 7.05356 7.62174 7.6169 7.03268C13.6042 2.06914 22.3851 1.52716 29.8093 1.52004ZM6.42142 7.59598C6.29428 8.10458 6.17071 8.59872 6.04728 9.09243C4.72535 9.28122 4.72865 9.28136 3.43287 9.46643C3.56001 9.21214 3.67931 8.96515 3.80274 8.71829C4.70058 8.11967 5.32419 7.59598 6.42142 7.59598ZM32.8021 23.2524C33.1456 23.2518 33.475 23.2528 33.8083 23.2524C34.1677 23.2539 34.5173 23.2553 34.8661 23.2567C35.2269 23.2551 35.578 23.2538 35.9283 23.2524C36.4377 23.2531 36.4395 23.2517 36.9387 23.2524C37.4877 23.2531 38.0378 23.2671 38.5856 23.304C40.4333 26.3147 40.4296 26.314 41.5311 29.8142C41.6445 30.132 41.7565 30.4389 41.8666 30.7474C42.0902 31.3736 42.3116 32.0037 42.5331 32.6307C43.1255 34.3796 43.7 35.947 44.7906 37.451C45.6508 38.5239 45.649 38.5233 46.0677 39.3345C46.6302 40.5675 46.8786 41.0515 46.4376 42.3747C43.5426 42.8659 40.7149 43.173 37.7772 43.1959C37.432 43.1957 37.0976 43.1919 36.7624 43.1916C35.6206 43.1924 34.4898 43.1715 33.3483 43.1228C32.6999 41.9093 32.6989 41.9108 32.6172 40.4568C32.1849 37.3189 31.6654 34.2127 31.0348 31.1086C30.4979 28.5914 30.2661 26.2548 30.3554 23.6781C31.0785 23.2557 31.0787 23.2567 31.8691 23.2567C32.3388 23.2561 32.3416 23.2531 32.8021 23.2524ZM40.8259 24.4263C43.9821 24.5912 47.177 24.8792 50.1785 25.9227C51.7929 26.8746 52.3005 27.7752 52.78 29.5778C53.2192 31.3931 53.6434 33.1928 54.4356 34.8882C55.8819 37.7063 55.9971 40.2813 56.0696 43.3895C56.128 46.1661 56.3019 48.9099 56.5555 51.6755C56.7915 54.1944 56.9873 56.6735 56.908 59.2049C55.0123 60.2636 55.0108 60.2642 52.7929 60.7013C51.9197 60.8217 51.0505 60.9462 50.1785 61.0754C47.6724 62.0948 45.4794 62.4281 42.7825 62.5632C42.3822 62.8669 42.6216 61.712 42.17 61.5683C42.1686 61.5679 41.425 62.7916 41.4237 62.7912C41.3899 62.7938 40.5159 61.7008 40.4814 61.7008C40.3156 61.7008 41.0032 62.7631 40.8561 62.7095C40.8449 62.7784 40.8409 62.9082 40.8259 62.9416C38.8596 62.9703 36.9292 63.0331 34.9823 62.7309C34.5337 62.6484 34.536 62.6485 34.0964 62.5676C33.3304 63.0262 33.3313 63.0286 32.2947 62.8987C31.8746 62.8585 31.4641 62.8173 31.0563 62.7783C30.3238 62.7101 29.5911 62.6404 28.859 62.5676C28.5764 61.1515 28.0633 60.5498 26.9885 59.579C27.5877 60.871 27.5882 60.8677 28.1108 62.1935C27.6022 62.1935 27.1123 62.1935 26.6186 62.1935C26.4915 61.5577 26.3679 60.9443 26.2446 60.3272C26.1175 60.963 25.9939 61.5765 25.8705 62.1935C24.776 62.1935 23.782 62.0395 22.7099 61.8322C22.4492 61.7807 22.1934 61.7318 21.9402 61.6817C20.4599 61.4054 19.2943 61.1804 18.0143 60.3272C17.8448 59.5819 17.6852 58.8305 17.5758 58.074C17.5348 57.7554 17.4951 57.4459 17.4554 57.1366C17.3125 56.1324 17.1698 55.1316 17.0339 54.1266C16.851 52.7646 16.6614 51.4025 16.4706 50.0415C16.4229 49.7052 16.3793 49.3791 16.333 49.0526C16.0385 46.9609 15.7032 44.919 15.1633 42.8735C14.892 41.8823 14.6563 40.9486 14.5356 39.9278C14.3749 37.8388 14.0054 35.9585 13.4261 33.9422C13.2098 33.2129 12.993 32.4829 12.7769 31.7535C12.673 31.3922 12.5723 31.0421 12.4716 30.6914C12.0964 29.4283 11.9795 29.0715 12.4071 27.789C13.0732 27.6922 13.7397 27.5966 14.4065 27.5051C14.8253 27.448 14.8218 27.4494 15.2321 27.3934C16.8232 27.159 18.2393 27.0279 19.8504 27.1698C21.018 27.4174 21.4319 27.5933 22.1294 28.5371C20.326 28.7626 18.7964 29.4537 17.2662 30.4076C15.9423 31.6975 15.5658 32.6922 15.3956 34.5227C15.6499 34.6499 15.897 34.7734 16.1438 34.8969C17.8987 33.233 19.4191 31.8651 21.7554 31.1558C23.4316 30.9568 25.2465 30.8547 26.6186 31.904C27.4257 34.2782 27.4393 36.7597 27.4142 39.2398C27.3979 40.0774 27.3798 40.9179 27.3669 41.7554C27.3622 42.1689 27.3586 42.5667 27.354 42.968C27.3186 44.8749 27.7723 46.2284 28.4849 47.9862C28.7392 47.9862 28.9863 47.9862 29.233 47.9862C32.6059 49.7432 32.6051 49.7415 39.824 49.504C39.9395 49.4998 40.0509 49.4948 40.1638 49.4911C40.3633 49.3501 40.6535 51.8288 40.8346 49.246C40.8317 49.2002 40.8285 49.1544 40.8259 49.1084C42.8499 48.3892 44.7557 47.758 46.3429 46.2791C47.1421 44.0813 47.1792 41.607 46.4376 39.3818C44.9475 37.1724 43.4083 34.9801 43.0706 32.2782C43.8464 31.6615 43.8471 31.661 44.9411 31.1558C46.7715 30.9458 47.881 31.046 49.5206 31.8826C50.4876 32.44 51.3231 32.796 52.4188 33.0263C52.4188 32.772 52.4188 32.525 52.4188 32.2782C51.9944 31.2967 51.4982 30.5873 50.7032 29.8702C48.6564 28.3937 46.6719 28.1566 44.1929 28.5371C43.2133 29.1901 42.6817 29.4303 41.5742 29.6594C41.4863 29.3346 41.4015 29.0201 41.3162 28.7048C41.2054 28.2827 41.0969 27.8719 40.9894 27.4622C40.6737 26.2753 40.2675 25.5433 40.8259 24.4263ZM47.1857 68.9272C47.5671 69.0545 47.9378 69.1779 48.308 69.3014C49.4699 72.3426 49.4695 72.3411 49.9464 75.5838C49.9932 75.9346 50.0386 76.2753 50.084 76.6158C50.5469 80.0514 51.4493 84.9696 49.4304 87.9979C49.2732 86.8514 49.1127 85.7041 48.953 84.5579C48.8841 84.0664 48.8178 83.5903 48.7509 83.1131C48.4035 80.6302 48.0802 78.1424 47.5684 75.687C47.0368 73.2727 46.6393 71.3611 47.1857 68.9272ZM45.4614 70.9224C45.7907 70.9363 46.1165 71.0115 46.4376 71.1719C46.4993 71.4474 46.5581 71.7128 46.6181 71.9803C46.6601 72.3465 46.702 72.7042 46.7428 73.0597C46.7906 73.4692 46.8383 73.8661 46.8848 74.2637C46.9317 74.7063 46.9767 75.1367 47.0224 75.5665C47.3375 78.4477 47.6226 81.3296 47.8049 84.2225C47.8334 84.7257 47.833 84.7224 47.8608 85.2159C48.022 87.7261 48.2906 90.827 46.5493 92.8483C45.17 93.6044 44.3299 93.9717 42.7223 94.0738C42.3329 94.042 41.952 94.0145 41.5742 93.9835C40.3158 94.6208 40.3183 94.6198 38.8135 94.6371C38.1796 94.6993 37.5426 94.7595 36.9087 94.8221C36.5999 94.8539 36.3009 94.8858 36.0014 94.9167C35.4892 94.9668 34.9794 95.029 34.4705 95.1058C32.9646 95.5256 32.9655 95.5226 31.3745 95.2693C29.1494 94.9048 26.1945 94.7801 24.7482 92.8613C24.7482 92.607 24.7482 92.3598 24.7482 92.113C24.5098 92.0937 24.2786 92.076 24.0473 92.0571C23.1613 91.8083 23.1596 91.8065 22.8303 90.8488C22.7191 90.444 22.6115 90.0506 22.5035 89.6578C22.3139 88.976 22.1233 88.2955 21.9446 87.611C21.8172 87.1201 21.6896 86.6299 21.5575 86.1403C20.603 82.6053 18.6418 77.706 19.8848 74.1605C20.7831 73.5435 21.392 73.4158 22.4863 73.3434C22.9233 73.3523 23.348 73.3606 23.7721 73.3693C24.2571 73.3759 24.7288 73.38 25.1997 73.3865C31.1674 73.4989 36.6706 73.2328 42.4643 71.6622C43.4563 71.3763 44.4733 70.881 45.4614 70.9224ZM30.9919 97.3118C31.2148 97.3158 31.4876 97.3265 31.8519 97.3462C31.8941 99.5063 31.9456 101.134 30.7295 102.958C30.4743 101.375 29.9809 99.9033 29.4653 98.3912C29.3863 98.1632 29.3097 97.9415 29.233 97.7202C30.1041 97.3808 30.323 97.2997 30.9919 97.3118ZM48.1532 99.092C48.4892 99.1037 48.8048 99.141 49.4304 99.2168C50.2027 100.25 50.2026 100.252 50.428 101.229C50.494 101.563 50.5573 101.886 50.6215 102.21C50.8808 103.463 50.9612 103.964 50.5484 105.202C49.7125 105.21 48.8774 105.215 48.0414 105.219C47.5254 105.222 47.5282 105.221 47.0224 105.224C46.6764 105.227 46.3389 105.229 46.0032 105.232C45.6742 105.234 45.3551 105.235 45.0357 105.237C44.5052 105.24 43.9741 105.235 43.4447 105.202C42.9812 104.814 42.9832 104.813 42.9545 103.973C42.9232 103.619 42.8902 103.279 42.8599 102.936C42.8276 102.582 42.7966 102.235 42.7653 101.891C42.7419 101.618 42.7192 101.353 42.6965 101.087C42.4422 101.087 42.195 101.087 41.9483 101.087C42.373 101.815 42.3752 101.815 42.3739 102.631C42.373 102.94 42.3706 103.242 42.3697 103.543C42.3706 103.853 42.3731 104.153 42.3739 104.454C42.4067 105.2 42.4046 105.202 41.9483 105.576C41.3817 105.199 41.3813 105.198 40.8259 104.828C40.9531 103.048 41.0766 101.318 41.2001 99.5908C42.5704 99.3703 43.8881 99.216 45.2765 99.1436C46.0164 99.1348 46.0132 99.135 46.7385 99.1264C47.4569 99.0973 47.8173 99.0803 48.1532 99.092ZM25.6598 99.4489C26.7215 99.4233 27.6168 99.4709 28.4849 100.339C29.3606 102.867 29.3609 102.868 29.233 105.576C28.61 105.592 27.9857 105.592 27.3626 105.576C27.2355 105.449 27.1119 105.326 26.9885 105.202C26.2642 105.185 25.5413 105.188 24.817 105.202C23.407 105.23 22.3906 105.174 21.0071 104.828C20.88 103.684 20.7564 102.572 20.633 101.461C20.5058 102.733 20.3823 103.968 20.259 105.202C19.6098 105.214 19.6096 105.212 18.9732 105.224C17.7099 105.356 17.709 105.358 17.2662 104.828C17.2129 103.42 17.1185 102.041 17.6402 100.713C18.2936 99.8497 18.6177 99.6143 19.7042 99.4532C20.0807 99.4544 20.4439 99.4563 20.8094 99.4576C21.2193 99.4577 21.6197 99.4572 22.0177 99.4576C22.4456 99.4638 22.858 99.4687 23.2733 99.4746C23.911 99.4728 23.9123 99.4723 24.5374 99.4704C24.9327 99.473 25.3058 99.4574 25.6598 99.4489Z" fill="black"/>
<path d="M25.297 87.923C24.9561 87.9627 24.7072 87.9008 24.5498 87.7371C24.3925 87.5735 24.2914 87.2995 24.2464 86.9153L24.0224 85.0009C24.0071 84.8709 23.9735 84.7711 23.9214 84.7019C23.8694 84.6325 23.8116 84.5954 23.7481 84.5903C23.7419 84.591 23.6789 84.5889 23.5591 84.5841C23.4103 84.6016 23.3285 84.5451 23.3132 84.415C23.2957 84.2664 23.3615 84.1833 23.5101 84.1659C23.5899 84.1502 23.6551 84.1301 23.7056 84.1054C23.7561 84.0806 23.7993 84.0347 23.8355 83.9676C23.8702 83.8882 23.8802 83.7866 23.8658 83.6627L23.7867 83.2291L23.7051 82.6924C23.6797 82.4755 23.6813 82.3277 23.7097 82.249C23.6843 82.1389 23.6686 82.0591 23.6628 82.0096C23.6287 81.7183 23.6818 81.4735 23.8218 81.2749C23.9618 81.0764 24.1806 80.9598 24.478 80.925C24.6701 80.9024 24.8448 80.9196 25.0022 80.9766C25.1002 81.0091 25.1528 81.0564 25.1601 81.1183C25.1673 81.1803 25.147 81.2345 25.099 81.281C25.0511 81.3274 24.993 81.3546 24.9249 81.3626C24.8816 81.3677 24.8023 81.3612 24.6871 81.3433C24.572 81.3253 24.4927 81.319 24.4494 81.3239C24.1582 81.358 24.0572 81.7561 24.1463 82.5182C24.163 82.6607 24.1858 82.8024 24.2149 82.9435L24.2955 83.471C24.3419 83.8676 24.3177 84.1436 24.2229 84.2991C24.3441 84.4231 24.4225 84.6369 24.458 84.9405L24.6919 86.9386C24.7426 87.3723 24.9043 87.5732 25.177 87.5413C25.2451 87.5333 25.3358 87.5038 25.4492 87.4529C25.5819 87.406 25.673 87.3796 25.7226 87.3738C25.7411 87.3716 25.7611 87.3945 25.7824 87.4422C25.8036 87.4899 25.8166 87.5323 25.8208 87.5696C25.8288 87.6377 25.8014 87.699 25.7387 87.7535C25.6761 87.8079 25.6024 87.8495 25.5178 87.8783C25.4201 87.9022 25.3465 87.9171 25.297 87.923Z" fill="black"/>
<path d="M28.6982 87.6852C28.4877 87.7098 28.3743 87.6539 28.3584 87.5176C28.3127 87.1273 28.3033 86.6448 28.3303 86.0701C28.3475 85.4653 28.3434 85.001 28.3181 84.6774C28.1308 84.6867 27.9163 84.7054 27.6746 84.7338L27.4538 84.7785C27.4474 84.886 27.4532 85.0423 27.471 85.2474C27.5048 85.9657 27.5202 86.501 27.5175 86.853C27.52 87.1417 27.5003 87.3763 27.4586 87.5569C27.4231 87.737 27.3682 87.8313 27.2939 87.8401C27.2258 87.8481 27.1632 87.8365 27.1062 87.8054C27.0491 87.7745 27.0173 87.7311 27.0108 87.6754C26.9253 86.9442 26.9253 86.0053 27.011 84.8586L26.7343 84.9098C26.4803 84.9395 26.3417 84.8553 26.3184 84.657C26.3025 84.5206 26.4401 84.4355 26.7314 84.4013L26.8893 84.3829L27.0102 84.3687C27.0282 84.0401 27.0275 83.6319 27.0081 83.1443L26.778 83.19C26.4869 83.2242 26.3307 83.1514 26.3096 82.9717L26.3043 82.9251L26.4262 82.7602L26.5656 82.7439L26.705 82.7275C26.8351 82.7124 26.9308 82.698 26.992 82.6846L27.0082 82.0986C27.0279 81.5687 27.0185 81.1396 26.98 80.8112L26.9702 80.7277L26.9605 80.644C26.9474 80.5324 26.9532 80.447 26.9775 80.3876C27.002 80.3282 27.0607 80.2931 27.1537 80.2822L27.228 80.2736L27.3553 80.4753C27.3835 80.7169 27.3969 81.0733 27.3956 81.5446C27.3942 82.0157 27.4066 82.3629 27.4327 82.586C27.4713 82.5939 27.5556 82.5904 27.6858 82.5751L27.8437 82.5566C28.0296 82.5349 28.1613 82.5068 28.2391 82.4727C28.2698 82.199 28.293 81.7001 28.3088 80.976C28.3112 80.781 28.3187 80.551 28.3317 80.2857C28.3889 80.1847 28.4609 80.1292 28.5477 80.119C28.5972 80.1133 28.6491 80.1276 28.7035 80.1621C28.7577 80.1965 28.7874 80.2355 28.7925 80.2788C28.8193 80.508 28.8076 80.8643 28.7574 81.3476C28.7035 81.7997 28.6849 82.1504 28.7015 82.3998L28.9989 82.365L29.2191 82.5558C29.214 82.6193 29.2072 82.6687 29.1988 82.7042C29.1904 82.7398 29.169 82.7721 29.1347 82.8012C29.0951 82.8372 29.0535 82.8579 29.01 82.8629L28.7013 82.8801C28.6769 83.2096 28.6865 83.6136 28.73 84.0921L28.7765 84.0866L28.8229 84.0813C29.0831 84.0507 29.2242 84.1285 29.2459 84.3144C29.2641 84.4693 29.1554 84.5605 28.9199 84.5881L28.8921 84.5914L28.7608 84.5973C28.7637 84.7288 28.7648 85.0332 28.7642 85.5107C28.7596 86.3842 28.7827 87.0378 28.8335 87.4715L28.6982 87.6852ZM27.548 84.2963C27.8641 84.2595 28.0984 84.2226 28.251 84.1858C28.2755 83.6429 28.2787 83.2405 28.2605 82.9789C28.1214 82.97 27.9743 82.9747 27.8194 82.9928C27.6584 83.0117 27.5293 83.0362 27.4323 83.0663C27.3888 83.3917 27.3868 83.8035 27.4261 84.3013C27.4455 84.3053 27.4861 84.3036 27.548 84.2963Z" fill="black"/>
<path d="M32.3536 86.8804C32.1429 86.9051 31.9778 86.4063 31.8581 85.384L31.8054 84.8532L31.7646 84.4247L31.7615 84.3968L31.7506 84.3039C31.7509 84.2535 31.7472 84.1943 31.7392 84.1262C31.7377 84.1137 31.7266 84.0994 31.7059 84.083C31.6851 84.0665 31.6739 84.0522 31.6726 84.0398L31.6715 84.0305C31.6419 84.0464 31.5868 84.0592 31.5063 84.0686C31.4257 84.0781 31.3253 84.0772 31.2046 84.0662C31.1667 84.0644 31.0658 84.0605 30.9017 84.0545L31.0268 85.1233C31.0457 85.2844 31.0847 85.5373 31.1439 85.8822C31.2024 86.2208 31.2413 86.4737 31.261 86.6409C31.2719 86.7339 31.2565 86.8173 31.2149 86.8913C31.1734 86.9652 31.1123 87.0069 31.0316 87.0164C30.914 87.0302 30.817 86.9253 30.7405 86.7018C30.6634 86.4722 30.6027 86.1684 30.5586 85.7905L30.4891 85.0355C30.4705 84.8241 30.4475 84.6008 30.42 84.3654L30.4016 84.2074L30.3863 84.0772C30.3747 83.9782 30.364 83.9134 30.3541 83.8832L30.3487 83.8367L30.3135 83.2944C30.286 83.059 30.2357 82.71 30.1627 82.2476C30.0897 81.7851 30.0395 81.436 30.012 81.2006C30.0032 81.1263 30.0204 81.0583 30.0635 80.9968C30.1065 80.9353 30.1652 80.9 30.2396 80.8914C30.4377 80.8681 30.5587 81.0425 30.6022 81.4141L30.7184 82.5687C30.7467 82.9171 30.7857 83.305 30.8358 83.7326C30.9324 83.7526 31.1015 83.7486 31.3432 83.7203L31.687 83.6801C31.695 83.6415 31.6968 83.6036 31.6925 83.5663C31.6577 83.269 31.5877 82.8313 31.4823 82.2532C31.3751 81.7131 31.3016 81.2727 31.2617 80.932C31.2537 80.8637 31.2734 80.8033 31.3206 80.7507C31.3678 80.698 31.4286 80.6675 31.5029 80.6587C31.5463 80.6536 31.6101 80.6619 31.6943 80.6835L31.7822 80.7108C31.8852 81.5907 32.0536 82.7611 32.2874 84.2221L32.6462 86.5636C32.6563 86.6504 32.6318 86.7224 32.5725 86.7795C32.5133 86.8367 32.4402 86.8703 32.3536 86.8804Z" fill="black"/>
<path d="M34.2357 86.7828C34.1552 86.7921 34.0791 86.7727 34.0076 86.7246C33.9359 86.6766 33.8924 86.6126 33.8767 86.5326L33.8485 86.291L33.8266 86.1052C33.814 86.0502 33.8032 85.9855 33.7946 85.9111C33.7793 85.7811 33.7468 85.5839 33.697 85.3195L33.6089 84.727C33.5733 84.4233 33.5297 83.9701 33.4779 83.3668C33.4397 82.825 33.3991 82.3713 33.3563 82.0057C33.3463 81.919 33.3216 81.7899 33.2828 81.6186C33.2432 81.4411 33.2187 81.3122 33.2092 81.2316C33.1578 80.7916 33.2622 80.5565 33.5224 80.5261C33.7267 80.5021 33.9685 80.5147 34.2474 80.5636C34.5263 80.6126 34.6723 80.693 34.6854 80.8044C34.6927 80.8664 34.673 80.9268 34.6265 80.9857C34.58 81.0444 34.5214 81.0937 34.4507 81.1334C34.1796 81.071 33.937 81.0366 33.7226 81.0302C33.7397 81.1224 33.7584 81.2552 33.7787 81.4287C33.8078 81.6766 33.8308 81.8999 33.8477 82.099C33.8639 82.3986 33.8807 82.6226 33.8982 82.7713L33.9435 82.9168L34.0911 82.8901C34.1398 82.8781 34.2015 82.8678 34.2758 82.859C34.5732 82.8242 34.732 82.8935 34.7524 83.067C34.7604 83.1351 34.7392 83.1958 34.6888 83.2488C34.6385 83.3018 34.57 83.3333 34.4833 83.3435C34.3717 83.3565 34.2843 83.3605 34.2209 83.3553L33.9885 83.3825C34.0198 83.5422 34.0535 83.7769 34.0897 84.0866C34.126 84.3964 34.1555 84.6756 34.1783 84.9241C34.2039 85.3043 34.2277 85.5872 34.2495 85.7731C34.2901 86.1201 34.3165 86.2928 34.3289 86.2914L34.6345 86.2461C34.7392 86.2277 34.8658 86.2097 35.0145 86.1923C35.25 86.1647 35.3763 86.2254 35.3938 86.374C35.4038 86.4608 35.373 86.5319 35.3009 86.5874C35.2289 86.643 35.1371 86.6773 35.0257 86.6903L34.2357 86.7828Z" fill="black"/>
<path d="M37.882 86.3843C37.6502 86.336 37.3702 86.331 37.0418 86.3695C36.9498 86.443 36.8482 86.4863 36.7367 86.4994C36.6624 86.5081 36.595 86.483 36.5347 86.4242C36.4744 86.3653 36.44 86.2987 36.4312 86.2242C36.3704 85.7038 36.3108 85.0074 36.2528 84.1349C36.1819 83.2075 36.1196 82.5145 36.0659 82.056L36.0583 81.9909C35.9755 81.605 35.9228 81.3159 35.9004 81.1239C35.8314 80.5352 35.9055 80.2283 36.1223 80.2029C36.1842 80.1956 36.2412 80.2126 36.2931 80.2536C36.3449 80.2946 36.3745 80.346 36.3818 80.4081C36.3905 80.4824 36.395 80.6012 36.3953 80.7645C36.3948 80.9215 36.3993 81.0404 36.4087 81.1209C36.4572 81.536 36.5043 81.9104 36.5496 82.2442C36.5943 82.5719 36.6408 82.9433 36.6894 83.3584C36.6693 83.455 36.669 83.587 36.6887 83.7541L36.7016 83.8657L36.769 84.602C36.782 84.8204 36.8048 85.0689 36.8374 85.3477C36.8875 85.7752 37.0147 85.9769 37.2191 85.953C37.2315 85.9516 37.2515 85.9478 37.279 85.9413C37.3065 85.935 37.345 85.9289 37.3946 85.9231C37.4496 85.9104 37.5206 85.8989 37.6073 85.8887C37.9418 85.8497 38.12 85.923 38.1417 86.1089C38.149 86.1708 38.1273 86.2267 38.0767 86.2766C38.0259 86.3266 37.9611 86.3624 37.882 86.3843Z" fill="black"/>
<path d="M40.3725 86.0927C40.1408 86.0445 39.8608 86.0396 39.5324 86.078C39.4405 86.1516 39.3388 86.1949 39.2272 86.208C39.1529 86.2167 39.0856 86.1915 39.0254 86.1326C38.9651 86.0737 38.9306 86.0071 38.9219 85.9328C38.861 85.4124 38.8015 84.7159 38.7433 83.8435C38.6724 82.9159 38.6102 82.2229 38.5566 81.7645L38.5489 81.6995C38.466 81.3135 38.4135 81.0244 38.3909 80.8324C38.3221 80.2438 38.396 79.9368 38.6129 79.9114C38.6748 79.9042 38.7317 79.921 38.7836 79.9622C38.8356 80.0032 38.8652 80.0546 38.8724 80.1166C38.8812 80.191 38.8856 80.3097 38.8859 80.4731C38.8854 80.6301 38.8898 80.7488 38.8993 80.8295C38.9479 81.2445 38.9948 81.619 39.0402 81.9528C39.0848 82.2805 39.1315 82.6519 39.18 83.067C39.16 83.1636 39.1597 83.2954 39.1792 83.4627L39.1923 83.5742L39.2596 84.3106C39.2726 84.5289 39.2954 84.7775 39.328 85.0563C39.3781 85.4838 39.5053 85.6855 39.7098 85.6616C39.7222 85.6602 39.7421 85.6562 39.7697 85.6499C39.7972 85.6436 39.8357 85.6375 39.8852 85.6316C39.9403 85.6189 40.0112 85.6075 40.0978 85.5973C40.4325 85.5583 40.6107 85.6316 40.6324 85.8174C40.6396 85.8794 40.618 85.9353 40.5672 85.9852C40.5166 86.035 40.4516 86.071 40.3725 86.0927Z" fill="black"/>
<path d="M42.5227 85.8694C42.3616 85.8882 42.2069 85.8545 42.0586 85.7683C41.9104 85.682 41.7827 85.5572 41.6756 85.3938C41.4518 85.037 41.292 84.638 41.1965 84.197C41.0914 83.7823 41.016 83.3796 40.9703 82.9894C40.9616 82.915 40.9575 82.8526 40.9579 82.8024L40.9384 82.6351C40.9347 82.6041 40.9297 82.589 40.9235 82.5898L40.904 82.4225L40.8371 81.7708C40.8202 81.5718 40.8079 81.253 40.8006 80.8142C40.7968 80.5131 40.8343 80.2167 40.9132 79.9249C40.9421 79.796 40.9868 79.695 41.0472 79.6219C41.1078 79.5488 41.1815 79.5073 41.2682 79.4971C41.516 79.4681 41.7443 79.4869 41.953 79.5535C42.1619 79.6202 42.3438 79.7261 42.499 79.8712C42.641 80.0116 42.7686 80.1898 42.8818 80.4058C42.9951 80.6217 43.0851 80.8545 43.1519 81.1043C43.2196 81.3601 43.2704 81.6336 43.3045 81.9248L43.3132 81.9992C43.3358 82.1913 43.3592 82.3644 43.3834 82.5185L43.4548 83.0472C43.6635 84.8315 43.3528 85.7722 42.5227 85.8694ZM42.4399 85.4834C42.5513 85.4704 42.6483 85.4135 42.7308 85.3128C42.8132 85.2121 42.87 85.0814 42.9015 84.9208C42.9823 84.5909 43.0137 84.2419 42.9956 83.8734C42.9896 83.5538 42.9732 83.2793 42.9464 83.0501C42.9138 82.7713 42.8492 82.4083 42.753 81.9611C42.66 81.4885 42.5998 81.1344 42.5721 80.899L42.5526 80.7316C42.5127 80.4976 42.4097 80.3025 42.2438 80.146C42.078 79.9896 41.8896 79.9237 41.6789 79.9483C41.4683 79.9729 41.3431 80.1101 41.3031 80.3597C41.2637 80.559 41.2617 80.8105 41.2972 81.114C41.311 81.2318 41.3257 81.3305 41.3414 81.4103L41.3707 81.6613L41.4022 82.091C41.405 82.2226 41.4154 82.3658 41.4336 82.5206C41.4728 82.8552 41.5208 83.1856 41.5779 83.5117C41.6571 83.9735 41.7719 84.4185 41.9225 84.8469C42.0754 85.2937 42.2478 85.506 42.4399 85.4834Z" fill="black"/>
<path d="M45.1848 85.5955C44.9867 85.6187 44.8122 85.6045 44.6618 85.5531C44.5638 85.5206 44.5107 85.4702 44.5029 85.4021C44.4956 85.3401 44.5161 85.2875 44.5644 85.2442C44.6127 85.2008 44.6709 85.1751 44.7392 85.1671C44.8073 85.1591 44.8831 85.1628 44.9665 85.1783C45.0816 85.1961 45.1609 85.2026 45.2042 85.1975C45.5017 85.1627 45.6062 84.7674 45.5177 84.0115L45.4404 83.5118C45.3914 83.2538 45.3581 83.0504 45.3407 82.9018C45.29 82.4681 45.3143 82.1669 45.4139 81.9982C45.2857 81.8687 45.2042 81.6553 45.1694 81.3579L45.1337 80.891C45.1203 80.6162 45.1031 80.3891 45.0822 80.2094C44.982 79.3544 44.7803 78.9447 44.4766 78.9802C44.4209 78.9868 44.3332 79.0158 44.2137 79.0675C44.1003 79.1184 44.0096 79.1479 43.9415 79.1559C43.9228 79.1581 43.903 79.1352 43.8816 79.0875C43.8603 79.0397 43.8471 78.9942 43.842 78.9509C43.834 78.8827 43.8613 78.8199 43.9236 78.7623C43.9859 78.7048 44.0598 78.6648 44.1451 78.6422C44.2427 78.6181 44.3164 78.6033 44.366 78.5975C44.7005 78.5583 44.9467 78.6221 45.1043 78.789C45.262 78.9558 45.3661 79.2278 45.4166 79.605L45.6144 81.2964C45.6275 81.408 45.6521 81.4977 45.6883 81.5657C45.7245 81.6337 45.7685 81.6741 45.8203 81.6869C45.9059 81.7208 46.0014 81.7316 46.1068 81.7192C46.2058 81.7077 46.2627 81.7638 46.2771 81.8878C46.2946 82.0364 46.2351 82.1187 46.0988 82.1347C46.019 82.1504 45.9568 82.1686 45.9121 82.1896C45.8675 82.2105 45.8302 82.2541 45.8002 82.3204C45.7655 82.3998 45.7559 82.5045 45.771 82.6347L45.8473 83.1251C45.8807 83.3033 45.9123 83.5195 45.9421 83.7735C45.9732 84.0399 45.9769 84.2058 45.9532 84.2715C45.9771 84.3692 45.9931 84.452 46.0011 84.5201C46.0352 84.8114 45.9804 85.0548 45.8369 85.2506C45.6934 85.4464 45.4761 85.5613 45.1848 85.5955Z" fill="black"/>
<path d="M29.5 55.1163C29.5 55.1163 33.639 55.2945 37.906 55.2791C42.1732 55.2638 47.1314 53.4337 47.1314 53.4337C47.1314 53.4337 43.6553 57.8334 43.6085 57.8295" fill="black"/>
<path d="M29.5 55.1163C29.5 55.1163 33.639 55.2945 37.906 55.2791C42.1732 55.2638 47.1314 53.4337 47.1314 53.4337C47.1314 53.4337 43.6553 57.8334 43.6085 57.8295" stroke="white" stroke-miterlimit="10" stroke-linejoin="round"/>
</svg>
