<svg width="36" height="36" viewBox="0 0 36 36" fill="none" xmlns="http://www.w3.org/2000/svg">
<path fill-rule="evenodd" clip-rule="evenodd" d="M13.7176 25.1041L4.8224 34.0351C4.06102 34.7657 3.65593 34.9345 3.20202 34.491L1.44662 32.7183L1.42038 32.69C0.88427 32.1117 0.782497 32.0019 1.58165 31.2663L10.865 22.0821C1.83475 7.41087 19.4057 -4.49154 29.5669 3.64599C43.038 14.4343 29.0604 34.491 13.7176 25.1041ZM21.5417 23.8436C16.1626 23.8436 11.8021 19.483 11.8021 14.104C11.8021 8.72497 16.1626 4.36441 21.5417 4.36441C26.9207 4.36441 31.2812 8.72497 31.2812 14.104C31.2812 19.483 26.9207 23.8436 21.5417 23.8436Z" fill="white"/>
<path d="M4.8224 34.0351L5.17675 34.3881L5.16858 34.3959L4.8224 34.0351ZM13.7176 25.1041L13.3633 24.7513L13.6418 24.4716L13.9785 24.6776L13.7176 25.1041ZM3.20202 34.491L2.85252 34.8486L2.84674 34.8428L3.20202 34.491ZM1.44662 32.7183L1.09134 33.0701L1.08553 33.0642L1.07993 33.0582L1.44662 32.7183ZM1.42038 32.69L1.78704 32.35L1.78707 32.35L1.42038 32.69ZM1.58165 31.2663L1.9333 31.6218L1.9269 31.6281L1.92028 31.6342L1.58165 31.2663ZM10.865 22.0821L11.2908 21.82L11.499 22.1582L11.2167 22.4375L10.865 22.0821ZM29.5669 3.64599L29.2543 4.03627L29.5669 3.64599ZM4.46813 33.6823L13.3633 24.7513L14.0718 25.4569L5.17666 34.388L4.46813 33.6823ZM3.55148 34.1334C3.62921 34.2093 3.67324 34.2276 3.68724 34.2319C3.69296 34.2337 3.70641 34.2389 3.74955 34.2256C3.87627 34.1865 4.09125 34.0437 4.47622 33.6743L5.16858 34.3959C4.79217 34.7571 4.42391 35.0641 4.04426 35.1811C3.83422 35.2459 3.61371 35.2558 3.39202 35.1873C3.1786 35.1214 3.00179 34.9944 2.85257 34.8486L3.55148 34.1334ZM1.8019 32.3664L3.5573 34.1391L2.84674 34.8428L1.09134 33.0701L1.8019 32.3664ZM1.78707 32.35L1.81331 32.3784L1.07993 33.0582L1.05369 33.0299L1.78707 32.35ZM1.92028 31.6342C1.72322 31.8156 1.60683 31.9361 1.5402 32.0227C1.4729 32.1102 1.49781 32.1108 1.49992 32.0565C1.50229 31.9954 1.47228 31.9771 1.51613 32.0396C1.56467 32.1086 1.64414 32.1959 1.78704 32.35L1.05372 33.0299C0.928562 32.8949 0.794277 32.7516 0.697926 32.6145C0.596882 32.4707 0.490856 32.2706 0.500668 32.0178C0.510212 31.7718 0.626015 31.571 0.747643 31.4129C0.869938 31.254 1.0405 31.0849 1.24302 30.8985L1.92028 31.6342ZM11.2167 22.4375L1.9333 31.6218L1.23 30.9109L10.5134 21.7266L11.2167 22.4375ZM29.2543 4.03627C24.3969 0.146233 17.7309 1.02173 13.3399 4.69429C11.1527 6.52371 9.55456 9.03152 9.04109 11.9542C8.52853 14.8717 9.08957 18.2436 11.2908 21.82L10.4392 22.3442C8.12537 18.5849 7.49641 14.9673 8.05617 11.7812C8.61502 8.60017 10.3515 5.89012 12.6984 3.92723C17.3756 0.0151627 24.5756 -0.991776 29.8794 3.25572L29.2543 4.03627ZM13.9785 24.6776C21.4107 29.2246 28.4547 26.6412 32.0414 21.649C35.6313 16.6523 35.7606 9.24676 29.2543 4.03627L29.8794 3.25572C36.8443 8.83352 36.7203 16.8504 32.8535 22.2325C28.9836 27.6189 21.3673 30.3704 13.4566 25.5306L13.9785 24.6776ZM12.3021 14.104C12.3021 19.2069 16.4388 23.3436 21.5417 23.3436V24.3436C15.8865 24.3436 11.3021 19.7592 11.3021 14.104H12.3021ZM21.5417 4.86441C16.4388 4.86441 12.3021 9.00111 12.3021 14.104H11.3021C11.3021 8.44883 15.8865 3.86441 21.5417 3.86441V4.86441ZM30.7812 14.104C30.7812 9.00111 26.6445 4.86441 21.5417 4.86441V3.86441C27.1968 3.86441 31.7812 8.44883 31.7812 14.104H30.7812ZM21.5417 23.3436C26.6445 23.3436 30.7812 19.2069 30.7812 14.104H31.7812C31.7812 19.7592 27.1968 24.3436 21.5417 24.3436V23.3436Z" fill="white"/>
</svg>
