<svg width="86" height="85" viewBox="0 0 86 85" fill="none" xmlns="http://www.w3.org/2000/svg">
<g filter="url(#filter0_d_39_2)">
<ellipse cx="42.9783" cy="38.5" rx="38.9783" ry="38.5" fill="#CC83F1"/>
<path d="M78.9565 38.5C78.9565 58.0713 62.8835 74 42.9783 74C23.073 74 7 58.0713 7 38.5C7 18.9287 23.073 3 42.9783 3C62.8835 3 78.9565 18.9287 78.9565 38.5Z" stroke="white" stroke-width="6"/>
</g>
<path d="M42.7839 9.56519C41.4893 9.56519 40.0652 9.82411 40.0652 12.025V15.9088C40.0652 17.8508 41.7482 18.2391 42.7839 18.2391C43.8196 18.2391 45.7615 17.8508 45.7615 15.9088V12.025C45.7615 9.82411 44.0785 9.56519 42.7839 9.56519Z" fill="#5B197C" stroke="white" stroke-width="1.5"/>
<path d="M63.2682 17.7017C62.3527 16.7862 61.1626 15.9624 59.6064 17.5187L56.8602 20.2651C55.4871 21.6383 56.4026 23.1029 57.1349 23.8353C57.8673 24.5676 59.5151 25.6661 60.8882 24.2929L63.6345 21.5465C65.1907 19.9902 64.1836 18.6171 63.2682 17.7017Z" fill="#5B197C" stroke="white" stroke-width="1.5"/>
<path d="M71.9128 38.4353C71.9128 37.1406 71.6539 35.7166 69.4531 35.7166H65.5692C63.6273 35.7166 63.2389 37.3996 63.2389 38.4353C63.2389 39.471 63.6273 41.4129 65.5692 41.4129H69.4531C71.6539 41.4129 71.9128 39.7299 71.9128 38.4353Z" fill="#5B197C" stroke="white" stroke-width="1.5"/>
<path d="M63.575 58.652C64.4609 57.7079 65.2465 56.4923 63.6415 54.9863L60.8092 52.3288C59.3931 51 57.9582 51.9616 57.2496 52.7169C56.5409 53.4721 55.4954 55.1541 56.9115 56.4828L59.7438 59.1404C61.3488 60.6463 62.6892 59.5961 63.575 58.652Z" fill="#5B197C" stroke="white" stroke-width="1.5"/>
<path d="M42.6545 58.7607C41.3599 58.7607 39.9358 59.0197 39.9358 61.2205V65.1044C39.9358 67.0463 41.6188 67.4347 42.6545 67.4347C43.6902 67.4347 45.6321 67.0463 45.6321 65.1044V61.2205C45.6321 59.0197 43.9491 58.7607 42.6545 58.7607Z" fill="#5B197C" stroke="white" stroke-width="1.5"/>
<path d="M28.3133 52.6565C27.3979 51.7411 26.2078 50.9172 24.6516 52.4735L21.9054 55.2199C20.5323 56.5931 21.4477 58.0578 22.1801 58.7901C22.9125 59.5224 24.5603 60.6209 25.9334 59.2477L28.6796 56.5013C30.2358 54.945 29.2288 53.5719 28.3133 52.6565Z" fill="#5B197C" stroke="white" stroke-width="1.5"/>
<path d="M22.7175 38.4353C22.7175 37.1406 22.4586 35.7166 20.2577 35.7166H16.3739C14.432 35.7166 14.0436 37.3996 14.0436 38.4353C14.0436 39.471 14.432 41.4129 16.3739 41.4129H20.2577C22.4586 41.4129 22.7175 39.7299 22.7175 38.4353Z" fill="#5B197C" stroke="white" stroke-width="1.5"/>
<path d="M28.6204 23.6972C29.5063 22.7531 30.2919 21.5374 28.6869 20.0315L25.8546 17.374C24.4385 16.0452 23.0037 17.0068 22.295 17.762C21.5863 18.5173 20.5408 20.1992 21.9569 21.528L24.7892 24.1855C26.3942 25.6915 27.7346 24.6413 28.6204 23.6972Z" fill="#5B197C" stroke="white" stroke-width="1.5"/>
<circle cx="42.9134" cy="38.4354" r="12.6292" fill="#5B197C" stroke="white" stroke-width="4"/>
<defs>
<filter id="filter0_d_39_2" x="0" y="0" width="85.9565" height="85" filterUnits="userSpaceOnUse" color-interpolation-filters="sRGB">
<feFlood flood-opacity="0" result="BackgroundImageFix"/>
<feColorMatrix in="SourceAlpha" type="matrix" values="0 0 0 0 0 0 0 0 0 0 0 0 0 0 0 0 0 0 127 0" result="hardAlpha"/>
<feOffset dy="4"/>
<feGaussianBlur stdDeviation="2"/>
<feComposite in2="hardAlpha" operator="out"/>
<feColorMatrix type="matrix" values="0 0 0 0 0 0 0 0 0 0 0 0 0 0 0 0 0 0 0.25 0"/>
<feBlend mode="normal" in2="BackgroundImageFix" result="effect1_dropShadow_39_2"/>
<feBlend mode="normal" in="SourceGraphic" in2="effect1_dropShadow_39_2" result="shape"/>
</filter>
</defs>
</svg>
